<svg width="287" height="73" viewBox="0 0 287 73" fill="none" xmlns="http://www.w3.org/2000/svg">
<g filter="url(#filter0_d_4489_49110)">
<rect x="8" y="6" width="270.209" height="56.8837" rx="28.4419" fill="white" shape-rendering="crispEdges"/>
<rect x="8.25" y="6.25" width="269.709" height="56.3837" rx="28.1919" stroke="#CBCBCB" stroke-width="0.5" shape-rendering="crispEdges"/>
<path d="M43.3136 42.592C42.2669 42.592 41.2776 42.4056 40.3456 42.0328C39.428 41.66 38.6179 41.1366 37.9153 40.4628C37.2127 39.7745 36.6607 38.9644 36.2593 38.0325C35.8721 37.1005 35.6786 36.0753 35.6786 34.957C35.6786 33.8386 35.8721 32.8206 36.2593 31.903C36.6607 30.971 37.2127 30.1681 37.9153 29.4942C38.6179 28.806 39.428 28.2755 40.3456 27.9027C41.2776 27.5299 42.2669 27.3435 43.3136 27.3435C44.3889 27.3435 45.3782 27.5299 46.2815 27.9027C47.1991 28.2611 47.9877 28.7916 48.6473 29.4942C49.3068 30.1968 49.7943 31.057 50.1098 32.075L47.83 32.7848C47.4572 31.7668 46.8909 30.9638 46.131 30.376C45.3711 29.7881 44.4534 29.4942 43.3781 29.4942C42.3888 29.4942 41.4998 29.7164 40.7112 30.1609C39.937 30.6054 39.3204 31.2363 38.8616 32.0535C38.4171 32.8708 38.1949 33.8386 38.1949 34.957C38.1949 36.0753 38.41 37.0503 38.8401 37.8819C39.2846 38.6992 39.8939 39.3372 40.6682 39.796C41.4424 40.2405 42.3242 40.4628 43.3136 40.4628C44.3029 40.4628 45.2205 40.176 46.0664 39.6025C46.9267 39.0146 47.5576 38.2404 47.9591 37.2797L50.2818 37.8174C49.9377 38.8497 49.4072 39.7244 48.6903 40.4413C47.9734 41.1438 47.149 41.6815 46.217 42.0543C45.285 42.4127 44.3172 42.592 43.3136 42.592ZM52.8571 42.4414V30.5911H55.3089V42.4414H52.8571ZM54.5992 36.4625L55.3089 33.1934C55.5957 32.3475 56.0617 31.6807 56.7069 31.1933C57.3664 30.6914 58.112 30.4405 58.9436 30.4405V32.9783C58.8289 32.9497 58.7142 32.9353 58.5995 32.9353C58.4991 32.921 58.3916 32.9138 58.2769 32.9138C57.689 32.9138 57.1728 33.05 56.7284 33.3224C56.2839 33.5805 55.9326 33.9748 55.6745 34.5053C55.4308 35.0215 55.3089 35.6739 55.3089 36.4625H54.5992ZM66.491 42.592C65.5304 42.592 64.6558 42.4414 63.8672 42.1403C63.0929 41.8392 62.4262 41.4162 61.867 40.8714C61.3222 40.3266 60.8992 39.6957 60.5981 38.9788C60.3114 38.2475 60.168 37.4518 60.168 36.5915C60.168 35.6595 60.3329 34.8208 60.6626 34.0752C61.0067 33.3153 61.4656 32.6629 62.0391 32.1181C62.6269 31.5732 63.3008 31.1574 64.0607 30.8706C64.8207 30.5839 65.6164 30.4405 66.448 30.4405C67.1936 30.4405 67.8746 30.5409 68.4912 30.7416C69.1077 30.9423 69.6382 31.2219 70.0827 31.5804C70.5415 31.9388 70.8928 32.3546 71.1365 32.8278C71.3803 33.3009 71.5022 33.8099 71.5022 34.3548C71.5022 35.1147 71.2799 35.7456 70.8354 36.2474C70.391 36.7492 69.8103 37.1435 69.0934 37.4303C68.3765 37.717 67.5879 37.9106 66.7276 38.011C65.8673 38.1113 65.0142 38.14 64.1683 38.097C64.0249 38.0827 63.8457 38.0755 63.6306 38.0755C63.4155 38.0611 63.222 38.054 63.0499 38.054C62.8922 38.0396 62.8062 38.0325 62.7918 38.0325C62.8922 38.5056 63.1144 38.9358 63.4585 39.3229C63.817 39.6957 64.2615 39.9896 64.792 40.2047C65.3225 40.4197 65.8888 40.5273 66.491 40.5273C66.9785 40.5273 67.4588 40.4413 67.932 40.2692C68.4195 40.0971 68.864 39.8606 69.2654 39.5595C69.6669 39.2584 70.0038 38.9143 70.2763 38.5271L72.1044 39.8391C71.6312 40.4699 71.0935 40.9933 70.4913 41.4091C69.9035 41.8105 69.2726 42.1116 68.5987 42.3124C67.9248 42.4988 67.2223 42.592 66.491 42.592ZM64.3833 36.1399C64.9138 36.1399 65.4515 36.1184 65.9964 36.0753C66.5412 36.018 67.043 35.9248 67.5019 35.7957C67.975 35.6524 68.355 35.4588 68.6417 35.2151C68.9285 34.9713 69.0719 34.6559 69.0719 34.2688C69.0719 33.939 68.9643 33.645 68.7493 33.387C68.5485 33.1145 68.2618 32.8995 67.889 32.7418C67.5162 32.584 67.0789 32.5052 66.5771 32.5052C65.8315 32.5052 65.1648 32.6701 64.5769 32.9998C63.989 33.3296 63.5231 33.7669 63.179 34.3118C62.8492 34.8566 62.67 35.4445 62.6413 36.0753C62.842 36.0897 63.0929 36.104 63.394 36.1184C63.6951 36.1327 64.0249 36.1399 64.3833 36.1399ZM79.0326 42.592C78.0003 42.592 77.0612 42.341 76.2152 41.8392C75.3836 41.323 74.7169 40.6133 74.2151 39.71C73.7276 38.7924 73.4838 37.7242 73.4838 36.5055C73.4838 35.2867 73.7276 34.2257 74.2151 33.3224C74.7169 32.4048 75.3836 31.6951 76.2152 31.1933C77.0612 30.6914 78.0003 30.4405 79.0326 30.4405C80.0076 30.4405 80.8607 30.6843 81.592 31.1717C82.3232 31.6449 82.8537 32.3044 83.1835 33.1504V30.5911H85.6568V42.4414H84.5599C84.1585 42.4414 83.8287 42.3124 83.5706 42.0543C83.3125 41.7962 83.1835 41.4664 83.1835 41.065V39.8606C82.8537 40.7065 82.3232 41.3732 81.592 41.8607C80.8607 42.3482 80.0076 42.592 79.0326 42.592ZM79.5918 40.4628C80.2083 40.4628 80.789 40.3122 81.3339 40.0111C81.8787 39.71 82.3232 39.2655 82.6673 38.6777C83.0114 38.0755 83.1835 37.3514 83.1835 36.5055C83.1835 35.6452 83.0114 34.9283 82.6673 34.3548C82.3232 33.7669 81.8787 33.3224 81.3339 33.0213C80.789 32.7202 80.2083 32.5697 79.5918 32.5697C78.9896 32.5697 78.4089 32.7202 77.8497 33.0213C77.3049 33.3224 76.8604 33.7669 76.5163 34.3548C76.1722 34.9283 76.0001 35.6452 76.0001 36.5055C76.0001 37.3514 76.1722 38.0755 76.5163 38.6777C76.8604 39.2655 77.3049 39.71 77.8497 40.0111C78.4089 40.3122 78.9896 40.4628 79.5918 40.4628ZM92.8559 42.592C91.9526 42.592 91.1999 42.2837 90.5977 41.6672C89.9955 41.0506 89.6944 40.2118 89.6944 39.1508V32.5912H87.8663V30.5911H95.0496V32.5912H92.1677V39.3014C92.1677 39.7028 92.2681 39.9896 92.4688 40.1617C92.6839 40.3337 92.9133 40.4197 93.157 40.4197C93.3721 40.4197 93.5656 40.3839 93.7377 40.3122C93.9098 40.2405 94.0746 40.1258 94.2324 39.9681L95.5013 41.4951C95.0998 41.8822 94.6912 42.1618 94.2754 42.3339C93.8596 42.5059 93.3864 42.592 92.8559 42.592ZM88.7481 31.5159V30.5911C89.0492 30.5911 89.2786 30.505 89.4363 30.333C89.6084 30.1609 89.6944 29.9243 89.6944 29.6232V27.6446H92.1677V29.2146C92.1677 29.4153 92.1175 29.6161 92.0171 29.8168C91.9168 30.0032 91.7734 30.1681 91.587 30.3115C91.4149 30.4405 91.2214 30.5337 91.0063 30.5911L88.7481 31.5159ZM103.057 42.592C102.096 42.592 101.222 42.4414 100.433 42.1403C99.659 41.8392 98.9923 41.4162 98.4331 40.8714C97.8883 40.3266 97.4653 39.6957 97.1642 38.9788C96.8774 38.2475 96.7341 37.4518 96.7341 36.5915C96.7341 35.6595 96.8989 34.8208 97.2287 34.0752C97.5728 33.3153 98.0316 32.6629 98.6052 32.1181C99.193 31.5732 99.8669 31.1574 100.627 30.8706C101.387 30.5839 102.182 30.4405 103.014 30.4405C103.76 30.4405 104.441 30.5409 105.057 30.7416C105.674 30.9423 106.204 31.2219 106.649 31.5804C107.108 31.9388 107.459 32.3546 107.703 32.8278C107.946 33.3009 108.068 33.8099 108.068 34.3548C108.068 35.1147 107.846 35.7456 107.402 36.2474C106.957 36.7492 106.376 37.1435 105.659 37.4303C104.943 37.717 104.154 37.9106 103.294 38.011C102.433 38.1113 101.58 38.14 100.734 38.097C100.591 38.0827 100.412 38.0755 100.197 38.0755C99.9816 38.0611 99.788 38.054 99.616 38.054C99.4583 38.0396 99.3722 38.0325 99.3579 38.0325C99.4583 38.5056 99.6805 38.9358 100.025 39.3229C100.383 39.6957 100.828 39.9896 101.358 40.2047C101.889 40.4197 102.455 40.5273 103.057 40.5273C103.545 40.5273 104.025 40.4413 104.498 40.2692C104.986 40.0971 105.43 39.8606 105.832 39.5595C106.233 39.2584 106.57 38.9143 106.842 38.5271L108.67 39.8391C108.197 40.4699 107.66 40.9933 107.057 41.4091C106.47 41.8105 105.839 42.1116 105.165 42.3124C104.491 42.4988 103.788 42.592 103.057 42.592ZM100.949 36.1399C101.48 36.1399 102.018 36.1184 102.562 36.0753C103.107 36.018 103.609 35.9248 104.068 35.7957C104.541 35.6524 104.921 35.4588 105.208 35.2151C105.495 34.9713 105.638 34.6559 105.638 34.2688C105.638 33.939 105.53 33.645 105.315 33.387C105.115 33.1145 104.828 32.8995 104.455 32.7418C104.082 32.584 103.645 32.5052 103.143 32.5052C102.398 32.5052 101.731 32.6701 101.143 32.9998C100.555 33.3296 100.089 33.7669 99.745 34.3118C99.4153 34.8566 99.236 35.4445 99.2074 36.0753C99.4081 36.0897 99.659 36.104 99.9601 36.1184C100.261 36.1327 100.591 36.1399 100.949 36.1399ZM124.455 42.6135V30.5911H126.906V42.6135C126.906 43.4451 126.777 44.1978 126.519 44.8717C126.261 45.5599 125.881 46.1549 125.379 46.6568C124.878 47.1586 124.268 47.5457 123.551 47.8182C122.834 48.0906 122.01 48.2268 121.078 48.2268C120.132 48.2268 119.293 48.0691 118.562 47.7536C117.83 47.4525 117.207 46.9937 116.691 46.3772C116.174 45.775 115.773 45.0294 115.486 44.1405L117.723 43.3447C118.024 44.205 118.44 44.886 118.97 45.3879C119.515 45.8897 120.203 46.1406 121.035 46.1406C122.053 46.1406 122.877 45.8323 123.508 45.2158C124.139 44.6136 124.455 43.7462 124.455 42.6135ZM124.971 37.1722C124.928 38.2762 124.763 39.1723 124.476 39.8606C124.204 40.5488 123.852 41.0721 123.422 41.4306C122.992 41.789 122.54 42.0328 122.067 42.1618C121.594 42.2909 121.142 42.3554 120.712 42.3554C119.795 42.3554 118.985 42.169 118.282 41.7962C117.579 41.4091 117.035 40.8427 116.648 40.0971C116.26 39.3516 116.067 38.4268 116.067 37.3227V30.5911H118.497V36.8066C118.497 37.8963 118.77 38.7422 119.314 39.3444C119.859 39.9323 120.576 40.2262 121.465 40.2262C122.067 40.2262 122.591 40.0685 123.035 39.753C123.494 39.4376 123.845 39.0075 124.089 38.4626C124.333 37.9178 124.455 37.2941 124.455 36.5915L124.971 37.1722ZM134.952 42.592C133.834 42.592 132.823 42.341 131.919 41.8392C131.031 41.3374 130.321 40.6277 129.79 39.71C129.274 38.7924 129.016 37.7242 129.016 36.5055C129.016 35.2724 129.281 34.2042 129.812 33.3009C130.357 32.3976 131.088 31.6951 132.006 31.1933C132.923 30.6914 133.941 30.4405 135.06 30.4405C136.192 30.4405 137.21 30.6914 138.113 31.1933C139.031 31.6951 139.755 32.3976 140.286 33.3009C140.831 34.2042 141.103 35.2724 141.103 36.5055C141.103 37.7242 140.823 38.7924 140.264 39.71C139.719 40.6277 138.981 41.3374 138.049 41.8392C137.117 42.341 136.085 42.592 134.952 42.592ZM134.952 40.4628C135.569 40.4628 136.149 40.3194 136.694 40.0326C137.253 39.7315 137.705 39.287 138.049 38.6992C138.407 38.1113 138.587 37.3801 138.587 36.5055C138.587 35.6165 138.415 34.8853 138.07 34.3118C137.726 33.7239 137.282 33.2866 136.737 32.9998C136.207 32.7131 135.633 32.5697 135.016 32.5697C134.4 32.5697 133.826 32.7131 133.296 32.9998C132.765 33.2866 132.335 33.7239 132.006 34.3118C131.676 34.8853 131.511 35.6165 131.511 36.5055C131.511 37.3801 131.669 38.1113 131.984 38.6992C132.299 39.287 132.715 39.7315 133.231 40.0326C133.762 40.3194 134.335 40.4628 134.952 40.4628ZM151.807 41.065V30.5911H154.259V42.4414H153.183C152.782 42.4414 152.452 42.3124 152.194 42.0543C151.936 41.7962 151.807 41.4664 151.807 41.065ZM148.065 42.592C147.147 42.592 146.337 42.4056 145.634 42.0328C144.932 41.6456 144.387 41.0793 144 40.3337C143.613 39.5881 143.419 38.6633 143.419 37.5593V30.5911H145.849V37.0432C145.849 38.1328 146.122 38.9788 146.667 39.581C147.212 40.1688 147.928 40.4628 148.817 40.4628C149.42 40.4628 149.943 40.305 150.387 39.9896C150.846 39.6742 151.198 39.244 151.441 38.6992C151.685 38.1543 151.807 37.5306 151.807 36.8281L152.237 37.4518C152.194 38.6275 151.972 39.5953 151.57 40.3552C151.183 41.1151 150.681 41.6815 150.065 42.0543C149.448 42.4127 148.782 42.592 148.065 42.592ZM157.494 42.4414V30.5911H159.945V42.4414H157.494ZM159.236 36.4625L159.945 33.1934C160.232 32.3475 160.698 31.6807 161.343 31.1933C162.003 30.6914 162.749 30.4405 163.58 30.4405V32.9783C163.465 32.9497 163.351 32.9353 163.236 32.9353C163.136 32.921 163.028 32.9138 162.913 32.9138C162.326 32.9138 161.809 33.05 161.365 33.3224C160.92 33.5805 160.569 33.9748 160.311 34.5053C160.067 35.0215 159.945 35.6739 159.945 36.4625H159.236ZM173.87 27.494V40.4628H178.925V42.4414H171.419V27.494H173.87ZM181.039 42.4414V30.5911H183.491V42.4414H181.039ZM182.287 29.021C181.771 29.021 181.333 28.8562 180.975 28.5264C180.616 28.1966 180.437 27.788 180.437 27.3005C180.437 26.813 180.616 26.4044 180.975 26.0746C181.333 25.7305 181.771 25.5584 182.287 25.5584C182.789 25.5584 183.219 25.7305 183.577 26.0746C183.95 26.4044 184.136 26.813 184.136 27.3005C184.136 27.788 183.95 28.1966 183.577 28.5264C183.219 28.8562 182.789 29.021 182.287 29.021ZM190.943 42.592C190.111 42.592 189.365 42.4486 188.706 42.1618C188.046 41.8607 187.501 41.4593 187.071 40.9574C186.641 40.4556 186.347 39.9108 186.19 39.3229L188.534 38.8067C188.677 39.3372 188.964 39.7602 189.394 40.0756C189.839 40.3767 190.34 40.5273 190.9 40.5273C191.616 40.5273 192.154 40.3982 192.513 40.1402C192.885 39.8677 193.072 39.5308 193.072 39.1293C193.072 38.7422 192.907 38.4411 192.577 38.226C192.247 38.011 191.817 37.8317 191.287 37.6884C190.77 37.545 190.218 37.3944 189.631 37.2367C189.043 37.079 188.484 36.8711 187.953 36.613C187.437 36.3549 187.014 36.0108 186.684 35.5807C186.354 35.1362 186.19 34.5555 186.19 33.8386C186.19 33.2077 186.376 32.6342 186.749 32.1181C187.121 31.6019 187.645 31.1933 188.319 30.8922C189.007 30.5911 189.817 30.4405 190.749 30.4405C191.552 30.4405 192.262 30.5695 192.878 30.8276C193.495 31.0857 194.004 31.4513 194.405 31.9245C194.807 32.3833 195.079 32.9353 195.222 33.5805L192.878 34.1827C192.735 33.6379 192.484 33.2221 192.125 32.9353C191.767 32.6486 191.279 32.5052 190.663 32.5052C190.003 32.5052 189.502 32.6271 189.157 32.8708C188.828 33.1002 188.663 33.4156 188.663 33.8171C188.663 34.2042 188.828 34.5125 189.157 34.7419C189.487 34.957 189.91 35.1434 190.426 35.3011C190.943 35.4445 191.487 35.595 192.061 35.7527C192.649 35.9105 193.201 36.1184 193.717 36.3764C194.233 36.6202 194.656 36.9643 194.986 37.4088C195.316 37.8389 195.481 38.4053 195.481 39.1078C195.481 39.7244 195.294 40.2979 194.921 40.8284C194.563 41.3589 194.04 41.789 193.351 42.1188C192.677 42.4342 191.875 42.592 190.943 42.592ZM202.113 42.592C201.21 42.592 200.457 42.2837 199.855 41.6672C199.253 41.0506 198.952 40.2118 198.952 39.1508V32.5912H197.123V30.5911H204.307V32.5912H201.425V39.3014C201.425 39.7028 201.525 39.9896 201.726 40.1617C201.941 40.3337 202.17 40.4197 202.414 40.4197C202.629 40.4197 202.823 40.3839 202.995 40.3122C203.167 40.2405 203.332 40.1258 203.49 39.9681L204.758 41.4951C204.357 41.8822 203.948 42.1618 203.533 42.3339C203.117 42.5059 202.644 42.592 202.113 42.592ZM198.005 31.5159V30.5911C198.306 30.5911 198.536 30.505 198.693 30.333C198.866 30.1609 198.952 29.9243 198.952 29.6232V27.6446H201.425V29.2146C201.425 29.4153 201.375 29.6161 201.274 29.8168C201.174 30.0032 201.031 30.1681 200.844 30.3115C200.672 30.4405 200.479 30.5337 200.263 30.5911L198.005 31.5159Z" fill="#212121"/>
<path d="M219.324 19.4414H239.266M219.324 28.4414H251.324M219.324 37.4414H245.759M219.324 46.4414H251.324" stroke="#212121" stroke-width="4"/>
</g>
<defs>
<filter id="filter0_d_4489_49110" x="0" y="0" width="286.211" height="72.8828" filterUnits="userSpaceOnUse" color-interpolation-filters="sRGB">
<feFlood flood-opacity="0" result="BackgroundImageFix"/>
<feColorMatrix in="SourceAlpha" type="matrix" values="0 0 0 0 0 0 0 0 0 0 0 0 0 0 0 0 0 0 127 0" result="hardAlpha"/>
<feOffset dy="2"/>
<feGaussianBlur stdDeviation="4"/>
<feComposite in2="hardAlpha" operator="out"/>
<feColorMatrix type="matrix" values="0 0 0 0 0 0 0 0 0 0 0 0 0 0 0 0 0 0 0.1 0"/>
<feBlend mode="normal" in2="BackgroundImageFix" result="effect1_dropShadow_4489_49110"/>
<feBlend mode="normal" in="SourceGraphic" in2="effect1_dropShadow_4489_49110" result="shape"/>
</filter>
</defs>
</svg>
