<svg width="35" height="35" viewBox="0 0 35 35" fill="none" xmlns="http://www.w3.org/2000/svg">
<circle cx="17.2727" cy="17.2727" r="16.1932" stroke="#212121" stroke-width="2.15909"/>
<mask id="mask0_297_51838" style="mask-type:alpha" maskUnits="userSpaceOnUse" x="5" y="6" width="24" height="24">
<rect x="6.83736" y="7.98873" width="20.8712" height="20.8712" fill="#D9D9D9" stroke="#212121" stroke-width="2.15909"/>
</mask>
<g mask="url(#mask0_297_51838)">
<mask id="path-3-inside-1_297_51838" fill="white">
<path d="M14.3943 24.1819L8.63672 18.4243L14.3943 12.6667L15.7377 14.0102L12.2832 17.4647H23.9903V13.6263H25.9094V19.3839H12.2832L15.7377 22.8385L14.3943 24.1819Z"/>
</mask>
<path d="M14.3943 24.1819L8.63672 18.4243L14.3943 12.6667L15.7377 14.0102L12.2832 17.4647H23.9903V13.6263H25.9094V19.3839H12.2832L15.7377 22.8385L14.3943 24.1819Z" fill="#FEFCFA"/>
<path d="M14.3943 24.1819L12.8676 25.7086L14.3943 27.2353L15.921 25.7086L14.3943 24.1819ZM8.63672 18.4243L7.11001 16.8976L5.5833 18.4243L7.11001 19.951L8.63672 18.4243ZM14.3943 12.6667L15.921 11.14L14.3943 9.61333L12.8676 11.14L14.3943 12.6667ZM15.7377 14.0102L17.2644 15.5369L18.7911 14.0102L17.2644 12.4835L15.7377 14.0102ZM12.2832 17.4647L10.7565 15.938L7.07068 19.6238H12.2832V17.4647ZM23.9903 17.4647V19.6238H26.1493V17.4647H23.9903ZM23.9903 13.6263V11.4673H21.8312V13.6263H23.9903ZM25.9094 13.6263H28.0685V11.4673H25.9094V13.6263ZM25.9094 19.3839V21.543H28.0685V19.3839H25.9094ZM12.2832 19.3839V17.2248H7.07068L10.7565 20.9106L12.2832 19.3839ZM15.7377 22.8385L17.2644 24.3652L18.7911 22.8385L17.2644 21.3118L15.7377 22.8385ZM14.3943 24.1819L15.921 22.6552L10.1634 16.8976L8.63672 18.4243L7.11001 19.951L12.8676 25.7086L14.3943 24.1819ZM8.63672 18.4243L10.1634 19.951L15.921 14.1935L14.3943 12.6667L12.8676 11.14L7.11001 16.8976L8.63672 18.4243ZM14.3943 12.6667L12.8676 14.1935L14.211 15.5369L15.7377 14.0102L17.2644 12.4835L15.921 11.14L14.3943 12.6667ZM15.7377 14.0102L14.211 12.4835L10.7565 15.938L12.2832 17.4647L13.8099 18.9914L17.2644 15.5369L15.7377 14.0102ZM12.2832 17.4647V19.6238H23.9903V17.4647V15.3056H12.2832V17.4647ZM23.9903 17.4647H26.1493V13.6263H23.9903H21.8312V17.4647H23.9903ZM23.9903 13.6263V15.7854H25.9094V13.6263V11.4673H23.9903V13.6263ZM25.9094 13.6263H23.7504V19.3839H25.9094H28.0685V13.6263H25.9094ZM25.9094 19.3839V17.2248H12.2832V19.3839V21.543H25.9094V19.3839ZM12.2832 19.3839L10.7565 20.9106L14.211 24.3652L15.7377 22.8385L17.2644 21.3118L13.8099 17.8572L12.2832 19.3839ZM15.7377 22.8385L14.211 21.3118L12.8676 22.6552L14.3943 24.1819L15.921 25.7086L17.2644 24.3652L15.7377 22.8385Z" fill="#212121" mask="url(#path-3-inside-1_297_51838)"/>
</g>
</svg>
