<svg width="1128" height="101" viewBox="0 0 1128 101" fill="none" xmlns="http://www.w3.org/2000/svg">
<path d="M0 97.5H1127.5" stroke="#EAB431" stroke-width="6"/>
<path d="M568.922 97.7492L563.396 97.6148C563.684 85.1947 567.694 73.9263 574.14 67.4571C579.11 62.4853 587.014 58.8187 595.13 57.6861C598.775 43.2696 608.368 33.8441 622.143 31.099C622.181 30.8495 622.239 30.5807 622.277 30.3312C623.87 21.5584 629.376 15.1852 637.76 12.3633L639.525 17.6039C635.189 19.0628 629.741 22.4606 627.918 30.3504C628.705 30.312 629.51 30.2736 630.316 30.2736H630.662C637.281 30.2736 645.78 32.366 650.135 38.2785C654.183 43.7111 652.898 52.4647 647.391 56.6111C644.801 58.5692 641.655 59.337 638.355 58.8379C632.964 58.0509 628.494 54.2692 626.095 50.9866C623.179 46.9937 621.683 42.2522 621.663 36.8196C611.226 39.3151 604.109 46.341 600.924 57.3022C605.816 57.379 610.555 58.5116 614.507 60.9495C619.073 63.7714 622.009 68.9545 621.99 74.1567C621.97 78.8982 619.515 83.1023 615.255 85.6938C611.495 87.9782 607.313 87.8822 603.437 85.4442C597.413 81.6433 593.096 72.6594 593.806 65.4031C593.863 64.7696 593.94 64.1361 594.017 63.5219C587.762 64.7504 581.757 67.6491 578.054 71.354C572.586 76.825 569.171 86.692 568.922 97.73V97.7492ZM599.696 62.9076C599.542 63.9058 599.408 64.9232 599.312 65.979C598.813 71.0661 602.19 78.1304 606.392 80.7987C608.483 82.104 610.44 82.1808 612.397 81.0098C615.754 78.975 616.464 76.1723 616.464 74.1759C616.464 70.8549 614.565 67.5147 611.61 65.6911C608.272 63.6178 604.032 62.8116 599.696 62.9076ZM627.208 35.9749C627.055 40.6205 628.167 44.4982 630.566 47.7424C632.714 50.6794 636.168 52.9446 639.161 53.3861C641.003 53.6549 642.653 53.271 644.072 52.1959C647.085 49.9116 647.929 44.5558 645.703 41.5803C642.691 37.5107 635.861 35.7446 630.374 35.8022C629.299 35.8022 628.225 35.8598 627.208 35.9557V35.9749Z" fill="#EAB431"/>
<path d="M568.864 89.3979L563.435 88.3229C563.838 86.3073 564.337 84.1573 564.855 81.9497C566.409 75.3077 568.174 67.8019 567.502 61.7742C567.502 61.7358 567.502 61.6782 567.502 61.6399C564.279 62.6957 560.73 63.0796 557.737 62.6573C551.636 61.755 545.189 57.8198 545.439 51.3122C545.535 48.7974 546.705 46.4746 548.739 44.7662C551.214 42.6737 554.801 41.6179 558.044 42.0211C564.317 42.7889 568.692 47.7416 571.052 53.5389C574.505 50.813 576.443 47.0121 578.476 41.5028C579.685 38.2202 580.453 34.4769 580.472 30.8871C579.8 31.4054 579.11 31.8853 578.4 32.3269C573.584 35.2639 565.967 34.6688 561.401 32.4228C556.087 29.7929 553.669 23.1125 556.01 17.5264C558.14 12.5161 563.301 10.1357 570.591 10.8076C574.256 11.1339 577.767 12.7848 580.453 15.4724C581.489 16.509 582.371 17.6416 583.1 18.8701C583.964 17.0081 584.501 15.0692 584.616 13.2456C584.904 9.09912 584.328 5.4134 582.889 2.28438L587.916 0C589.719 3.97367 590.468 8.54243 590.122 13.6103C589.854 17.6224 588.146 21.9032 585.537 25.5505C586.688 31.6166 585.575 38.2969 583.676 43.4224C581.45 49.4309 578.918 55.1706 572.721 59.1443C572.836 59.8162 572.951 60.4881 573.028 61.1407C573.814 68.1091 571.915 76.1332 570.265 83.1975C569.766 85.3475 569.267 87.4207 568.884 89.3979H568.864ZM556.624 47.4537C555.07 47.4537 553.42 48.0296 552.307 48.9702C551.444 49.6996 551.003 50.5443 550.964 51.5233C550.83 54.8059 555.53 56.7256 558.523 57.1671C560.749 57.4934 563.608 57.1095 566.121 56.2456C564.528 52.0992 561.651 48.0296 557.353 47.4921C557.104 47.4537 556.873 47.4537 556.624 47.4537ZM568.135 16.221C564.432 16.221 562.073 17.3728 561.094 19.6764C559.885 22.5558 561.133 26.1072 563.838 27.4509C567.33 29.1786 572.797 29.2554 575.522 27.5853C576.942 26.7215 578.285 25.5889 579.474 24.2643C578.841 22.4023 577.882 20.7322 576.52 19.3692C574.735 17.6032 572.452 16.509 570.054 16.2978C569.363 16.2402 568.73 16.2018 568.116 16.2018L568.135 16.221Z" fill="#EAB431"/>
<path d="M562.704 100.57C561.956 87.7081 551.98 73.1572 539.989 67.475C539.029 67.0143 537.974 66.592 536.842 66.2272C536.919 71.8134 535.326 77.5916 529.878 81.6036C524.966 85.2126 520.86 84.2527 518.827 83.3505C515.392 81.834 512.994 78.417 512.572 74.4433C512.131 70.3353 513.915 66.5152 517.426 63.9813C521.34 61.1402 525.734 59.7005 530.396 59.6621C529.647 56.6674 528.592 54.1143 527.959 52.7129C526.443 49.3728 523.738 45.6678 520.515 43.0187C520.458 46.7236 519.46 50.6205 517.637 53.308C514.587 57.8384 509.752 60.2955 504.687 59.854C500.236 59.4701 496.437 56.917 494.768 53.1737C493.693 50.7933 492.619 45.8598 497.339 39.5634C500.447 35.4169 505.8 33.3053 511.69 33.6892C507.104 26.8745 500.677 26.0299 486.326 26.8361L486 21.3075C501.963 20.3861 512.227 20.9044 518.942 35.4745C525.273 38.3924 530.434 44.7656 532.986 50.4094C533.849 52.329 535.326 55.9955 536.171 60.2763C538.204 60.7371 540.276 61.4665 542.329 62.4455C555.989 68.9148 567.347 85.5005 568.211 100.205L562.685 100.531L562.704 100.57ZM530.588 65.1714C527.384 65.1714 523.988 66.0353 520.669 68.454C518.117 70.2969 517.944 72.6197 518.078 73.8482C518.29 75.8255 519.46 77.5724 521.071 78.2826C522.702 78.9929 524.602 78.5898 526.597 77.1308C530.568 74.1938 531.566 69.6442 531.297 65.1906C531.067 65.1906 530.818 65.1906 530.588 65.1906V65.1714ZM510.308 39.1986C507.143 39.1986 503.843 40.1585 501.79 42.9035C499.545 45.879 498.854 48.7393 499.833 50.9277C500.677 52.8281 502.73 54.1335 505.186 54.3446C508.275 54.6134 511.152 53.0969 513.09 50.2174C514.779 47.6835 515.469 42.9227 514.721 39.7937C514.702 39.7937 514.683 39.7937 514.663 39.7937C513.359 39.429 511.862 39.2178 510.327 39.2178L510.308 39.1986Z" fill="#EAB431"/>
<circle cx="531.5" cy="45.5" r="6.5" fill="#466EBF"/>
<circle cx="496.5" cy="44.5" r="6.5" fill="#B2291F"/>
<circle cx="531.5" cy="78.5" r="6.5" fill="#AA2677"/>
<circle cx="560.5" cy="44.5" r="6.5" fill="#B2291F"/>
<circle cx="592.5" cy="15.5" r="6.5" fill="#AA2677"/>
<circle cx="601.5" cy="47.5" r="6.5" fill="#B2291F"/>
<circle cx="650.5" cy="50.5" r="6.5" fill="#466EBF"/>
</svg>
