<svg width="24" height="25" viewBox="0 0 24 25" fill="none" xmlns="http://www.w3.org/2000/svg">
<path d="M11.5879 0.5C17.6827 0.500224 22.6748 5.763 22.6748 12.3203C22.6748 18.8776 17.6827 24.1404 11.5879 24.1406C5.4929 24.1406 0.500047 18.8777 0.5 12.3203C0.5 5.76286 5.49287 0.5 11.5879 0.5Z" fill="white" stroke="#414141"/>
<path d="M12.8103 6.43427L15.0634 8.82987M11.3082 17.6137H17.3165M5.29987 14.4196L4.54883 17.6137L7.553 16.8152L16.2546 7.56339C16.5362 7.2639 16.6944 6.85775 16.6944 6.43427C16.6944 6.01078 16.5362 5.60464 16.2546 5.30514L16.1254 5.16779C15.8437 4.86839 15.4617 4.7002 15.0634 4.7002C14.6651 4.7002 14.2831 4.86839 14.0014 5.16779L5.29987 14.4196Z" stroke="#414141" stroke-width="1.33333" stroke-linecap="round" stroke-linejoin="round"/>
</svg>
