<svg width="442" height="125" viewBox="0 0 442 125" fill="none" xmlns="http://www.w3.org/2000/svg">
<path d="M26.2887 16.3086L26.0395 16.8441L25.7903 16.3086L16.3652 20.7649V50.5118H17.7992V21.6852L26.0395 17.7875L34.2816 21.6852V50.5118H35.7137V20.7649L26.2887 16.3086Z" fill="#EAB431"/>
<path d="M25.2798 17.1182C24.8674 15.1959 22.3891 14.5043 20.204 13.8943C19.4423 13.6815 18.7227 13.4794 18.1207 13.2329C15.6495 12.2239 12.8483 11.0801 11.2757 8.33505C10.2507 6.5458 10.2524 4.22633 11.2774 2.42822C12.2024 0.8092 13.7645 -0.0934062 15.6126 0.00767147C19.0017 0.177907 21.731 3.12867 23.953 9.02664C24.5672 10.6581 25.1447 12.3196 25.6677 13.9635C25.759 14.249 25.8994 14.5629 26.0433 14.8874C26.3382 15.5523 26.6418 16.2422 26.6927 16.9071L25.2781 17.1164L25.2798 17.1182ZM15.3546 1.44936C13.7329 1.44936 12.8834 2.51688 12.5201 3.15349C11.7443 4.51006 11.7425 6.2603 12.5166 7.60977C13.8434 9.92569 16.2918 10.9241 18.6595 11.8923C19.1843 12.1068 19.8653 12.2966 20.5866 12.4987C21.7275 12.8162 22.9982 13.1726 24.0899 13.74C23.6318 12.3391 23.1368 10.9312 22.6155 9.54266C20.6182 4.23875 18.305 1.59299 15.5424 1.4529L15.3563 1.44758L15.3546 1.44936Z" fill="#EAB431"/>
<path d="M27.0611 17.1196L25.6465 16.9103C25.6974 16.2436 26.0028 15.5538 26.2976 14.887C26.4398 14.5643 26.5802 14.2522 26.6715 13.9667C27.2015 12.3069 27.779 10.6453 28.3862 9.02982C30.6082 3.13186 33.3374 0.181098 36.7266 0.0108619C38.566 -0.0848959 40.1386 0.812391 41.0635 2.43495C42.0885 4.23307 42.0885 6.54899 41.0635 8.33824C39.4874 11.0868 36.688 12.2288 34.2185 13.2361C33.6165 13.4826 32.8969 13.6829 32.1352 13.8957C29.9501 14.5075 27.4718 15.1991 27.0576 17.1214L27.0611 17.1196ZM36.9846 1.45078L36.7986 1.45609C34.0377 1.59441 31.7245 4.24194 29.7272 9.54585C29.2094 10.9202 28.7144 12.3299 28.2528 13.7415C29.3445 13.174 30.6152 12.8176 31.7561 12.5002C32.4774 12.298 33.1584 12.1083 33.6832 11.8937C36.0491 10.9272 38.4958 9.92888 39.8244 7.61119C40.5984 6.26349 40.5984 4.51325 39.8226 3.15668C39.4611 2.5183 38.6081 1.45078 36.9846 1.45078Z" fill="#EAB431"/>
<path d="M59.5957 16.4512H67.5783V50.5286H59.5957V16.4512Z" fill="#212121"/>
<path d="M96.2993 43.716V50.5286H78.7266V16.4512H86.6108V43.716H96.2993Z" fill="#212121"/>
<path d="M122.989 43.716V50.5286H105.416V16.4512H113.3V43.716H122.989Z" fill="#212121"/>
<path d="M139.989 22.779V30.5174H152.889V36.6993H139.989V44.1972H152.889V50.525H132.102V16.4512H152.889V22.779H139.989Z" fill="#212121"/>
<path d="M176.252 16.4512C187.544 16.4512 193.97 24.7764 193.97 33.4917C193.97 42.207 187.595 50.5286 176.252 50.5286H163.742V16.4512H176.252ZM171.626 23.2674V43.7124H175.862C182.241 43.7124 185.94 38.7479 185.94 33.4881C185.94 28.2283 182.241 23.2674 175.862 23.2674H171.626Z" fill="#212121"/>
<path d="M201.723 33.4935C201.723 24.1476 208.44 15.5781 219.784 15.5781C231.127 15.5781 237.794 24.1476 237.794 33.4935C237.794 42.8394 231.076 51.4088 219.784 51.4088C208.491 51.4088 201.723 42.8394 201.723 33.4935ZM229.764 33.4935C229.764 27.8947 225.966 22.6896 219.784 22.6896C213.602 22.6896 209.804 27.8983 209.804 33.4935C209.804 39.0886 213.551 44.301 219.784 44.301C226.017 44.301 229.764 39.0923 229.764 33.4935Z" fill="#212121"/>
<path d="M267.795 38.6494V16.4512H275.636V50.5286H267.405L255.136 28.6256V50.5286H247.252V16.4512H255.479L267.795 38.6494Z" fill="#212121"/>
<path d="M286.789 16.4512H294.772V50.5286H286.789V16.4512Z" fill="#212121"/>
<path d="M1.8 69.3317H11.616V71.5637H4.536V76.4837H10.056V78.7157H4.536V86.0117H1.8V69.3317ZM14.2236 86.0117V72.7877H16.9596V86.0117H14.2236ZM15.6156 71.0357C15.0396 71.0357 14.5516 70.8517 14.1516 70.4837C13.7516 70.1157 13.5516 69.6597 13.5516 69.1157C13.5516 68.5717 13.7516 68.1157 14.1516 67.7477C14.5516 67.3637 15.0396 67.1717 15.6156 67.1717C16.1756 67.1717 16.6556 67.3637 17.0556 67.7477C17.4716 68.1157 17.6796 68.5717 17.6796 69.1157C17.6796 69.6597 17.4716 70.1157 17.0556 70.4837C16.6556 70.8517 16.1756 71.0357 15.6156 71.0357ZM20.6906 86.0117V72.7877H23.4266V75.5477C23.6346 74.9877 23.9626 74.4917 24.4106 74.0597C24.8586 73.6117 25.3706 73.2597 25.9466 73.0037C26.5386 72.7477 27.1306 72.6197 27.7226 72.6197C28.7306 72.6197 29.6106 72.8437 30.3626 73.2917C31.1306 73.7237 31.7226 74.3557 32.1386 75.1877C32.5706 76.0197 32.7866 77.0277 32.7866 78.2117V86.0117H30.0746V78.8597C30.0746 77.6597 29.7706 76.7157 29.1626 76.0277C28.5546 75.3397 27.7546 74.9957 26.7626 74.9957C26.1226 74.9957 25.5466 75.1717 25.0346 75.5237C24.5386 75.8757 24.1466 76.3637 23.8586 76.9877C23.5706 77.5957 23.4266 78.2997 23.4266 79.0997V86.0117H20.6906ZM41.5566 86.1797C40.4046 86.1797 39.3566 85.8997 38.4126 85.3397C37.4846 84.7637 36.7406 83.9717 36.1806 82.9637C35.6366 81.9397 35.3646 80.7477 35.3646 79.3877C35.3646 78.0277 35.6366 76.8437 36.1806 75.8357C36.7406 74.8117 37.4846 74.0197 38.4126 73.4597C39.3566 72.8997 40.4046 72.6197 41.5566 72.6197C42.6446 72.6197 43.5966 72.8917 44.4126 73.4357C45.2286 73.9637 45.8206 74.6997 46.1886 75.6437V68.2517H48.9486V86.0117H47.7246C47.2766 86.0117 46.9086 85.8677 46.6206 85.5797C46.3326 85.2917 46.1886 84.9237 46.1886 84.4757V83.1317C45.8206 84.0757 45.2286 84.8197 44.4126 85.3637C43.5966 85.9077 42.6446 86.1797 41.5566 86.1797ZM42.1806 83.8037C42.8686 83.8037 43.5166 83.6357 44.1246 83.2997C44.7326 82.9637 45.2286 82.4677 45.6126 81.8117C45.9966 81.1397 46.1886 80.3317 46.1886 79.3877C46.1886 78.4277 45.9966 77.6277 45.6126 76.9877C45.2286 76.3317 44.7326 75.8357 44.1246 75.4997C43.5166 75.1637 42.8686 74.9957 42.1806 74.9957C41.5086 74.9957 40.8606 75.1637 40.2366 75.4997C39.6286 75.8357 39.1326 76.3317 38.7486 76.9877C38.3646 77.6277 38.1726 78.4277 38.1726 79.3877C38.1726 80.3317 38.3646 81.1397 38.7486 81.8117C39.1326 82.4677 39.6286 82.9637 40.2366 83.2997C40.8606 83.6357 41.5086 83.8037 42.1806 83.8037ZM52.6142 86.0117V72.7877H55.3502V86.0117H52.6142ZM54.0062 71.0357C53.4302 71.0357 52.9422 70.8517 52.5422 70.4837C52.1422 70.1157 51.9422 69.6597 51.9422 69.1157C51.9422 68.5717 52.1422 68.1157 52.5422 67.7477C52.9422 67.3637 53.4302 67.1717 54.0062 67.1717C54.5662 67.1717 55.0462 67.3637 55.4462 67.7477C55.8622 68.1157 56.0702 68.5717 56.0702 69.1157C56.0702 69.6597 55.8622 70.1157 55.4462 70.4837C55.0462 70.8517 54.5662 71.0357 54.0062 71.0357ZM59.0813 86.0117V72.7877H61.8173V75.5477C62.0253 74.9877 62.3533 74.4917 62.8013 74.0597C63.2493 73.6117 63.7613 73.2597 64.3372 73.0037C64.9293 72.7477 65.5213 72.6197 66.1133 72.6197C67.1213 72.6197 68.0013 72.8437 68.7533 73.2917C69.5213 73.7237 70.1133 74.3557 70.5293 75.1877C70.9613 76.0197 71.1773 77.0277 71.1773 78.2117V86.0117H68.4653V78.8597C68.4653 77.6597 68.1613 76.7157 67.5533 76.0277C66.9453 75.3397 66.1453 74.9957 65.1533 74.9957C64.5133 74.9957 63.9373 75.1717 63.4253 75.5237C62.9293 75.8757 62.5373 76.3637 62.2493 76.9877C61.9613 77.5957 61.8173 78.2997 61.8173 79.0997V86.0117H59.0813ZM80.7872 92.4677C79.7152 92.4677 78.7232 92.2997 77.8112 91.9637C76.9152 91.6277 76.1392 91.1317 75.4832 90.4757C74.8272 89.8197 74.3312 89.0197 73.9952 88.0757L76.4912 87.0677C76.8592 87.9957 77.4352 88.7237 78.2192 89.2517C79.0032 89.7957 79.8592 90.0677 80.7872 90.0677C81.5392 90.0677 82.1952 89.9237 82.7552 89.6357C83.3312 89.3477 83.7792 88.9157 84.0992 88.3397C84.4192 87.7637 84.5792 87.0517 84.5792 86.2037V83.1317C84.2112 84.0757 83.6192 84.8197 82.8032 85.3637C81.9872 85.9077 81.0352 86.1797 79.9472 86.1797C78.7952 86.1797 77.7472 85.8997 76.8032 85.3397C75.8752 84.7637 75.1312 83.9717 74.5712 82.9637C74.0272 81.9397 73.7552 80.7477 73.7552 79.3877C73.7552 78.0277 74.0272 76.8437 74.5712 75.8357C75.1312 74.8117 75.8752 74.0197 76.8032 73.4597C77.7472 72.8997 78.7952 72.6197 79.9472 72.6197C81.0352 72.6197 81.9872 72.8917 82.8032 73.4357C83.6192 73.9637 84.2112 74.6997 84.5792 75.6437V72.7877H87.3392V86.1557C87.3392 87.0837 87.1872 87.9317 86.8832 88.6997C86.5952 89.4677 86.1712 90.1317 85.6112 90.6917C85.0512 91.2517 84.3632 91.6837 83.5472 91.9877C82.7472 92.3077 81.8272 92.4677 80.7872 92.4677ZM80.5712 83.8037C81.2592 83.8037 81.9072 83.6357 82.5152 83.2997C83.1232 82.9637 83.6192 82.4677 84.0032 81.8117C84.3872 81.1397 84.5792 80.3317 84.5792 79.3877C84.5792 78.4277 84.3872 77.6277 84.0032 76.9877C83.6192 76.3317 83.1232 75.8357 82.5152 75.4997C81.9072 75.1637 81.2592 74.9957 80.5712 74.9957C79.8992 74.9957 79.2512 75.1637 78.6272 75.4997C78.0192 75.8357 77.5232 76.3317 77.1392 76.9877C76.7552 77.6277 76.5632 78.4277 76.5632 79.3877C76.5632 80.3317 76.7552 81.1397 77.1392 81.8117C77.5232 82.4677 78.0192 82.9637 78.6272 83.2997C79.2512 83.6357 79.8992 83.8037 80.5712 83.8037ZM102.447 86.1797C101.295 86.1797 100.247 85.8997 99.3032 85.3397C98.3752 84.7637 97.6312 83.9717 97.0712 82.9637C96.5272 81.9397 96.2552 80.7477 96.2552 79.3877C96.2552 78.0277 96.5272 76.8437 97.0712 75.8357C97.6312 74.8117 98.3752 74.0197 99.3032 73.4597C100.247 72.8997 101.295 72.6197 102.447 72.6197C103.535 72.6197 104.487 72.8917 105.303 73.4357C106.119 73.9637 106.711 74.6997 107.079 75.6437V72.7877H109.839V86.0117H108.615C108.167 86.0117 107.799 85.8677 107.511 85.5797C107.223 85.2917 107.079 84.9237 107.079 84.4757V83.1317C106.711 84.0757 106.119 84.8197 105.303 85.3637C104.487 85.9077 103.535 86.1797 102.447 86.1797ZM103.071 83.8037C103.759 83.8037 104.407 83.6357 105.015 83.2997C105.623 82.9637 106.119 82.4677 106.503 81.8117C106.887 81.1397 107.079 80.3317 107.079 79.3877C107.079 78.4277 106.887 77.6277 106.503 76.9877C106.119 76.3317 105.623 75.8357 105.015 75.4997C104.407 75.1637 103.759 74.9957 103.071 74.9957C102.399 74.9957 101.751 75.1637 101.127 75.4997C100.519 75.8357 100.023 76.3317 99.6392 76.9877C99.2552 77.6277 99.0632 78.4277 99.0632 79.3877C99.0632 80.3317 99.2552 81.1397 99.6392 81.8117C100.023 82.4677 100.519 82.9637 101.127 83.2997C101.751 83.6357 102.399 83.8037 103.071 83.8037ZM113.433 86.0117V72.7877H116.169V75.5477C116.377 74.9877 116.705 74.4917 117.153 74.0597C117.601 73.6117 118.113 73.2597 118.689 73.0037C119.281 72.7477 119.873 72.6197 120.465 72.6197C121.473 72.6197 122.353 72.8437 123.105 73.2917C123.873 73.7237 124.465 74.3557 124.881 75.1877C125.313 76.0197 125.529 77.0277 125.529 78.2117V86.0117H122.817V78.8597C122.817 77.6597 122.513 76.7157 121.905 76.0277C121.297 75.3397 120.497 74.9957 119.505 74.9957C118.865 74.9957 118.289 75.1717 117.777 75.5237C117.281 75.8757 116.889 76.3637 116.601 76.9877C116.313 77.5957 116.169 78.2997 116.169 79.0997V86.0117H113.433ZM134.299 86.1797C133.147 86.1797 132.099 85.8997 131.155 85.3397C130.227 84.7637 129.483 83.9717 128.923 82.9637C128.379 81.9397 128.107 80.7477 128.107 79.3877C128.107 78.0277 128.379 76.8437 128.923 75.8357C129.483 74.8117 130.227 74.0197 131.155 73.4597C132.099 72.8997 133.147 72.6197 134.299 72.6197C135.387 72.6197 136.339 72.8917 137.155 73.4357C137.971 73.9637 138.563 74.6997 138.931 75.6437V68.2517H141.691V86.0117H140.467C140.019 86.0117 139.651 85.8677 139.363 85.5797C139.075 85.2917 138.931 84.9237 138.931 84.4757V83.1317C138.563 84.0757 137.971 84.8197 137.155 85.3637C136.339 85.9077 135.387 86.1797 134.299 86.1797ZM134.923 83.8037C135.611 83.8037 136.259 83.6357 136.867 83.2997C137.475 82.9637 137.971 82.4677 138.355 81.8117C138.739 81.1397 138.931 80.3317 138.931 79.3877C138.931 78.4277 138.739 77.6277 138.355 76.9877C137.971 76.3317 137.475 75.8357 136.867 75.4997C136.259 75.1637 135.611 74.9957 134.923 74.9957C134.251 74.9957 133.603 75.1637 132.979 75.4997C132.371 75.8357 131.875 76.3317 131.491 76.9877C131.107 77.6277 130.915 78.4277 130.915 79.3877C130.915 80.3317 131.107 81.1397 131.491 81.8117C131.875 82.4677 132.371 82.9637 132.979 83.2997C133.603 83.6357 134.251 83.8037 134.923 83.8037ZM156.103 86.1797C155.175 86.1797 154.343 86.0197 153.607 85.6997C152.871 85.3637 152.263 84.9157 151.783 84.3557C151.303 83.7957 150.975 83.1877 150.799 82.5317L153.415 81.9557C153.575 82.5477 153.895 83.0197 154.375 83.3717C154.871 83.7077 155.431 83.8757 156.055 83.8757C156.855 83.8757 157.455 83.7317 157.855 83.4437C158.271 83.1397 158.479 82.7637 158.479 82.3157C158.479 81.8837 158.295 81.5477 157.927 81.3077C157.559 81.0677 157.079 80.8677 156.487 80.7077C155.911 80.5477 155.295 80.3797 154.639 80.2037C153.983 80.0277 153.359 79.7957 152.767 79.5077C152.191 79.2197 151.719 78.8357 151.351 78.3557C150.983 77.8597 150.799 77.2117 150.799 76.4117C150.799 75.7077 151.007 75.0677 151.423 74.4917C151.839 73.9157 152.423 73.4597 153.175 73.1237C153.943 72.7877 154.847 72.6197 155.887 72.6197C156.783 72.6197 157.575 72.7637 158.263 73.0517C158.951 73.3397 159.519 73.7477 159.967 74.2757C160.415 74.7877 160.719 75.4037 160.879 76.1237L158.263 76.7957C158.103 76.1877 157.823 75.7237 157.423 75.4037C157.023 75.0837 156.479 74.9237 155.791 74.9237C155.055 74.9237 154.495 75.0597 154.111 75.3317C153.743 75.5877 153.559 75.9397 153.559 76.3877C153.559 76.8197 153.743 77.1637 154.111 77.4197C154.479 77.6597 154.951 77.8677 155.527 78.0437C156.103 78.2037 156.711 78.3717 157.351 78.5477C158.007 78.7237 158.623 78.9557 159.199 79.2437C159.775 79.5157 160.247 79.8997 160.615 80.3957C160.983 80.8757 161.167 81.5077 161.167 82.2917C161.167 82.9797 160.959 83.6197 160.543 84.2117C160.143 84.8037 159.559 85.2837 158.791 85.6517C158.039 86.0037 157.143 86.1797 156.103 86.1797ZM164.128 86.0117V68.2517H166.864V75.5477C167.072 74.9877 167.4 74.4917 167.848 74.0597C168.296 73.6117 168.808 73.2597 169.384 73.0037C169.976 72.7477 170.568 72.6197 171.16 72.6197C172.168 72.6197 173.048 72.8437 173.8 73.2917C174.568 73.7237 175.16 74.3557 175.576 75.1877C176.008 76.0197 176.224 77.0277 176.224 78.2117V86.0117H173.512V78.8597C173.512 77.6597 173.208 76.7157 172.6 76.0277C171.992 75.3397 171.192 74.9957 170.2 74.9957C169.56 74.9957 168.984 75.1717 168.472 75.5237C167.976 75.8757 167.584 76.3637 167.296 76.9877C167.008 77.5957 166.864 78.2997 166.864 79.0997V86.0117H164.128ZM184.994 86.1797C183.842 86.1797 182.794 85.8997 181.85 85.3397C180.922 84.7637 180.178 83.9717 179.618 82.9637C179.074 81.9397 178.802 80.7477 178.802 79.3877C178.802 78.0277 179.074 76.8437 179.618 75.8357C180.178 74.8117 180.922 74.0197 181.85 73.4597C182.794 72.8997 183.842 72.6197 184.994 72.6197C186.082 72.6197 187.034 72.8917 187.85 73.4357C188.666 73.9637 189.258 74.6997 189.626 75.6437V72.7877H192.386V86.0117H191.162C190.714 86.0117 190.346 85.8677 190.058 85.5797C189.77 85.2917 189.626 84.9237 189.626 84.4757V83.1317C189.258 84.0757 188.666 84.8197 187.85 85.3637C187.034 85.9077 186.082 86.1797 184.994 86.1797ZM185.618 83.8037C186.306 83.8037 186.954 83.6357 187.562 83.2997C188.17 82.9637 188.666 82.4677 189.05 81.8117C189.434 81.1397 189.626 80.3317 189.626 79.3877C189.626 78.4277 189.434 77.6277 189.05 76.9877C188.666 76.3317 188.17 75.8357 187.562 75.4997C186.954 75.1637 186.306 74.9957 185.618 74.9957C184.946 74.9957 184.298 75.1637 183.674 75.4997C183.066 75.8357 182.57 76.3317 182.186 76.9877C181.802 77.6277 181.61 78.4277 181.61 79.3877C181.61 80.3317 181.802 81.1397 182.186 81.8117C182.57 82.4677 183.066 82.9637 183.674 83.2997C184.298 83.6357 184.946 83.8037 185.618 83.8037ZM195.98 86.0117V72.7877H198.716V86.0117H195.98ZM197.924 79.3397L198.716 75.6917C199.036 74.7477 199.556 74.0037 200.276 73.4597C201.012 72.8997 201.844 72.6197 202.772 72.6197V75.4517C202.644 75.4197 202.516 75.4037 202.388 75.4037C202.276 75.3877 202.156 75.3797 202.028 75.3797C201.372 75.3797 200.796 75.5317 200.3 75.8357C199.804 76.1237 199.412 76.5637 199.124 77.1557C198.852 77.7317 198.716 78.4597 198.716 79.3397H197.924ZM205.356 86.0117V72.7877H208.092V86.0117H205.356ZM206.748 71.0357C206.172 71.0357 205.684 70.8517 205.284 70.4837C204.884 70.1157 204.684 69.6597 204.684 69.1157C204.684 68.5717 204.884 68.1157 205.284 67.7477C205.684 67.3637 206.172 67.1717 206.748 67.1717C207.308 67.1717 207.788 67.3637 208.188 67.7477C208.604 68.1157 208.812 68.5717 208.812 69.1157C208.812 69.6597 208.604 70.1157 208.188 70.4837C207.788 70.8517 207.308 71.0357 206.748 71.0357ZM211.823 86.0117V72.7877H214.559V75.5477C214.767 74.9877 215.095 74.4917 215.543 74.0597C215.991 73.6117 216.503 73.2597 217.079 73.0037C217.671 72.7477 218.263 72.6197 218.855 72.6197C219.863 72.6197 220.743 72.8437 221.495 73.2917C222.263 73.7237 222.855 74.3557 223.271 75.1877C223.703 76.0197 223.919 77.0277 223.919 78.2117V86.0117H221.207V78.8597C221.207 77.6597 220.903 76.7157 220.295 76.0277C219.687 75.3397 218.887 74.9957 217.895 74.9957C217.255 74.9957 216.679 75.1717 216.167 75.5237C215.671 75.8757 215.279 76.3637 214.991 76.9877C214.703 77.5957 214.559 78.2997 214.559 79.0997V86.0117H211.823ZM233.529 92.4677C232.457 92.4677 231.465 92.2997 230.553 91.9637C229.657 91.6277 228.881 91.1317 228.225 90.4757C227.569 89.8197 227.073 89.0197 226.737 88.0757L229.233 87.0677C229.601 87.9957 230.177 88.7237 230.961 89.2517C231.745 89.7957 232.601 90.0677 233.529 90.0677C234.281 90.0677 234.937 89.9237 235.497 89.6357C236.073 89.3477 236.521 88.9157 236.841 88.3397C237.161 87.7637 237.321 87.0517 237.321 86.2037V83.1317C236.953 84.0757 236.361 84.8197 235.545 85.3637C234.729 85.9077 233.777 86.1797 232.689 86.1797C231.537 86.1797 230.489 85.8997 229.545 85.3397C228.617 84.7637 227.873 83.9717 227.313 82.9637C226.769 81.9397 226.497 80.7477 226.497 79.3877C226.497 78.0277 226.769 76.8437 227.313 75.8357C227.873 74.8117 228.617 74.0197 229.545 73.4597C230.489 72.8997 231.537 72.6197 232.689 72.6197C233.777 72.6197 234.729 72.8917 235.545 73.4357C236.361 73.9637 236.953 74.6997 237.321 75.6437V72.7877H240.081V86.1557C240.081 87.0837 239.929 87.9317 239.625 88.6997C239.337 89.4677 238.913 90.1317 238.353 90.6917C237.793 91.2517 237.105 91.6837 236.289 91.9877C235.489 92.3077 234.569 92.4677 233.529 92.4677ZM233.313 83.8037C234.001 83.8037 234.649 83.6357 235.257 83.2997C235.865 82.9637 236.361 82.4677 236.745 81.8117C237.129 81.1397 237.321 80.3317 237.321 79.3877C237.321 78.4277 237.129 77.6277 236.745 76.9877C236.361 76.3317 235.865 75.8357 235.257 75.4997C234.649 75.1637 234.001 74.9957 233.313 74.9957C232.641 74.9957 231.993 75.1637 231.369 75.4997C230.761 75.8357 230.265 76.3317 229.881 76.9877C229.497 77.6277 229.305 78.4277 229.305 79.3877C229.305 80.3317 229.497 81.1397 229.881 81.8117C230.265 82.4677 230.761 82.9637 231.369 83.2997C231.993 83.6357 232.641 83.8037 233.313 83.8037ZM256.029 92.4677C254.957 92.4677 253.965 92.2997 253.053 91.9637C252.157 91.6277 251.381 91.1317 250.725 90.4757C250.069 89.8197 249.573 89.0197 249.237 88.0757L251.733 87.0677C252.101 87.9957 252.677 88.7237 253.461 89.2517C254.245 89.7957 255.101 90.0677 256.029 90.0677C256.781 90.0677 257.437 89.9237 257.997 89.6357C258.573 89.3477 259.021 88.9157 259.341 88.3397C259.661 87.7637 259.821 87.0517 259.821 86.2037V83.1317C259.453 84.0757 258.861 84.8197 258.045 85.3637C257.229 85.9077 256.277 86.1797 255.189 86.1797C254.037 86.1797 252.989 85.8997 252.045 85.3397C251.117 84.7637 250.373 83.9717 249.813 82.9637C249.269 81.9397 248.997 80.7477 248.997 79.3877C248.997 78.0277 249.269 76.8437 249.813 75.8357C250.373 74.8117 251.117 74.0197 252.045 73.4597C252.989 72.8997 254.037 72.6197 255.189 72.6197C256.277 72.6197 257.229 72.8917 258.045 73.4357C258.861 73.9637 259.453 74.6997 259.821 75.6437V72.7877H262.581V86.1557C262.581 87.0837 262.429 87.9317 262.125 88.6997C261.837 89.4677 261.413 90.1317 260.853 90.6917C260.293 91.2517 259.605 91.6837 258.789 91.9877C257.989 92.3077 257.069 92.4677 256.029 92.4677ZM255.813 83.8037C256.501 83.8037 257.149 83.6357 257.757 83.2997C258.365 82.9637 258.861 82.4677 259.245 81.8117C259.629 81.1397 259.821 80.3317 259.821 79.3877C259.821 78.4277 259.629 77.6277 259.245 76.9877C258.861 76.3317 258.365 75.8357 257.757 75.4997C257.149 75.1637 256.501 74.9957 255.813 74.9957C255.141 74.9957 254.493 75.1637 253.869 75.4997C253.261 75.8357 252.765 76.3317 252.381 76.9877C251.997 77.6277 251.805 78.4277 251.805 79.3877C251.805 80.3317 251.997 81.1397 252.381 81.8117C252.765 82.4677 253.261 82.9637 253.869 83.2997C254.493 83.6357 255.141 83.8037 255.813 83.8037ZM266.247 86.0117V72.7877H268.983V86.0117H266.247ZM267.639 71.0357C267.063 71.0357 266.575 70.8517 266.175 70.4837C265.775 70.1157 265.575 69.6597 265.575 69.1157C265.575 68.5717 265.775 68.1157 266.175 67.7477C266.575 67.3637 267.063 67.1717 267.639 67.1717C268.199 67.1717 268.679 67.3637 269.079 67.7477C269.495 68.1157 269.703 68.5717 269.703 69.1157C269.703 69.6597 269.495 70.1157 269.079 70.4837C268.679 70.8517 268.199 71.0357 267.639 71.0357ZM273.05 86.0117V75.0197H271.49V72.7877H273.05V71.8517C273.05 71.0837 273.146 70.4277 273.338 69.8837C273.546 69.3397 273.85 68.8917 274.25 68.5397C274.666 68.1717 275.186 67.9077 275.81 67.7477C276.45 67.5717 277.202 67.4837 278.066 67.4837V69.7637C277.522 69.7637 277.082 69.8357 276.746 69.9797C276.41 70.1077 276.17 70.3237 276.026 70.6277C275.882 70.9317 275.81 71.3397 275.81 71.8517V72.7877H278.258V75.0197H275.81V86.0117H273.05ZM285.123 86.1797C284.115 86.1797 283.275 85.8357 282.603 85.1477C281.931 84.4597 281.595 83.5237 281.595 82.3397V75.0197H279.555V72.7877H287.571V75.0197H284.355V82.5077C284.355 82.9557 284.467 83.2757 284.691 83.4677C284.931 83.6597 285.187 83.7557 285.459 83.7557C285.699 83.7557 285.915 83.7157 286.107 83.6357C286.299 83.5557 286.483 83.4277 286.659 83.2517L288.075 84.9557C287.627 85.3877 287.171 85.6997 286.707 85.8917C286.243 86.0837 285.715 86.1797 285.123 86.1797ZM280.539 73.8197V72.7877C280.875 72.7877 281.131 72.6917 281.307 72.4997C281.499 72.3077 281.595 72.0437 281.595 71.7077V69.4997H284.355V71.2517C284.355 71.4757 284.299 71.6997 284.187 71.9237C284.075 72.1317 283.915 72.3157 283.707 72.4757C283.515 72.6197 283.299 72.7237 283.059 72.7877L280.539 73.8197ZM295.181 86.1797C294.253 86.1797 293.421 86.0197 292.685 85.6997C291.949 85.3637 291.341 84.9157 290.861 84.3557C290.381 83.7957 290.053 83.1877 289.877 82.5317L292.493 81.9557C292.653 82.5477 292.973 83.0197 293.453 83.3717C293.949 83.7077 294.509 83.8757 295.133 83.8757C295.933 83.8757 296.533 83.7317 296.933 83.4437C297.349 83.1397 297.557 82.7637 297.557 82.3157C297.557 81.8837 297.373 81.5477 297.005 81.3077C296.637 81.0677 296.157 80.8677 295.565 80.7077C294.989 80.5477 294.373 80.3797 293.717 80.2037C293.061 80.0277 292.437 79.7957 291.845 79.5077C291.269 79.2197 290.797 78.8357 290.429 78.3557C290.061 77.8597 289.877 77.2117 289.877 76.4117C289.877 75.7077 290.085 75.0677 290.501 74.4917C290.917 73.9157 291.501 73.4597 292.253 73.1237C293.021 72.7877 293.925 72.6197 294.965 72.6197C295.861 72.6197 296.653 72.7637 297.341 73.0517C298.029 73.3397 298.597 73.7477 299.045 74.2757C299.493 74.7877 299.797 75.4037 299.957 76.1237L297.341 76.7957C297.181 76.1877 296.901 75.7237 296.501 75.4037C296.101 75.0837 295.557 74.9237 294.869 74.9237C294.133 74.9237 293.573 75.0597 293.189 75.3317C292.821 75.5877 292.637 75.9397 292.637 76.3877C292.637 76.8197 292.821 77.1637 293.189 77.4197C293.557 77.6597 294.029 77.8677 294.605 78.0437C295.181 78.2037 295.789 78.3717 296.429 78.5477C297.085 78.7237 297.701 78.9557 298.277 79.2437C298.853 79.5157 299.325 79.8997 299.693 80.3957C300.061 80.8757 300.245 81.5077 300.245 82.2917C300.245 82.9797 300.037 83.6197 299.621 84.2117C299.221 84.8037 298.637 85.2837 297.869 85.6517C297.117 86.0037 296.221 86.1797 295.181 86.1797ZM309.513 86.0117V72.7877H312.249V86.0117H309.513ZM310.905 71.0357C310.329 71.0357 309.841 70.8517 309.441 70.4837C309.041 70.1157 308.841 69.6597 308.841 69.1157C308.841 68.5717 309.041 68.1157 309.441 67.7477C309.841 67.3637 310.329 67.1717 310.905 67.1717C311.465 67.1717 311.945 67.3637 312.345 67.7477C312.761 68.1157 312.969 68.5717 312.969 69.1157C312.969 69.6597 312.761 70.1157 312.345 70.4837C311.945 70.8517 311.465 71.0357 310.905 71.0357ZM321.26 86.1797C320.108 86.1797 319.06 85.8997 318.116 85.3397C317.188 84.7637 316.444 83.9717 315.884 82.9637C315.34 81.9397 315.068 80.7477 315.068 79.3877C315.068 78.0277 315.34 76.8437 315.884 75.8357C316.444 74.8117 317.188 74.0197 318.116 73.4597C319.06 72.8997 320.108 72.6197 321.26 72.6197C322.348 72.6197 323.3 72.8917 324.116 73.4357C324.932 73.9637 325.524 74.6997 325.892 75.6437V68.2517H328.652V86.0117H327.428C326.98 86.0117 326.612 85.8677 326.324 85.5797C326.036 85.2917 325.892 84.9237 325.892 84.4757V83.1317C325.524 84.0757 324.932 84.8197 324.116 85.3637C323.3 85.9077 322.348 86.1797 321.26 86.1797ZM321.884 83.8037C322.572 83.8037 323.22 83.6357 323.828 83.2997C324.436 82.9637 324.932 82.4677 325.316 81.8117C325.7 81.1397 325.892 80.3317 325.892 79.3877C325.892 78.4277 325.7 77.6277 325.316 76.9877C324.932 76.3317 324.436 75.8357 323.828 75.4997C323.22 75.1637 322.572 74.9957 321.884 74.9957C321.212 74.9957 320.564 75.1637 319.94 75.4997C319.332 75.8357 318.836 76.3317 318.452 76.9877C318.068 77.6277 317.876 78.4277 317.876 79.3877C317.876 80.3317 318.068 81.1397 318.452 81.8117C318.836 82.4677 319.332 82.9637 319.94 83.2997C320.564 83.6357 321.212 83.8037 321.884 83.8037ZM338.389 86.1797C337.317 86.1797 336.341 86.0117 335.461 85.6757C334.597 85.3397 333.853 84.8677 333.229 84.2597C332.621 83.6517 332.149 82.9477 331.813 82.1477C331.493 81.3317 331.333 80.4437 331.333 79.4837C331.333 78.4437 331.517 77.5077 331.885 76.6757C332.269 75.8277 332.781 75.0997 333.421 74.4917C334.077 73.8837 334.829 73.4197 335.677 73.0997C336.525 72.7797 337.413 72.6197 338.341 72.6197C339.173 72.6197 339.933 72.7317 340.621 72.9557C341.309 73.1797 341.901 73.4917 342.397 73.8917C342.909 74.2917 343.301 74.7557 343.573 75.2837C343.845 75.8117 343.981 76.3797 343.981 76.9877C343.981 77.8357 343.733 78.5397 343.237 79.0997C342.741 79.6597 342.093 80.0997 341.293 80.4197C340.493 80.7397 339.613 80.9557 338.653 81.0677C337.693 81.1797 336.741 81.2117 335.797 81.1637C335.637 81.1477 335.437 81.1397 335.197 81.1397C334.957 81.1237 334.741 81.1157 334.549 81.1157C334.373 81.0997 334.277 81.0917 334.261 81.0917C334.373 81.6197 334.621 82.0997 335.005 82.5317C335.405 82.9477 335.901 83.2757 336.493 83.5157C337.085 83.7557 337.717 83.8757 338.389 83.8757C338.933 83.8757 339.469 83.7797 339.997 83.5877C340.541 83.3957 341.037 83.1317 341.485 82.7957C341.933 82.4597 342.309 82.0757 342.613 81.6437L344.653 83.1077C344.125 83.8117 343.525 84.3957 342.853 84.8597C342.197 85.3077 341.493 85.6437 340.741 85.8677C339.989 86.0757 339.205 86.1797 338.389 86.1797ZM336.037 78.9797C336.629 78.9797 337.229 78.9557 337.837 78.9077C338.445 78.8437 339.005 78.7397 339.517 78.5957C340.045 78.4357 340.469 78.2197 340.789 77.9477C341.109 77.6757 341.269 77.3237 341.269 76.8917C341.269 76.5237 341.149 76.1957 340.909 75.9077C340.685 75.6037 340.365 75.3637 339.949 75.1877C339.533 75.0117 339.045 74.9237 338.485 74.9237C337.653 74.9237 336.909 75.1077 336.253 75.4757C335.597 75.8437 335.077 76.3317 334.693 76.9397C334.325 77.5477 334.125 78.2037 334.093 78.9077C334.317 78.9237 334.597 78.9397 334.933 78.9557C335.269 78.9717 335.637 78.9797 336.037 78.9797ZM352.385 86.1797C351.233 86.1797 350.185 85.8997 349.241 85.3397C348.313 84.7637 347.569 83.9717 347.009 82.9637C346.465 81.9397 346.193 80.7477 346.193 79.3877C346.193 78.0277 346.465 76.8437 347.009 75.8357C347.569 74.8117 348.313 74.0197 349.241 73.4597C350.185 72.8997 351.233 72.6197 352.385 72.6197C353.473 72.6197 354.425 72.8917 355.241 73.4357C356.057 73.9637 356.649 74.6997 357.017 75.6437V72.7877H359.777V86.0117H358.553C358.105 86.0117 357.737 85.8677 357.449 85.5797C357.161 85.2917 357.017 84.9237 357.017 84.4757V83.1317C356.649 84.0757 356.057 84.8197 355.241 85.3637C354.425 85.9077 353.473 86.1797 352.385 86.1797ZM353.009 83.8037C353.697 83.8037 354.345 83.6357 354.953 83.2997C355.561 82.9637 356.057 82.4677 356.441 81.8117C356.825 81.1397 357.017 80.3317 357.017 79.3877C357.017 78.4277 356.825 77.6277 356.441 76.9877C356.057 76.3317 355.561 75.8357 354.953 75.4997C354.345 75.1637 353.697 74.9957 353.009 74.9957C352.337 74.9957 351.689 75.1637 351.065 75.4997C350.457 75.8357 349.961 76.3317 349.577 76.9877C349.193 77.6277 349.001 78.4277 349.001 79.3877C349.001 80.3317 349.193 81.1397 349.577 81.8117C349.961 82.4677 350.457 82.9637 351.065 83.2997C351.689 83.6357 352.337 83.8037 353.009 83.8037ZM367.954 86.1797C367.026 86.1797 366.194 86.0197 365.458 85.6997C364.722 85.3637 364.114 84.9157 363.634 84.3557C363.154 83.7957 362.826 83.1877 362.65 82.5317L365.266 81.9557C365.426 82.5477 365.746 83.0197 366.226 83.3717C366.722 83.7077 367.282 83.8757 367.906 83.8757C368.706 83.8757 369.306 83.7317 369.706 83.4437C370.122 83.1397 370.33 82.7637 370.33 82.3157C370.33 81.8837 370.146 81.5477 369.778 81.3077C369.41 81.0677 368.93 80.8677 368.338 80.7077C367.762 80.5477 367.146 80.3797 366.49 80.2037C365.834 80.0277 365.21 79.7957 364.618 79.5077C364.042 79.2197 363.57 78.8357 363.202 78.3557C362.834 77.8597 362.65 77.2117 362.65 76.4117C362.65 75.7077 362.858 75.0677 363.274 74.4917C363.69 73.9157 364.274 73.4597 365.026 73.1237C365.794 72.7877 366.698 72.6197 367.738 72.6197C368.634 72.6197 369.426 72.7637 370.114 73.0517C370.802 73.3397 371.37 73.7477 371.818 74.2757C372.266 74.7877 372.57 75.4037 372.73 76.1237L370.114 76.7957C369.954 76.1877 369.674 75.7237 369.274 75.4037C368.874 75.0837 368.33 74.9237 367.642 74.9237C366.906 74.9237 366.346 75.0597 365.962 75.3317C365.594 75.5877 365.41 75.9397 365.41 76.3877C365.41 76.8197 365.594 77.1637 365.962 77.4197C366.33 77.6597 366.802 77.8677 367.378 78.0437C367.954 78.2037 368.562 78.3717 369.202 78.5477C369.858 78.7237 370.474 78.9557 371.05 79.2437C371.626 79.5157 372.098 79.8997 372.466 80.3957C372.834 80.8757 373.018 81.5077 373.018 82.2917C373.018 82.9797 372.81 83.6197 372.394 84.2117C371.994 84.8037 371.41 85.2837 370.642 85.6517C369.89 86.0037 368.994 86.1797 367.954 86.1797Z" fill="#212121"/>
<path d="M41.206 15.8555L35.0678 20.7518L33.8501 21.7299L26.0438 27.9545L18.1486 21.691L16.9198 20.7129L10.7982 15.8555H2.76953V50.0128H10.8316V26.2427L15.4909 29.7162L16.9476 30.8L24.1089 36.1353H27.9843L34.9844 30.9167L36.4355 29.8385L41.2616 26.2427V50.0128H49.3181V15.8555H41.206Z" fill="#212121"/>
</svg>
