<svg width="380" height="111" viewBox="0 0 380 111" fill="none" xmlns="http://www.w3.org/2000/svg">
<path d="M48.896 14.1473H55.7643V43.4676H48.896V14.1473Z" fill="#212121"/>
<path d="M80.4775 37.6061V43.4676H65.3579V14.1473H72.1415V37.6061H80.4775Z" fill="#212121"/>
<path d="M103.439 37.6061V43.4676H88.3198V14.1473H95.1034V37.6061H103.439Z" fill="#212121"/>
<path d="M118.068 19.5918V26.2499H129.167V31.5689H118.068V38.02H129.167V43.4645H111.282V14.1473H129.167V19.5918H118.068Z" fill="#212121"/>
<path d="M149.269 14.1473C158.985 14.1473 164.514 21.3104 164.514 28.809C164.514 36.3077 159.029 43.4676 149.269 43.4676H138.505V14.1473H149.269ZM145.289 20.012V37.6029H148.933C154.422 37.6029 157.605 33.3314 157.605 28.8059C157.605 24.2804 154.422 20.012 148.933 20.012H145.289Z" fill="#212121"/>
<path d="M171.18 28.8122C171.18 20.771 176.96 13.3978 186.72 13.3978C196.48 13.3978 202.216 20.771 202.216 28.8122C202.216 36.8534 196.436 44.2266 186.72 44.2266C177.004 44.2266 171.18 36.8534 171.18 28.8122ZM195.307 28.8122C195.307 23.995 192.039 19.5165 186.72 19.5165C181.401 19.5165 178.133 23.9982 178.133 28.8122C178.133 33.6263 181.357 38.111 186.72 38.111C192.083 38.111 195.307 33.6294 195.307 28.8122Z" fill="#212121"/>
<path d="M228.031 33.2467V14.1473H234.777V43.4676H227.696L217.139 24.6222V43.4676H210.356V14.1473H217.434L228.031 33.2467Z" fill="#212121"/>
<path d="M244.375 14.1473H251.243V43.4676H244.375V14.1473Z" fill="#212121"/>
<path d="M20.2359 14.0304L20.0215 14.4912L19.8071 14.0304L11.6978 17.8646V43.4589H12.9315V18.6565L20.0215 15.3029L27.113 18.6565V43.4589H28.3452V17.8646L20.2359 14.0304Z" fill="#E0B000"/>
<path d="M19.3715 14.7285C19.0166 13.0746 16.8843 12.4795 15.0042 11.9547C14.3488 11.7716 13.7297 11.5977 13.2117 11.3856C11.0855 10.5174 8.67536 9.53334 7.3223 7.17149C6.44039 5.63201 6.4419 3.63634 7.32381 2.08924C8.11964 0.696237 9.46364 -0.0803668 11.0538 0.00660055C13.9698 0.153072 16.318 2.69191 18.2298 7.76653C18.7584 9.17021 19.2552 10.5998 19.7052 12.0142C19.7837 12.2598 19.9046 12.5299 20.0284 12.8091C20.2821 13.3813 20.5433 13.9748 20.5871 14.5469L19.37 14.727L19.3715 14.7285ZM10.8318 1.24703C9.43646 1.24703 8.70556 2.16553 8.39296 2.71327C7.72549 3.88046 7.72399 5.38637 8.38995 6.54746C9.53159 8.54008 11.6382 9.39907 13.6753 10.2321C14.1269 10.4167 14.7128 10.58 15.3334 10.7539C16.315 11.027 17.4083 11.3337 18.3476 11.822C17.9535 10.6166 17.5276 9.40518 17.0791 8.21052C15.3606 3.64702 13.3703 1.37062 10.9934 1.25008L10.8333 1.2455L10.8318 1.24703Z" fill="#E0B000"/>
<path d="M20.9025 14.7297L19.6853 14.5497C19.7291 13.976 19.9919 13.3825 20.2456 12.8088C20.3679 12.5311 20.4887 12.2626 20.5672 12.017C21.0233 10.5889 21.5201 9.15924 22.0426 7.76928C23.9544 2.69466 26.3026 0.155828 29.2186 0.00935683C30.8012 -0.0730333 32.1543 0.698994 32.9501 2.09505C33.832 3.64215 33.832 5.63477 32.9501 7.17425C31.5941 9.53915 29.1854 10.5217 27.0607 11.3883C26.5427 11.6004 25.9236 11.7728 25.2682 11.9559C23.3881 12.4823 21.2558 13.0773 20.8994 14.7312L20.9025 14.7297ZM29.4406 1.24826L29.2806 1.25284C26.9052 1.37185 24.9148 3.64978 23.1963 8.21328C22.7508 9.39573 22.325 10.6087 21.9278 11.8232C22.8671 11.3349 23.9604 11.0283 24.942 10.7552C25.5627 10.5812 26.1486 10.418 26.6001 10.2334C28.6357 9.40183 30.7408 8.54284 31.884 6.54869C32.55 5.38913 32.55 3.88322 31.8825 2.71603C31.5714 2.16676 30.8375 1.24826 29.4406 1.24826Z" fill="#E0B000"/>
<path d="M33.0708 13.639L27.7895 17.8518L26.7418 18.6934L20.0252 24.049L13.2322 18.6599L12.1749 17.8183L6.9079 13.639H0V43.028H6.9366V22.5762L10.9455 25.5649L12.1988 26.4973L18.3605 31.0878H21.6948L27.7177 26.5977L28.9663 25.6701L33.1187 22.5762V43.028H40.0505V13.639H33.0708Z" fill="#212121"/>
<path d="M1.74794 63.3041H10.1936V65.2245H4.102V69.4577H8.85142V71.3781H4.102V77.6556H1.74794V63.3041ZM12.4372 77.6556V66.2776H14.7913V77.6556H12.4372ZM13.6349 64.7702C13.1393 64.7702 12.7194 64.6119 12.3752 64.2953C12.0311 63.9786 11.859 63.5863 11.859 63.1182C11.859 62.6502 12.0311 62.2578 12.3752 61.9412C12.7194 61.6108 13.1393 61.4456 13.6349 61.4456C14.1167 61.4456 14.5297 61.6108 14.8738 61.9412C15.2318 62.2578 15.4107 62.6502 15.4107 63.1182C15.4107 63.5863 15.2318 63.9786 14.8738 64.2953C14.5297 64.6119 14.1167 64.7702 13.6349 64.7702ZM18.0015 77.6556V66.2776H20.3555V68.6523C20.5345 68.1705 20.8167 67.7438 21.2022 67.3721C21.5876 66.9866 22.0281 66.6837 22.5237 66.4635C23.0331 66.2432 23.5424 66.1331 24.0518 66.1331C24.9191 66.1331 25.6762 66.3258 26.3233 66.7113C26.9841 67.083 27.4934 67.6267 27.8513 68.3426C28.223 69.0584 28.4089 69.9257 28.4089 70.9444V77.6556H26.0755V71.502C26.0755 70.4695 25.8139 69.6573 25.2908 69.0653C24.7677 68.4734 24.0793 68.1774 23.2258 68.1774C22.6752 68.1774 22.1796 68.3288 21.739 68.6317C21.3123 68.9345 20.975 69.3544 20.7272 69.8913C20.4794 70.4144 20.3555 71.0202 20.3555 71.7085V77.6556H18.0015ZM35.9545 77.8001C34.9634 77.8001 34.0617 77.5592 33.2494 77.0774C32.451 76.5818 31.8109 75.9004 31.329 75.0331C30.861 74.152 30.6269 73.1264 30.6269 71.9563C30.6269 70.7861 30.861 69.7674 31.329 68.9001C31.8109 68.0191 32.451 67.3376 33.2494 66.8558C34.0617 66.374 34.9634 66.1331 35.9545 66.1331C36.8907 66.1331 37.7098 66.3671 38.4119 66.8352C39.1139 67.2895 39.6233 67.9227 39.9399 68.7349V62.3748H42.3146V77.6556H41.2615C40.876 77.6556 40.5594 77.5317 40.3116 77.2839C40.0638 77.0361 39.9399 76.7195 39.9399 76.334V75.1776C39.6233 75.9898 39.1139 76.63 38.4119 77.098C37.7098 77.5661 36.8907 77.8001 35.9545 77.8001ZM36.4914 75.7558C37.0834 75.7558 37.6409 75.6113 38.1641 75.3222C38.6872 75.0331 39.1139 74.6063 39.4443 74.0419C39.7747 73.4637 39.9399 72.7685 39.9399 71.9563C39.9399 71.1303 39.7747 70.442 39.4443 69.8913C39.1139 69.3269 38.6872 68.9001 38.1641 68.611C37.6409 68.3219 37.0834 68.1774 36.4914 68.1774C35.9132 68.1774 35.3557 68.3219 34.8188 68.611C34.2957 68.9001 33.8689 69.3269 33.5385 69.8913C33.2081 70.442 33.0429 71.1303 33.0429 71.9563C33.0429 72.7685 33.2081 73.4637 33.5385 74.0419C33.8689 74.6063 34.2957 75.0331 34.8188 75.3222C35.3557 75.6113 35.9132 75.7558 36.4914 75.7558ZM45.4685 77.6556V66.2776H47.8226V77.6556H45.4685ZM46.6662 64.7702C46.1706 64.7702 45.7508 64.6119 45.4066 64.2953C45.0624 63.9786 44.8904 63.5863 44.8904 63.1182C44.8904 62.6502 45.0624 62.2578 45.4066 61.9412C45.7508 61.6108 46.1706 61.4456 46.6662 61.4456C47.148 61.4456 47.561 61.6108 47.9052 61.9412C48.2631 62.2578 48.4421 62.6502 48.4421 63.1182C48.4421 63.5863 48.2631 63.9786 47.9052 64.2953C47.561 64.6119 47.148 64.7702 46.6662 64.7702ZM51.0328 77.6556V66.2776H53.3869V68.6523C53.5658 68.1705 53.848 67.7438 54.2335 67.3721C54.619 66.9866 55.0595 66.6837 55.5551 66.4635C56.0644 66.2432 56.5738 66.1331 57.0832 66.1331C57.9504 66.1331 58.7076 66.3258 59.3546 66.7113C60.0154 67.083 60.5248 67.6267 60.8827 68.3426C61.2544 69.0584 61.4402 69.9257 61.4402 70.9444V77.6556H59.1068V71.502C59.1068 70.4695 58.8453 69.6573 58.3221 69.0653C57.799 68.4734 57.1107 68.1774 56.2572 68.1774C55.7065 68.1774 55.2109 68.3288 54.7704 68.6317C54.3436 68.9345 54.0064 69.3544 53.7586 69.8913C53.5108 70.4144 53.3869 71.0202 53.3869 71.7085V77.6556H51.0328ZM69.7086 83.2103C68.7863 83.2103 67.9328 83.0658 67.1481 82.7767C66.3772 82.4876 65.7095 82.0608 65.1451 81.4964C64.5806 80.932 64.1539 80.2437 63.8648 79.4314L66.0123 78.5642C66.329 79.3626 66.8246 79.989 67.4991 80.4433C68.1737 80.9113 68.9102 81.1454 69.7086 81.1454C70.3557 81.1454 70.9201 81.0215 71.4019 80.7737C71.8975 80.5259 72.283 80.1542 72.5583 79.6586C72.8336 79.163 72.9713 78.5504 72.9713 77.8208V75.1776C72.6546 75.9898 72.1453 76.63 71.4432 77.098C70.7411 77.5661 69.922 77.8001 68.9859 77.8001C67.9947 77.8001 67.093 77.5592 66.2808 77.0774C65.4823 76.5818 64.8422 75.9004 64.3604 75.0331C63.8923 74.152 63.6583 73.1264 63.6583 71.9563C63.6583 70.7861 63.8923 69.7674 64.3604 68.9001C64.8422 68.0191 65.4823 67.3376 66.2808 66.8558C67.093 66.374 67.9947 66.1331 68.9859 66.1331C69.922 66.1331 70.7411 66.3671 71.4432 66.8352C72.1453 67.2895 72.6546 67.9227 72.9713 68.7349V66.2776H75.346V77.7795C75.346 78.5779 75.2152 79.3075 74.9536 79.9683C74.7058 80.6291 74.341 81.2004 73.8592 81.6823C73.3774 82.1641 72.7854 82.5358 72.0833 82.7973C71.395 83.0727 70.6035 83.2103 69.7086 83.2103ZM69.5228 75.7558C70.1147 75.7558 70.6723 75.6113 71.1954 75.3222C71.7185 75.0331 72.1453 74.6063 72.4757 74.0419C72.8061 73.4637 72.9713 72.7685 72.9713 71.9563C72.9713 71.1303 72.8061 70.442 72.4757 69.8913C72.1453 69.3269 71.7185 68.9001 71.1954 68.611C70.6723 68.3219 70.1147 68.1774 69.5228 68.1774C68.9446 68.1774 68.3871 68.3219 67.8502 68.611C67.327 68.9001 66.9003 69.3269 66.5699 69.8913C66.2395 70.442 66.0743 71.1303 66.0743 71.9563C66.0743 72.7685 66.2395 73.4637 66.5699 74.0419C66.9003 74.6063 67.327 75.0331 67.8502 75.3222C68.3871 75.6113 68.9446 75.7558 69.5228 75.7558ZM88.3449 77.8001C87.3537 77.8001 86.452 77.5592 85.6398 77.0774C84.8414 76.5818 84.2012 75.9004 83.7194 75.0331C83.2514 74.152 83.0173 73.1264 83.0173 71.9563C83.0173 70.7861 83.2514 69.7674 83.7194 68.9001C84.2012 68.0191 84.8414 67.3376 85.6398 66.8558C86.452 66.374 87.3537 66.1331 88.3449 66.1331C89.281 66.1331 90.1002 66.3671 90.8022 66.8352C91.5043 67.2895 92.0137 67.9227 92.3303 68.7349V66.2776H94.705V77.6556H93.6519C93.2664 77.6556 92.9498 77.5317 92.702 77.2839C92.4542 77.0361 92.3303 76.7195 92.3303 76.334V75.1776C92.0137 75.9898 91.5043 76.63 90.8022 77.098C90.1002 77.5661 89.281 77.8001 88.3449 77.8001ZM88.8818 75.7558C89.4738 75.7558 90.0313 75.6113 90.5544 75.3222C91.0776 75.0331 91.5043 74.6063 91.8347 74.0419C92.1651 73.4637 92.3303 72.7685 92.3303 71.9563C92.3303 71.1303 92.1651 70.442 91.8347 69.8913C91.5043 69.3269 91.0776 68.9001 90.5544 68.611C90.0313 68.3219 89.4738 68.1774 88.8818 68.1774C88.3036 68.1774 87.7461 68.3219 87.2092 68.611C86.6861 68.9001 86.2593 69.3269 85.9289 69.8913C85.5985 70.442 85.4333 71.1303 85.4333 71.9563C85.4333 72.7685 85.5985 73.4637 85.9289 74.0419C86.2593 74.6063 86.6861 75.0331 87.2092 75.3222C87.7461 75.6113 88.3036 75.7558 88.8818 75.7558ZM97.797 77.6556V66.2776H100.151V68.6523C100.33 68.1705 100.612 67.7438 100.998 67.3721C101.383 66.9866 101.824 66.6837 102.319 66.4635C102.829 66.2432 103.338 66.1331 103.847 66.1331C104.715 66.1331 105.472 66.3258 106.119 66.7113C106.78 67.083 107.289 67.6267 107.647 68.3426C108.019 69.0584 108.204 69.9257 108.204 70.9444V77.6556H105.871V71.502C105.871 70.4695 105.609 69.6573 105.086 69.0653C104.563 68.4734 103.875 68.1774 103.021 68.1774C102.471 68.1774 101.975 68.3288 101.535 68.6317C101.108 68.9345 100.771 69.3544 100.523 69.8913C100.275 70.4144 100.151 71.0202 100.151 71.7085V77.6556H97.797ZM115.75 77.8001C114.759 77.8001 113.857 77.5592 113.045 77.0774C112.247 76.5818 111.606 75.9004 111.125 75.0331C110.656 74.152 110.422 73.1264 110.422 71.9563C110.422 70.7861 110.656 69.7674 111.125 68.9001C111.606 68.0191 112.247 67.3376 113.045 66.8558C113.857 66.374 114.759 66.1331 115.75 66.1331C116.686 66.1331 117.505 66.3671 118.207 66.8352C118.909 67.2895 119.419 67.9227 119.735 68.7349V62.3748H122.11V77.6556H121.057C120.672 77.6556 120.355 77.5317 120.107 77.2839C119.859 77.0361 119.735 76.7195 119.735 76.334V75.1776C119.419 75.9898 118.909 76.63 118.207 77.098C117.505 77.5661 116.686 77.8001 115.75 77.8001ZM116.287 75.7558C116.879 75.7558 117.436 75.6113 117.96 75.3222C118.483 75.0331 118.909 74.6063 119.24 74.0419C119.57 73.4637 119.735 72.7685 119.735 71.9563C119.735 71.1303 119.57 70.442 119.24 69.8913C118.909 69.3269 118.483 68.9001 117.96 68.611C117.436 68.3219 116.879 68.1774 116.287 68.1774C115.709 68.1774 115.151 68.3219 114.614 68.611C114.091 68.9001 113.664 69.3269 113.334 69.8913C113.004 70.442 112.838 71.1303 112.838 71.9563C112.838 72.7685 113.004 73.4637 113.334 74.0419C113.664 74.6063 114.091 75.0331 114.614 75.3222C115.151 75.6113 115.709 75.7558 116.287 75.7558ZM134.51 77.8001C133.712 77.8001 132.996 77.6625 132.363 77.3871C131.729 77.098 131.206 76.7126 130.793 76.2308C130.38 75.7489 130.098 75.2258 129.947 74.6614L132.198 74.1658C132.335 74.6751 132.61 75.0813 133.023 75.3841C133.45 75.6732 133.932 75.8178 134.469 75.8178C135.157 75.8178 135.674 75.6939 136.018 75.4461C136.376 75.1845 136.555 74.861 136.555 74.4755C136.555 74.1038 136.396 73.8147 136.08 73.6082C135.763 73.4018 135.35 73.2297 134.841 73.092C134.345 72.9543 133.815 72.8098 133.251 72.6584C132.686 72.5069 132.149 72.3073 131.64 72.0595C131.144 71.8117 130.738 71.4813 130.422 71.0683C130.105 70.6416 129.947 70.084 129.947 69.3957C129.947 68.79 130.126 68.2393 130.484 67.7438C130.842 67.2482 131.344 66.8558 131.991 66.5667C132.652 66.2776 133.43 66.1331 134.324 66.1331C135.095 66.1331 135.777 66.257 136.369 66.5048C136.961 66.7526 137.449 67.1036 137.835 67.5579C138.22 67.9984 138.482 68.5284 138.62 69.1479L136.369 69.7261C136.231 69.203 135.99 68.8038 135.646 68.5284C135.302 68.2531 134.834 68.1154 134.242 68.1154C133.609 68.1154 133.127 68.2325 132.796 68.4665C132.48 68.6868 132.321 68.9896 132.321 69.3751C132.321 69.7468 132.48 70.0427 132.796 70.263C133.113 70.4695 133.519 70.6485 134.015 70.7999C134.51 70.9376 135.033 71.0821 135.584 71.2335C136.148 71.385 136.678 71.5846 137.174 71.8324C137.67 72.0664 138.076 72.3968 138.392 72.8236C138.709 73.2366 138.867 73.7803 138.867 74.4549C138.867 75.0468 138.688 75.5975 138.33 76.1069C137.986 76.6162 137.484 77.0292 136.823 77.3458C136.176 77.6487 135.405 77.8001 134.51 77.8001ZM141.415 77.6556V62.3748H143.769V68.6523C143.948 68.1705 144.231 67.7438 144.616 67.3721C145.001 66.9866 145.442 66.6837 145.938 66.4635C146.447 66.2432 146.956 66.1331 147.466 66.1331C148.333 66.1331 149.09 66.3258 149.737 66.7113C150.398 67.083 150.907 67.6267 151.265 68.3426C151.637 69.0584 151.823 69.9257 151.823 70.9444V77.6556H149.489V71.502C149.489 70.4695 149.228 69.6573 148.705 69.0653C148.181 68.4734 147.493 68.1774 146.64 68.1774C146.089 68.1774 145.593 68.3288 145.153 68.6317C144.726 68.9345 144.389 69.3544 144.141 69.8913C143.893 70.4144 143.769 71.0202 143.769 71.7085V77.6556H141.415ZM159.368 77.8001C158.377 77.8001 157.475 77.5592 156.663 77.0774C155.865 76.5818 155.225 75.9004 154.743 75.0331C154.275 74.152 154.041 73.1264 154.041 71.9563C154.041 70.7861 154.275 69.7674 154.743 68.9001C155.225 68.0191 155.865 67.3376 156.663 66.8558C157.475 66.374 158.377 66.1331 159.368 66.1331C160.304 66.1331 161.124 66.3671 161.826 66.8352C162.528 67.2895 163.037 67.9227 163.354 68.7349V66.2776H165.728V77.6556H164.675C164.29 77.6556 163.973 77.5317 163.725 77.2839C163.478 77.0361 163.354 76.7195 163.354 76.334V75.1776C163.037 75.9898 162.528 76.63 161.826 77.098C161.124 77.5661 160.304 77.8001 159.368 77.8001ZM159.905 75.7558C160.497 75.7558 161.055 75.6113 161.578 75.3222C162.101 75.0331 162.528 74.6063 162.858 74.0419C163.189 73.4637 163.354 72.7685 163.354 71.9563C163.354 71.1303 163.189 70.442 162.858 69.8913C162.528 69.3269 162.101 68.9001 161.578 68.611C161.055 68.3219 160.497 68.1774 159.905 68.1774C159.327 68.1774 158.77 68.3219 158.233 68.611C157.71 68.9001 157.283 69.3269 156.952 69.8913C156.622 70.442 156.457 71.1303 156.457 71.9563C156.457 72.7685 156.622 73.4637 156.952 74.0419C157.283 74.6063 157.71 75.0331 158.233 75.3222C158.77 75.6113 159.327 75.7558 159.905 75.7558ZM168.82 77.6556V66.2776H171.174V77.6556H168.82ZM170.493 71.915L171.174 68.7762C171.45 67.964 171.897 67.3239 172.517 66.8558C173.15 66.374 173.866 66.1331 174.664 66.1331V68.5697C174.554 68.5422 174.444 68.5284 174.334 68.5284C174.238 68.5147 174.134 68.5078 174.024 68.5078C173.46 68.5078 172.964 68.6386 172.537 68.9001C172.111 69.1479 171.773 69.5265 171.526 70.0359C171.292 70.5315 171.174 71.1578 171.174 71.915H170.493ZM176.888 77.6556V66.2776H179.242V77.6556H176.888ZM178.086 64.7702C177.59 64.7702 177.17 64.6119 176.826 64.2953C176.482 63.9786 176.31 63.5863 176.31 63.1182C176.31 62.6502 176.482 62.2578 176.826 61.9412C177.17 61.6108 177.59 61.4456 178.086 61.4456C178.568 61.4456 178.981 61.6108 179.325 61.9412C179.683 62.2578 179.862 62.6502 179.862 63.1182C179.862 63.5863 179.683 63.9786 179.325 64.2953C178.981 64.6119 178.568 64.7702 178.086 64.7702ZM182.452 77.6556V66.2776H184.806V68.6523C184.985 68.1705 185.268 67.7438 185.653 67.3721C186.039 66.9866 186.479 66.6837 186.975 66.4635C187.484 66.2432 187.993 66.1331 188.503 66.1331C189.37 66.1331 190.127 66.3258 190.774 66.7113C191.435 67.083 191.944 67.6267 192.302 68.3426C192.674 69.0584 192.86 69.9257 192.86 70.9444V77.6556H190.526V71.502C190.526 70.4695 190.265 69.6573 189.742 69.0653C189.219 68.4734 188.53 68.1774 187.677 68.1774C187.126 68.1774 186.631 68.3288 186.19 68.6317C185.763 68.9345 185.426 69.3544 185.178 69.8913C184.93 70.4144 184.806 71.0202 184.806 71.7085V77.6556H182.452ZM201.128 83.2103C200.206 83.2103 199.352 83.0658 198.568 82.7767C197.797 82.4876 197.129 82.0608 196.565 81.4964C196 80.932 195.573 80.2437 195.284 79.4314L197.432 78.5642C197.749 79.3626 198.244 79.989 198.919 80.4433C199.593 80.9113 200.33 81.1454 201.128 81.1454C201.775 81.1454 202.34 81.0215 202.822 80.7737C203.317 80.5259 203.703 80.1542 203.978 79.6586C204.253 79.163 204.391 78.5504 204.391 77.8208V75.1776C204.074 75.9898 203.565 76.63 202.863 77.098C202.161 77.5661 201.342 77.8001 200.406 77.8001C199.414 77.8001 198.513 77.5592 197.7 77.0774C196.902 76.5818 196.262 75.9004 195.78 75.0331C195.312 74.152 195.078 73.1264 195.078 71.9563C195.078 70.7861 195.312 69.7674 195.78 68.9001C196.262 68.0191 196.902 67.3376 197.7 66.8558C198.513 66.374 199.414 66.1331 200.406 66.1331C201.342 66.1331 202.161 66.3671 202.863 66.8352C203.565 67.2895 204.074 67.9227 204.391 68.7349V66.2776H206.766V77.7795C206.766 78.5779 206.635 79.3075 206.373 79.9683C206.125 80.6291 205.761 81.2004 205.279 81.6823C204.797 82.1641 204.205 82.5358 203.503 82.7973C202.815 83.0727 202.023 83.2103 201.128 83.2103ZM200.942 75.7558C201.534 75.7558 202.092 75.6113 202.615 75.3222C203.138 75.0331 203.565 74.6063 203.895 74.0419C204.226 73.4637 204.391 72.7685 204.391 71.9563C204.391 71.1303 204.226 70.442 203.895 69.8913C203.565 69.3269 203.138 68.9001 202.615 68.611C202.092 68.3219 201.534 68.1774 200.942 68.1774C200.364 68.1774 199.807 68.3219 199.27 68.611C198.747 68.9001 198.32 69.3269 197.989 69.8913C197.659 70.442 197.494 71.1303 197.494 71.9563C197.494 72.7685 197.659 73.4637 197.989 74.0419C198.32 74.6063 198.747 75.0331 199.27 75.3222C199.807 75.6113 200.364 75.7558 200.942 75.7558ZM220.487 83.2103C219.565 83.2103 218.711 83.0658 217.927 82.7767C217.156 82.4876 216.488 82.0608 215.924 81.4964C215.359 80.932 214.933 80.2437 214.643 79.4314L216.791 78.5642C217.108 79.3626 217.603 79.989 218.278 80.4433C218.952 80.9113 219.689 81.1454 220.487 81.1454C221.134 81.1454 221.699 81.0215 222.181 80.7737C222.676 80.5259 223.062 80.1542 223.337 79.6586C223.612 79.163 223.75 78.5504 223.75 77.8208V75.1776C223.433 75.9898 222.924 76.63 222.222 77.098C221.52 77.5661 220.701 77.8001 219.765 77.8001C218.773 77.8001 217.872 77.5592 217.059 77.0774C216.261 76.5818 215.621 75.9004 215.139 75.0331C214.671 74.152 214.437 73.1264 214.437 71.9563C214.437 70.7861 214.671 69.7674 215.139 68.9001C215.621 68.0191 216.261 67.3376 217.059 66.8558C217.872 66.374 218.773 66.1331 219.765 66.1331C220.701 66.1331 221.52 66.3671 222.222 66.8352C222.924 67.2895 223.433 67.9227 223.75 68.7349V66.2776H226.125V77.7795C226.125 78.5779 225.994 79.3075 225.732 79.9683C225.484 80.6291 225.12 81.2004 224.638 81.6823C224.156 82.1641 223.564 82.5358 222.862 82.7973C222.174 83.0727 221.382 83.2103 220.487 83.2103ZM220.301 75.7558C220.893 75.7558 221.451 75.6113 221.974 75.3222C222.497 75.0331 222.924 74.6063 223.254 74.0419C223.585 73.4637 223.75 72.7685 223.75 71.9563C223.75 71.1303 223.585 70.442 223.254 69.8913C222.924 69.3269 222.497 68.9001 221.974 68.611C221.451 68.3219 220.893 68.1774 220.301 68.1774C219.723 68.1774 219.166 68.3219 218.629 68.611C218.106 68.9001 217.679 69.3269 217.349 69.8913C217.018 70.442 216.853 71.1303 216.853 71.9563C216.853 72.7685 217.018 73.4637 217.349 74.0419C217.679 74.6063 218.106 75.0331 218.629 75.3222C219.166 75.6113 219.723 75.7558 220.301 75.7558ZM229.279 77.6556V66.2776H231.633V77.6556H229.279ZM230.476 64.7702C229.981 64.7702 229.561 64.6119 229.217 64.2953C228.872 63.9786 228.7 63.5863 228.7 63.1182C228.7 62.6502 228.872 62.2578 229.217 61.9412C229.561 61.6108 229.981 61.4456 230.476 61.4456C230.958 61.4456 231.371 61.6108 231.715 61.9412C232.073 62.2578 232.252 62.6502 232.252 63.1182C232.252 63.5863 232.073 63.9786 231.715 64.2953C231.371 64.6119 230.958 64.7702 230.476 64.7702ZM235.132 77.6556V68.198H233.79V66.2776H235.132V65.4723C235.132 64.8115 235.214 64.2471 235.38 63.779C235.559 63.311 235.82 62.9255 236.164 62.6226C236.522 62.306 236.97 62.0789 237.507 61.9412C238.057 61.7898 238.704 61.7141 239.448 61.7141V63.6758C238.98 63.6758 238.601 63.7377 238.312 63.8616C238.023 63.9718 237.816 64.1576 237.692 64.4192C237.569 64.6807 237.507 65.0318 237.507 65.4723V66.2776H239.613V68.198H237.507V77.6556H235.132ZM245.519 77.8001C244.652 77.8001 243.929 77.5041 243.351 76.9122C242.773 76.3202 242.484 75.5149 242.484 74.4962V68.198H240.729V66.2776H247.626V68.198H244.859V74.6407C244.859 75.0262 244.955 75.3015 245.148 75.4667C245.354 75.6319 245.574 75.7145 245.808 75.7145C246.015 75.7145 246.201 75.6801 246.366 75.6113C246.531 75.5424 246.689 75.4323 246.841 75.2809L248.059 76.747C247.674 77.1187 247.281 77.3871 246.882 77.5523C246.483 77.7175 246.029 77.8001 245.519 77.8001ZM241.575 67.1656V66.2776C241.864 66.2776 242.085 66.195 242.236 66.0298C242.401 65.8646 242.484 65.6375 242.484 65.3484V63.4486H244.859V64.9561C244.859 65.1488 244.81 65.3415 244.714 65.5342C244.618 65.7132 244.48 65.8715 244.301 66.0092C244.136 66.1331 243.95 66.2226 243.743 66.2776L241.575 67.1656ZM254.173 77.8001C253.375 77.8001 252.659 77.6625 252.026 77.3871C251.392 77.098 250.869 76.7126 250.456 76.2308C250.043 75.7489 249.761 75.2258 249.61 74.6614L251.861 74.1658C251.998 74.6751 252.274 75.0813 252.687 75.3841C253.113 75.6732 253.595 75.8178 254.132 75.8178C254.82 75.8178 255.337 75.6939 255.681 75.4461C256.039 75.1845 256.218 74.861 256.218 74.4755C256.218 74.1038 256.059 73.8147 255.743 73.6082C255.426 73.4018 255.013 73.2297 254.504 73.092C254.008 72.9543 253.478 72.8098 252.914 72.6584C252.349 72.5069 251.812 72.3073 251.303 72.0595C250.807 71.8117 250.401 71.4813 250.085 71.0683C249.768 70.6416 249.61 70.084 249.61 69.3957C249.61 68.79 249.789 68.2393 250.147 67.7438C250.505 67.2482 251.007 66.8558 251.654 66.5667C252.315 66.2776 253.093 66.1331 253.987 66.1331C254.758 66.1331 255.44 66.257 256.032 66.5048C256.624 66.7526 257.112 67.1036 257.498 67.5579C257.883 67.9984 258.145 68.5284 258.283 69.1479L256.032 69.7261C255.894 69.203 255.653 68.8038 255.309 68.5284C254.965 68.2531 254.497 68.1154 253.905 68.1154C253.272 68.1154 252.79 68.2325 252.459 68.4665C252.143 68.6868 251.984 68.9896 251.984 69.3751C251.984 69.7468 252.143 70.0427 252.459 70.263C252.776 70.4695 253.182 70.6485 253.678 70.7999C254.173 70.9376 254.696 71.0821 255.247 71.2335C255.811 71.385 256.341 71.5846 256.837 71.8324C257.333 72.0664 257.739 72.3968 258.055 72.8236C258.372 73.2366 258.53 73.7803 258.53 74.4549C258.53 75.0468 258.351 75.5975 257.993 76.1069C257.649 76.6162 257.147 77.0292 256.486 77.3458C255.839 77.6487 255.068 77.8001 254.173 77.8001ZM266.504 77.6556V66.2776H268.858V77.6556H266.504ZM267.702 64.7702C267.206 64.7702 266.787 64.6119 266.442 64.2953C266.098 63.9786 265.926 63.5863 265.926 63.1182C265.926 62.6502 266.098 62.2578 266.442 61.9412C266.787 61.6108 267.206 61.4456 267.702 61.4456C268.184 61.4456 268.597 61.6108 268.941 61.9412C269.299 62.2578 269.478 62.6502 269.478 63.1182C269.478 63.5863 269.299 63.9786 268.941 64.2953C268.597 64.6119 268.184 64.7702 267.702 64.7702ZM276.612 77.8001C275.62 77.8001 274.719 77.5592 273.906 77.0774C273.108 76.5818 272.468 75.9004 271.986 75.0331C271.518 74.152 271.284 73.1264 271.284 71.9563C271.284 70.7861 271.518 69.7674 271.986 68.9001C272.468 68.0191 273.108 67.3376 273.906 66.8558C274.719 66.374 275.62 66.1331 276.612 66.1331C277.548 66.1331 278.367 66.3671 279.069 66.8352C279.771 67.2895 280.28 67.9227 280.597 68.7349V62.3748H282.972V77.6556H281.918C281.533 77.6556 281.216 77.5317 280.969 77.2839C280.721 77.0361 280.597 76.7195 280.597 76.334V75.1776C280.28 75.9898 279.771 76.63 279.069 77.098C278.367 77.5661 277.548 77.8001 276.612 77.8001ZM277.148 75.7558C277.74 75.7558 278.298 75.6113 278.821 75.3222C279.344 75.0331 279.771 74.6063 280.101 74.0419C280.432 73.4637 280.597 72.7685 280.597 71.9563C280.597 71.1303 280.432 70.442 280.101 69.8913C279.771 69.3269 279.344 68.9001 278.821 68.611C278.298 68.3219 277.74 68.1774 277.148 68.1774C276.57 68.1774 276.013 68.3219 275.476 68.611C274.953 68.9001 274.526 69.3269 274.196 69.8913C273.865 70.442 273.7 71.1303 273.7 71.9563C273.7 72.7685 273.865 73.4637 274.196 74.0419C274.526 74.6063 274.953 75.0331 275.476 75.3222C276.013 75.6113 276.57 75.7558 277.148 75.7558ZM291.35 77.8001C290.428 77.8001 289.588 77.6556 288.831 77.3665C288.087 77.0774 287.447 76.6713 286.91 76.1482C286.387 75.625 285.981 75.0193 285.692 74.331C285.417 73.6289 285.279 72.8649 285.279 72.0389C285.279 71.1441 285.437 70.3387 285.754 69.6229C286.084 68.8932 286.525 68.2669 287.075 67.7438C287.64 67.2206 288.287 66.8214 289.016 66.5461C289.746 66.2707 290.51 66.1331 291.309 66.1331C292.024 66.1331 292.678 66.2294 293.27 66.4222C293.862 66.6149 294.372 66.8834 294.798 67.2275C295.239 67.5717 295.576 67.9709 295.81 68.4252C296.044 68.8795 296.161 69.3682 296.161 69.8913C296.161 70.6209 295.948 71.2267 295.521 71.7085C295.094 72.1903 294.537 72.5689 293.848 72.8442C293.16 73.1195 292.403 73.3054 291.577 73.4018C290.751 73.4981 289.932 73.5257 289.12 73.4844C288.982 73.4706 288.81 73.4637 288.603 73.4637C288.397 73.4499 288.211 73.4431 288.046 73.4431C287.895 73.4293 287.812 73.4224 287.798 73.4224C287.895 73.8767 288.108 74.2897 288.438 74.6614C288.782 75.0193 289.209 75.3015 289.719 75.508C290.228 75.7145 290.772 75.8178 291.35 75.8178C291.818 75.8178 292.279 75.7352 292.733 75.57C293.201 75.4048 293.628 75.1776 294.014 74.8885C294.399 74.5994 294.723 74.269 294.984 73.8973L296.739 75.157C296.285 75.7627 295.769 76.2652 295.191 76.6644C294.626 77.0499 294.021 77.339 293.374 77.5317C292.727 77.7106 292.052 77.8001 291.35 77.8001ZM289.326 71.6052C289.836 71.6052 290.352 71.5846 290.875 71.5433C291.398 71.4882 291.88 71.3987 292.32 71.2748C292.775 71.1372 293.14 70.9513 293.415 70.7173C293.69 70.4833 293.828 70.1804 293.828 69.8087C293.828 69.4921 293.725 69.2099 293.518 68.9621C293.325 68.7005 293.05 68.494 292.692 68.3426C292.334 68.1912 291.914 68.1154 291.432 68.1154C290.717 68.1154 290.076 68.2738 289.512 68.5904C288.948 68.907 288.5 69.3269 288.17 69.85C287.853 70.3731 287.681 70.9376 287.654 71.5433C287.846 71.5571 288.087 71.5708 288.376 71.5846C288.665 71.5984 288.982 71.6052 289.326 71.6052ZM303.392 77.8001C302.4 77.8001 301.499 77.5592 300.686 77.0774C299.888 76.5818 299.248 75.9004 298.766 75.0331C298.298 74.152 298.064 73.1264 298.064 71.9563C298.064 70.7861 298.298 69.7674 298.766 68.9001C299.248 68.0191 299.888 67.3376 300.686 66.8558C301.499 66.374 302.4 66.1331 303.392 66.1331C304.328 66.1331 305.147 66.3671 305.849 66.8352C306.551 67.2895 307.06 67.9227 307.377 68.7349V66.2776H309.752V77.6556H308.698C308.313 77.6556 307.996 77.5317 307.749 77.2839C307.501 77.0361 307.377 76.7195 307.377 76.334V75.1776C307.06 75.9898 306.551 76.63 305.849 77.098C305.147 77.5661 304.328 77.8001 303.392 77.8001ZM303.928 75.7558C304.52 75.7558 305.078 75.6113 305.601 75.3222C306.124 75.0331 306.551 74.6063 306.881 74.0419C307.212 73.4637 307.377 72.7685 307.377 71.9563C307.377 71.1303 307.212 70.442 306.881 69.8913C306.551 69.3269 306.124 68.9001 305.601 68.611C305.078 68.3219 304.52 68.1774 303.928 68.1774C303.35 68.1774 302.793 68.3219 302.256 68.611C301.733 68.9001 301.306 69.3269 300.976 69.8913C300.645 70.442 300.48 71.1303 300.48 71.9563C300.48 72.7685 300.645 73.4637 300.976 74.0419C301.306 74.6063 301.733 75.0331 302.256 75.3222C302.793 75.6113 303.35 75.7558 303.928 75.7558ZM316.788 77.8001C315.989 77.8001 315.273 77.6625 314.64 77.3871C314.007 77.098 313.484 76.7126 313.071 76.2308C312.658 75.7489 312.376 75.2258 312.224 74.6614L314.475 74.1658C314.613 74.6751 314.888 75.0813 315.301 75.3841C315.728 75.6732 316.209 75.8178 316.746 75.8178C317.435 75.8178 317.951 75.6939 318.295 75.4461C318.653 75.1845 318.832 74.861 318.832 74.4755C318.832 74.1038 318.674 73.8147 318.357 73.6082C318.04 73.4018 317.627 73.2297 317.118 73.092C316.622 72.9543 316.092 72.8098 315.528 72.6584C314.964 72.5069 314.427 72.3073 313.917 72.0595C313.422 71.8117 313.016 71.4813 312.699 71.0683C312.382 70.6416 312.224 70.084 312.224 69.3957C312.224 68.79 312.403 68.2393 312.761 67.7438C313.119 67.2482 313.621 66.8558 314.268 66.5667C314.929 66.2776 315.707 66.1331 316.602 66.1331C317.373 66.1331 318.054 66.257 318.646 66.5048C319.238 66.7526 319.727 67.1036 320.112 67.5579C320.498 67.9984 320.759 68.5284 320.897 69.1479L318.646 69.7261C318.508 69.203 318.268 68.8038 317.923 68.5284C317.579 68.2531 317.111 68.1154 316.519 68.1154C315.886 68.1154 315.404 68.2325 315.074 68.4665C314.757 68.6868 314.599 68.9896 314.599 69.3751C314.599 69.7468 314.757 70.0427 315.074 70.263C315.39 70.4695 315.796 70.6485 316.292 70.7999C316.788 70.9376 317.311 71.0821 317.861 71.2335C318.426 71.385 318.956 71.5846 319.451 71.8324C319.947 72.0664 320.353 72.3968 320.67 72.8236C320.986 73.2366 321.145 73.7803 321.145 74.4549C321.145 75.0468 320.966 75.5975 320.608 76.1069C320.264 76.6162 319.761 77.0292 319.1 77.3458C318.453 77.6487 317.682 77.8001 316.788 77.8001Z" fill="#212121"/>
</svg>
