<svg width="57" height="57" viewBox="0 0 57 57" fill="none" xmlns="http://www.w3.org/2000/svg">
<g filter="url(#filter0_d_18_246)">
<circle cx="28.5" cy="26.5" r="20.5" fill="white"/>
</g>
<path d="M23.1081 19.5753H23.0891C22.9817 19.8819 22.6025 20.1258 22.1917 20.3573C22.1475 20.3823 22.1096 20.4011 22.0843 20.4198C21.7114 20.645 21.3259 20.8327 20.9468 21.0204L20.7951 21.0954C20.2263 21.3769 19.3605 21.7523 18.4315 21.7773C17.4773 21.8023 16.6621 21.4457 16.207 20.8077C15.7015 20.1071 15.7394 19.2 16.2892 18.5995C17.2814 17.5235 19.2215 17.7237 20.2137 18.0115C20.8267 18.1866 21.3196 18.368 21.7746 18.5745C21.8062 18.587 21.8441 18.6057 21.8947 18.6245C22.4382 18.856 22.9437 19.0874 23.0828 19.419H23.127C23.127 19.4565 23.127 19.4878 23.1144 19.519C23.1144 19.5316 23.1144 19.5503 23.1207 19.5691L23.1081 19.5753ZM16.6052 19.2313C16.4093 19.5941 16.4409 20.0633 16.7126 20.4449C17.1866 21.1079 18.0524 21.158 18.3999 21.1455C19.2025 21.1267 19.9799 20.7827 20.4917 20.5324L20.6434 20.4574C21.0099 20.276 21.3828 20.0883 21.7367 19.8819C21.7683 19.8631 21.8125 19.8381 21.8631 19.8131C22.0527 19.7067 22.198 19.6129 22.2991 19.5441C22.1728 19.469 21.9642 19.3627 21.6229 19.2188C21.5661 19.1938 21.5218 19.175 21.4902 19.1625C21.0668 18.9686 20.5992 18.7997 20.0178 18.6308C18.9182 18.3117 17.4204 18.2992 16.7505 19.0374C16.6937 19.0999 16.6431 19.1625 16.6052 19.2376V19.2313Z" fill="#212121" stroke="#212121" stroke-width="0.8" stroke-miterlimit="10"/>
<path d="M23.2148 19.4677L22.5892 19.3426C22.6018 19.2801 22.5955 19.2175 22.5829 19.1487L22.4881 19.4114C22.2732 19.3364 22.0583 19.2613 21.8435 19.1925C20.8955 18.8734 19.916 18.5482 19.0628 17.9727C18.2286 17.4097 16.9521 16.0835 17.4829 14.6823C17.7736 13.9191 18.6837 13.5563 19.3978 13.6564C21.2494 13.9066 21.9067 15.7269 22.4312 17.197C22.526 17.4534 22.6145 17.6974 22.7029 17.9289C22.7472 18.029 22.8104 18.1478 22.8799 18.2729C23.0758 18.6295 23.297 19.0298 23.2085 19.4677H23.2148ZM18.3108 14.5822C18.2097 14.6697 18.1339 14.7823 18.0833 14.9075C17.6915 15.9396 18.7911 17.0218 19.4231 17.4534C20.2067 17.9789 21.142 18.2917 22.0457 18.5982C22.1594 18.6357 22.2795 18.6733 22.3933 18.7171C22.368 18.6733 22.3427 18.6295 22.3238 18.5857C22.2479 18.4481 22.1721 18.3105 22.1152 18.1666C22.0204 17.9289 21.9256 17.6786 21.8371 17.4159C21.3442 16.046 20.7818 14.4946 19.3156 14.2944C18.987 14.2506 18.5762 14.3507 18.3108 14.5884V14.5822Z" fill="#212121" stroke="#212121" stroke-width="0.8" stroke-miterlimit="10" stroke-linejoin="bevel"/>
<path d="M23.2657 19.9001H22.6274C22.6274 19.6498 22.659 19.4121 22.7096 19.1807L22.6148 19.1994C22.5137 18.7365 22.2925 18.1986 22.0586 17.623C21.4014 16.0154 20.5799 14.0074 22.185 12.6374C22.6464 12.2433 23.2657 12.0556 23.8787 12.1182C24.4538 12.1808 24.953 12.4497 25.2817 12.8814C26.3813 14.3201 25.3322 15.8465 24.5739 16.9662L24.4601 17.1351C23.9356 17.9045 23.2847 18.8679 23.2783 19.8938L23.2657 19.9001ZM22.9118 12.9126C22.798 12.9689 22.6969 13.0378 22.5958 13.1191C21.3445 14.1888 22.0081 15.8152 22.6464 17.3853C22.7728 17.6981 22.8992 18.0046 23.0066 18.2986C23.2594 17.7419 23.607 17.2352 23.9103 16.7848L24.0304 16.6097C24.7571 15.5462 25.5787 14.3389 24.7571 13.263C24.5359 12.9689 24.1947 12.7875 23.7965 12.7438C23.4869 12.7125 23.1772 12.7688 22.9055 12.9064L22.9118 12.9126Z" fill="#212121" stroke="#212121" stroke-width="0.8" stroke-miterlimit="10"/>
<path d="M36.9965 27.7451H21.0521V38.5234H36.9965V27.7451Z" stroke="#212121" stroke-width="1.8" stroke-miterlimit="10"/>
<path d="M29.9108 13.7911L17.4075 26.1675L19.548 28.2863L32.0513 15.9099L29.9108 13.7911Z" stroke="#212121" stroke-width="1.8" stroke-miterlimit="10"/>
<path d="M29.0211 27.5387V38.5297" stroke="#212121" stroke-width="1.8" stroke-miterlimit="10"/>
<path d="M23.7021 20.119L25.6649 22.1221" stroke="#212121" stroke-width="1.8" stroke-miterlimit="10"/>
<path d="M30.8431 24.6832C30.8431 24.6832 35.1289 25.6394 35.4461 22.3873C35.7632 19.1353 33.833 18.5021 32.7248 19.388C30.6578 21.0373 33.3274 22.8931 36.6552 22.1395C39.9829 21.3859 40.1147 14.7514 36.9829 16.0496C34.7271 16.9934 38.2629 20.7972 40.8759 18.8317C42.7659 17.4129 42.5831 15.2376 42.5831 15.2376" stroke="#212121" stroke-width="1.5" stroke-miterlimit="10"/>
<defs>
<filter id="filter0_d_18_246" x="0" y="0" width="57" height="57" filterUnits="userSpaceOnUse" color-interpolation-filters="sRGB">
<feFlood flood-opacity="0" result="BackgroundImageFix"/>
<feColorMatrix in="SourceAlpha" type="matrix" values="0 0 0 0 0 0 0 0 0 0 0 0 0 0 0 0 0 0 127 0" result="hardAlpha"/>
<feOffset dy="2"/>
<feGaussianBlur stdDeviation="4"/>
<feComposite in2="hardAlpha" operator="out"/>
<feColorMatrix type="matrix" values="0 0 0 0 0 0 0 0 0 0 0 0 0 0 0 0 0 0 0.2 0"/>
<feBlend mode="normal" in2="BackgroundImageFix" result="effect1_dropShadow_18_246"/>
<feBlend mode="normal" in="SourceGraphic" in2="effect1_dropShadow_18_246" result="shape"/>
</filter>
</defs>
</svg>
