<svg width="66" height="66" viewBox="0 0 66 66" fill="none" xmlns="http://www.w3.org/2000/svg">
<g filter="url(#filter0_d_1_542)">
<circle cx="32.5126" cy="30.7177" r="25.333" fill="white"/>
<circle cx="32.5126" cy="30.7177" r="23.833" stroke="#191919" stroke-width="3"/>
</g>
<path d="M32.7396 16.7574C35.5366 16.7576 37.804 19.0257 37.804 21.8228C37.8038 24.6197 35.5365 26.887 32.7396 26.8873C29.9424 26.8873 27.6744 24.6199 27.6741 21.8228C27.6741 19.0255 29.9423 16.7574 32.7396 16.7574Z" fill="#212121" stroke="#191919" stroke-width="3"/>
<path d="M32.7388 31.6003C36.1555 31.6003 39.175 32.3826 41.2877 33.571C43.4473 34.7858 44.3687 36.2295 44.3687 37.486C44.3687 39.6554 44.2876 40.7239 43.2798 41.5446C42.7181 42.002 41.7486 42.4734 40.0318 42.821C38.3215 43.1672 35.9696 43.3717 32.7388 43.3717C29.508 43.3717 27.1561 43.1672 25.4459 42.821C23.729 42.4734 22.7595 42.002 22.1978 41.5446C21.19 40.7239 21.109 39.6554 21.1089 37.486C21.1089 36.2295 22.0304 34.7858 24.19 33.571C26.3026 32.3826 29.3222 31.6003 32.7388 31.6003Z" fill="#212121" stroke="#191919" stroke-width="3"/>
<defs>
<filter id="filter0_d_1_542" x="6.19888e-06" y="4.64916e-06" width="65.0251" height="65.0251" filterUnits="userSpaceOnUse" color-interpolation-filters="sRGB">
<feFlood flood-opacity="0" result="BackgroundImageFix"/>
<feColorMatrix in="SourceAlpha" type="matrix" values="0 0 0 0 0 0 0 0 0 0 0 0 0 0 0 0 0 0 127 0" result="hardAlpha"/>
<feOffset dy="1.79489"/>
<feGaussianBlur stdDeviation="3.58978"/>
<feComposite in2="hardAlpha" operator="out"/>
<feColorMatrix type="matrix" values="0 0 0 0 0 0 0 0 0 0 0 0 0 0 0 0 0 0 0.1 0"/>
<feBlend mode="normal" in2="BackgroundImageFix" result="effect1_dropShadow_1_542"/>
<feBlend mode="normal" in="SourceGraphic" in2="effect1_dropShadow_1_542" result="shape"/>
</filter>
</defs>
</svg>
