<svg width="243" height="69" viewBox="0 0 243 69" fill="none" xmlns="http://www.w3.org/2000/svg">
<rect x="0.5" y="0.5" width="242" height="68" rx="10.5" fill="white"/>
<rect x="0.5" y="0.5" width="242" height="68" rx="10.5" stroke="#212121"/>
<path d="M25.195 30.4651H25.1788C25.0871 30.6894 24.7634 30.8679 24.4127 31.0372C24.375 31.0555 24.3426 31.0693 24.321 31.083C24.0027 31.2478 23.6737 31.3851 23.35 31.5224L23.2205 31.5773C22.735 31.7833 21.9959 32.0579 21.2028 32.0763C20.3882 32.0946 19.6923 31.8337 19.3039 31.3668C18.8723 30.8541 18.9047 30.1904 19.374 29.751C20.221 28.9638 21.8772 29.1102 22.7242 29.3208C23.2475 29.4489 23.6683 29.5817 24.0567 29.7327C24.0837 29.7419 24.116 29.7556 24.1592 29.7693C24.6231 29.9387 25.0547 30.1081 25.1734 30.3506H25.2112C25.2112 30.3781 25.2112 30.401 25.2004 30.4239C25.2004 30.433 25.2004 30.4468 25.2058 30.4605L25.195 30.4651ZM19.6437 30.2133C19.4765 30.4788 19.5035 30.8221 19.7355 31.1013C20.1401 31.5865 20.8792 31.6231 21.1759 31.614C21.861 31.6002 22.5246 31.3485 22.9615 31.1654L23.091 31.1105C23.4039 30.9777 23.7222 30.8404 24.0243 30.6894C24.0513 30.6756 24.0891 30.6573 24.1322 30.639C24.2941 30.5612 24.4181 30.4925 24.5045 30.4422C24.3966 30.3873 24.2185 30.3095 23.9272 30.2042C23.8787 30.1859 23.8409 30.1721 23.8139 30.163C23.4525 30.0211 23.0533 29.8975 22.5569 29.7739C21.6182 29.5405 20.3397 29.5313 19.7678 30.0714C19.7193 30.1172 19.6761 30.163 19.6437 30.2179V30.2133Z" fill="#212121" stroke="#212121" stroke-width="0.8" stroke-miterlimit="10"/>
<path d="M25.2852 30.3862L24.7511 30.2947C24.7619 30.2489 24.7565 30.2031 24.7457 30.1528L24.6648 30.345C24.4813 30.2901 24.2979 30.2352 24.1145 30.1848C23.3053 29.9514 22.4691 29.7134 21.7408 29.2923C21.0287 28.8803 19.9389 27.91 20.3921 26.8847C20.6403 26.3262 21.4171 26.0608 22.0267 26.134C23.6074 26.3171 24.1684 27.6491 24.6162 28.7247C24.6971 28.9124 24.7727 29.0909 24.8482 29.2602C24.886 29.3335 24.9399 29.4204 24.9992 29.512C25.1665 29.7729 25.3553 30.0658 25.2798 30.3862H25.2852ZM21.0988 26.8114C21.0125 26.8755 20.9478 26.9579 20.9046 27.0494C20.5701 27.8047 21.5088 28.5965 22.0483 28.9124C22.7172 29.2969 23.5157 29.5257 24.2871 29.75C24.3842 29.7775 24.4867 29.8049 24.5838 29.837C24.5623 29.8049 24.5407 29.7729 24.5245 29.7408C24.4598 29.6401 24.395 29.5394 24.3465 29.4342C24.2655 29.2602 24.1846 29.0771 24.1091 28.8849C23.6883 27.8825 23.2082 26.7473 21.9566 26.6009C21.6761 26.5688 21.3254 26.6421 21.0988 26.816V26.8114Z" fill="#212121" stroke="#212121" stroke-width="0.8" stroke-miterlimit="10" stroke-linejoin="bevel"/>
<path d="M25.3302 30.7027H24.7853C24.7853 30.5196 24.8123 30.3457 24.8555 30.1763L24.7745 30.19C24.6882 29.8513 24.4994 29.4577 24.2998 29.0366C23.7387 27.8602 23.0374 26.391 24.4077 25.3886C24.8015 25.1002 25.3302 24.9629 25.8535 25.0086C26.3444 25.0544 26.7706 25.2512 27.0511 25.5671C27.9898 26.6198 27.0943 27.7367 26.4469 28.556L26.3498 28.6796C25.902 29.2426 25.3464 29.9474 25.341 30.6981L25.3302 30.7027ZM25.0281 25.59C24.931 25.6311 24.8447 25.6815 24.7583 25.741C23.6902 26.5237 24.2566 27.7138 24.8015 28.8626C24.9094 29.0915 25.0173 29.3158 25.109 29.5309C25.3248 29.1235 25.6215 28.7528 25.8805 28.4232L25.983 28.2951C26.6034 27.517 27.3047 26.6336 26.6034 25.8463C26.4145 25.6311 26.1232 25.4984 25.7834 25.4664C25.519 25.4435 25.2547 25.4847 25.0227 25.5854L25.0281 25.59Z" fill="#212121" stroke="#212121" stroke-width="0.8" stroke-miterlimit="10"/>
<path d="M37.0505 36.4429H23.4395V44.3294H37.0505V36.4429Z" stroke="#212121" stroke-width="1.8" stroke-miterlimit="10"/>
<path d="M31.0016 26.2336L20.3281 35.2896L22.3601 37.0135L33.0336 27.9576L31.0016 26.2336Z" stroke="#212121" stroke-width="1.8" stroke-miterlimit="10"/>
<path d="M30.2422 36.292V44.3341" stroke="#212121" stroke-width="1.8" stroke-miterlimit="10"/>
<path d="M25.7012 30.8628L27.3767 32.3285" stroke="#212121" stroke-width="1.8" stroke-miterlimit="10"/>
<path d="M31.7983 34.2023C31.7983 34.2023 35.4569 34.902 35.7276 32.5224C35.9984 30.1429 34.3506 29.6796 33.4046 30.3278C31.6401 31.5346 33.919 32.8925 36.7598 32.3411C39.6005 31.7897 39.7131 26.9352 37.0396 27.8851C35.1139 28.5757 38.1322 31.3589 40.3629 29.9208C41.9763 28.8826 41.8202 27.291 41.8202 27.291" stroke="#212121" stroke-width="1.5" stroke-miterlimit="10"/>
<path d="M56.544 29.928H64.096V31.128H61.072V41H59.6V31.128H56.544V29.928ZM68.4001 41.112C67.5681 41.112 66.8215 40.9307 66.1601 40.568C65.4988 40.1947 64.9761 39.672 64.5921 39C64.2081 38.3173 64.0161 37.5227 64.0161 36.616C64.0161 35.688 64.2135 34.888 64.6081 34.216C65.0028 33.544 65.5361 33.0267 66.2081 32.664C66.8801 32.3013 67.6268 32.12 68.4481 32.12C69.2801 32.12 70.0268 32.3013 70.6881 32.664C71.3601 33.0267 71.8935 33.544 72.2881 34.216C72.6828 34.888 72.8801 35.688 72.8801 36.616C72.8801 37.5227 72.6775 38.3173 72.2721 39C71.8775 39.672 71.3388 40.1947 70.6561 40.568C69.9841 40.9307 69.2321 41.112 68.4001 41.112ZM68.4001 39.832C68.9015 39.832 69.3761 39.7147 69.8241 39.48C70.2828 39.2453 70.6561 38.8933 70.9441 38.424C71.2321 37.944 71.3761 37.3413 71.3761 36.616C71.3761 35.88 71.2321 35.2773 70.9441 34.808C70.6668 34.328 70.3041 33.9707 69.8561 33.736C69.4081 33.5013 68.9335 33.384 68.4321 33.384C67.9201 33.384 67.4401 33.5013 66.9921 33.736C66.5548 33.9707 66.1975 34.328 65.9201 34.808C65.6428 35.2773 65.5041 35.88 65.5041 36.616C65.5041 37.3413 65.6375 37.944 65.9041 38.424C66.1815 38.8933 66.5388 39.2453 66.9761 39.48C67.4135 39.7147 67.8881 39.832 68.4001 39.832ZM79.0628 41.112C78.3801 41.112 77.7508 41.0107 77.1748 40.808C76.6094 40.5947 76.1188 40.2907 75.7028 39.896C75.2868 39.5013 74.9668 39.0373 74.7428 38.504C74.5188 37.96 74.4068 37.352 74.4068 36.68C74.4068 36.008 74.5294 35.3947 74.7747 34.84C75.0308 34.2853 75.3721 33.8053 75.7988 33.4C76.2361 32.984 76.7321 32.6693 77.2868 32.456C77.8521 32.232 78.4388 32.12 79.0468 32.12C79.5908 32.12 80.0868 32.1893 80.5348 32.328C80.9828 32.4667 81.3668 32.664 81.6868 32.92C82.0068 33.176 82.2574 33.4693 82.4388 33.8C82.6201 34.1307 82.7108 34.4933 82.7108 34.888C82.7108 35.4427 82.5561 35.9067 82.2468 36.28C81.9374 36.6427 81.5268 36.9307 81.0148 37.144C80.5028 37.3467 79.9374 37.4907 79.3188 37.576C78.7108 37.6507 78.0974 37.6773 77.4788 37.656C77.3081 37.656 77.1214 37.6507 76.9188 37.64C76.7161 37.6293 76.5294 37.6187 76.3588 37.608C76.1881 37.5867 76.0494 37.5707 75.9428 37.56C76.0068 37.976 76.1774 38.36 76.4548 38.712C76.7321 39.064 77.0948 39.3467 77.5428 39.56C78.0014 39.7627 78.5081 39.864 79.0628 39.864C79.4894 39.864 79.8948 39.7893 80.2788 39.64C80.6734 39.48 81.0201 39.2827 81.3188 39.048C81.6281 38.8133 81.8788 38.5733 82.0708 38.328L83.1588 39.144C82.8814 39.5173 82.5348 39.8533 82.1188 40.152C81.7028 40.4507 81.2388 40.6853 80.7268 40.856C80.2148 41.0267 79.6601 41.112 79.0628 41.112ZM77.5108 36.456C77.9374 36.456 78.3694 36.4347 78.8068 36.392C79.2441 36.3387 79.6494 36.2533 80.0228 36.136C80.3961 36.0187 80.6948 35.864 80.9188 35.672C81.1534 35.4693 81.2708 35.2133 81.2708 34.904C81.2708 34.6053 81.1748 34.344 80.9828 34.12C80.8014 33.8853 80.5454 33.704 80.2148 33.576C79.8948 33.4373 79.5321 33.368 79.1268 33.368C78.5188 33.368 77.9694 33.512 77.4788 33.8C76.9988 34.0773 76.6148 34.4453 76.3268 34.904C76.0388 35.3627 75.8841 35.848 75.8628 36.36C76.0441 36.392 76.2788 36.4187 76.5668 36.44C76.8548 36.4507 77.1694 36.456 77.5108 36.456ZM89.0155 45.272C88.2795 45.272 87.6182 45.1493 87.0315 44.904C86.4555 44.6693 85.9595 44.3333 85.5435 43.896C85.1275 43.4587 84.8022 42.9573 84.5675 42.392L85.8955 41.816C86.1835 42.4773 86.5995 43.0053 87.1435 43.4C87.6875 43.7947 88.3115 43.992 89.0155 43.992C89.5595 43.992 90.0395 43.88 90.4555 43.656C90.8715 43.432 91.1968 43.1067 91.4315 42.68C91.6768 42.2533 91.7995 41.7467 91.7995 41.16V39.048C91.5435 39.6773 91.1168 40.1787 90.5195 40.552C89.9222 40.9253 89.2448 41.112 88.4875 41.112C87.7088 41.112 87.0048 40.9253 86.3755 40.552C85.7568 40.168 85.2662 39.64 84.9035 38.968C84.5515 38.2853 84.3755 37.496 84.3755 36.6C84.3755 35.704 84.5515 34.92 84.9035 34.248C85.2662 33.576 85.7568 33.0533 86.3755 32.68C87.0048 32.3067 87.7088 32.12 88.4875 32.12C89.2662 32.12 89.9488 32.3013 90.5355 32.664C91.1222 33.0267 91.5435 33.5227 91.7995 34.152V32.232H93.2715V41.144C93.2715 41.7413 93.1702 42.2907 92.9675 42.792C92.7755 43.2933 92.4928 43.7253 92.1195 44.088C91.7462 44.4613 91.2982 44.7493 90.7755 44.952C90.2528 45.1653 89.6662 45.272 89.0155 45.272ZM88.8395 39.832C89.3728 39.832 89.8635 39.704 90.3115 39.448C90.7595 39.192 91.1168 38.824 91.3835 38.344C91.6608 37.8533 91.7995 37.272 91.7995 36.6C91.7995 35.9173 91.6608 35.3413 91.3835 34.872C91.1168 34.392 90.7595 34.024 90.3115 33.768C89.8635 33.512 89.3728 33.384 88.8395 33.384C88.3062 33.384 87.8102 33.512 87.3515 33.768C86.9035 34.024 86.5408 34.392 86.2635 34.872C85.9968 35.3413 85.8635 35.9173 85.8635 36.6C85.8635 37.272 85.9968 37.8533 86.2635 38.344C86.5408 38.824 86.9035 39.192 87.3515 39.448C87.8102 39.704 88.3062 39.832 88.8395 39.832ZM99.844 41.112C99.1613 41.112 98.532 41.0107 97.956 40.808C97.3907 40.5947 96.9 40.2907 96.484 39.896C96.068 39.5013 95.748 39.0373 95.524 38.504C95.3 37.96 95.188 37.352 95.188 36.68C95.188 36.008 95.3107 35.3947 95.556 34.84C95.812 34.2853 96.1533 33.8053 96.58 33.4C97.0173 32.984 97.5133 32.6693 98.068 32.456C98.6333 32.232 99.22 32.12 99.828 32.12C100.372 32.12 100.868 32.1893 101.316 32.328C101.764 32.4667 102.148 32.664 102.468 32.92C102.788 33.176 103.039 33.4693 103.22 33.8C103.401 34.1307 103.492 34.4933 103.492 34.888C103.492 35.4427 103.337 35.9067 103.028 36.28C102.719 36.6427 102.308 36.9307 101.796 37.144C101.284 37.3467 100.719 37.4907 100.1 37.576C99.492 37.6507 98.8787 37.6773 98.26 37.656C98.0893 37.656 97.9027 37.6507 97.7 37.64C97.4973 37.6293 97.3107 37.6187 97.14 37.608C96.9693 37.5867 96.8307 37.5707 96.724 37.56C96.788 37.976 96.9587 38.36 97.236 38.712C97.5133 39.064 97.876 39.3467 98.324 39.56C98.7827 39.7627 99.2893 39.864 99.844 39.864C100.271 39.864 100.676 39.7893 101.06 39.64C101.455 39.48 101.801 39.2827 102.1 39.048C102.409 38.8133 102.66 38.5733 102.852 38.328L103.94 39.144C103.663 39.5173 103.316 39.8533 102.9 40.152C102.484 40.4507 102.02 40.6853 101.508 40.856C100.996 41.0267 100.441 41.112 99.844 41.112ZM98.292 36.456C98.7187 36.456 99.1507 36.4347 99.588 36.392C100.025 36.3387 100.431 36.2533 100.804 36.136C101.177 36.0187 101.476 35.864 101.7 35.672C101.935 35.4693 102.052 35.2133 102.052 34.904C102.052 34.6053 101.956 34.344 101.764 34.12C101.583 33.8853 101.327 33.704 100.996 33.576C100.676 33.4373 100.313 33.368 99.908 33.368C99.3 33.368 98.7507 33.512 98.26 33.8C97.78 34.0773 97.396 34.4453 97.108 34.904C96.82 35.3627 96.6653 35.848 96.644 36.36C96.8253 36.392 97.06 36.4187 97.348 36.44C97.636 36.4507 97.9507 36.456 98.292 36.456ZM106.245 32.232L108.965 39.64L111.685 32.232H113.237L109.813 41H108.101L104.677 32.232H106.245ZM118.51 41.112C117.678 41.112 116.931 40.9307 116.27 40.568C115.608 40.1947 115.086 39.672 114.702 39C114.318 38.3173 114.126 37.5227 114.126 36.616C114.126 35.688 114.323 34.888 114.718 34.216C115.112 33.544 115.646 33.0267 116.318 32.664C116.99 32.3013 117.736 32.12 118.558 32.12C119.39 32.12 120.136 32.3013 120.798 32.664C121.47 33.0267 122.003 33.544 122.398 34.216C122.792 34.888 122.99 35.688 122.99 36.616C122.99 37.5227 122.787 38.3173 122.382 39C121.987 39.672 121.448 40.1947 120.766 40.568C120.094 40.9307 119.342 41.112 118.51 41.112ZM118.51 39.832C119.011 39.832 119.486 39.7147 119.934 39.48C120.392 39.2453 120.766 38.8933 121.054 38.424C121.342 37.944 121.486 37.3413 121.486 36.616C121.486 35.88 121.342 35.2773 121.054 34.808C120.776 34.328 120.414 33.9707 119.966 33.736C119.518 33.5013 119.043 33.384 118.542 33.384C118.03 33.384 117.55 33.5013 117.102 33.736C116.664 33.9707 116.307 34.328 116.03 34.808C115.752 35.2773 115.614 35.88 115.614 36.616C115.614 37.3413 115.747 37.944 116.014 38.424C116.291 38.8933 116.648 39.2453 117.086 39.48C117.523 39.7147 117.998 39.832 118.51 39.832ZM129.172 41.112C128.489 41.112 127.86 41.0107 127.284 40.808C126.719 40.5947 126.228 40.2907 125.812 39.896C125.396 39.5013 125.076 39.0373 124.852 38.504C124.628 37.96 124.516 37.352 124.516 36.68C124.516 36.008 124.639 35.3947 124.884 34.84C125.14 34.2853 125.481 33.8053 125.908 33.4C126.345 32.984 126.841 32.6693 127.396 32.456C127.961 32.232 128.548 32.12 129.156 32.12C129.7 32.12 130.196 32.1893 130.644 32.328C131.092 32.4667 131.476 32.664 131.796 32.92C132.116 33.176 132.367 33.4693 132.548 33.8C132.729 34.1307 132.82 34.4933 132.82 34.888C132.82 35.4427 132.665 35.9067 132.356 36.28C132.047 36.6427 131.636 36.9307 131.124 37.144C130.612 37.3467 130.047 37.4907 129.428 37.576C128.82 37.6507 128.207 37.6773 127.588 37.656C127.417 37.656 127.231 37.6507 127.028 37.64C126.825 37.6293 126.639 37.6187 126.468 37.608C126.297 37.5867 126.159 37.5707 126.052 37.56C126.116 37.976 126.287 38.36 126.564 38.712C126.841 39.064 127.204 39.3467 127.652 39.56C128.111 39.7627 128.617 39.864 129.172 39.864C129.599 39.864 130.004 39.7893 130.388 39.64C130.783 39.48 131.129 39.2827 131.428 39.048C131.737 38.8133 131.988 38.5733 132.18 38.328L133.268 39.144C132.991 39.5173 132.644 39.8533 132.228 40.152C131.812 40.4507 131.348 40.6853 130.836 40.856C130.324 41.0267 129.769 41.112 129.172 41.112ZM127.62 36.456C128.047 36.456 128.479 36.4347 128.916 36.392C129.353 36.3387 129.759 36.2533 130.132 36.136C130.505 36.0187 130.804 35.864 131.028 35.672C131.263 35.4693 131.38 35.2133 131.38 34.904C131.38 34.6053 131.284 34.344 131.092 34.12C130.911 33.8853 130.655 33.704 130.324 33.576C130.004 33.4373 129.641 33.368 129.236 33.368C128.628 33.368 128.079 33.512 127.588 33.8C127.108 34.0773 126.724 34.4453 126.436 34.904C126.148 35.3627 125.993 35.848 125.972 36.36C126.153 36.392 126.388 36.4187 126.676 36.44C126.964 36.4507 127.279 36.456 127.62 36.456ZM139.125 45.272C138.389 45.272 137.728 45.1493 137.141 44.904C136.565 44.6693 136.069 44.3333 135.653 43.896C135.237 43.4587 134.912 42.9573 134.677 42.392L136.005 41.816C136.293 42.4773 136.709 43.0053 137.253 43.4C137.797 43.7947 138.421 43.992 139.125 43.992C139.669 43.992 140.149 43.88 140.565 43.656C140.981 43.432 141.306 43.1067 141.541 42.68C141.786 42.2533 141.909 41.7467 141.909 41.16V39.048C141.653 39.6773 141.226 40.1787 140.629 40.552C140.032 40.9253 139.354 41.112 138.597 41.112C137.818 41.112 137.114 40.9253 136.485 40.552C135.866 40.168 135.376 39.64 135.013 38.968C134.661 38.2853 134.485 37.496 134.485 36.6C134.485 35.704 134.661 34.92 135.013 34.248C135.376 33.576 135.866 33.0533 136.485 32.68C137.114 32.3067 137.818 32.12 138.597 32.12C139.376 32.12 140.058 32.3013 140.645 32.664C141.232 33.0267 141.653 33.5227 141.909 34.152V32.232H143.381V41.144C143.381 41.7413 143.28 42.2907 143.077 42.792C142.885 43.2933 142.602 43.7253 142.229 44.088C141.856 44.4613 141.408 44.7493 140.885 44.952C140.362 45.1653 139.776 45.272 139.125 45.272ZM138.949 39.832C139.482 39.832 139.973 39.704 140.421 39.448C140.869 39.192 141.226 38.824 141.493 38.344C141.77 37.8533 141.909 37.272 141.909 36.6C141.909 35.9173 141.77 35.3413 141.493 34.872C141.226 34.392 140.869 34.024 140.421 33.768C139.973 33.512 139.482 33.384 138.949 33.384C138.416 33.384 137.92 33.512 137.461 33.768C137.013 34.024 136.65 34.392 136.373 34.872C136.106 35.3413 135.973 35.9173 135.973 36.6C135.973 37.272 136.106 37.8533 136.373 38.344C136.65 38.824 137.013 39.192 137.461 39.448C137.92 39.704 138.416 39.832 138.949 39.832ZM149.409 41.112C148.652 41.112 147.959 40.9253 147.329 40.552C146.711 40.168 146.215 39.64 145.841 38.968C145.479 38.2853 145.297 37.496 145.297 36.6C145.297 35.704 145.479 34.92 145.841 34.248C146.215 33.576 146.711 33.0533 147.329 32.68C147.959 32.3067 148.652 32.12 149.409 32.12C150.188 32.12 150.871 32.3013 151.457 32.664C152.044 33.0267 152.465 33.5227 152.721 34.152V29.16H154.193V41H153.585C153.319 41 153.105 40.9253 152.945 40.776C152.796 40.616 152.721 40.4027 152.721 40.136V39.048C152.465 39.6773 152.039 40.1787 151.441 40.552C150.844 40.9253 150.167 41.112 149.409 41.112ZM149.761 39.832C150.295 39.832 150.785 39.704 151.233 39.448C151.681 39.192 152.039 38.824 152.305 38.344C152.583 37.8533 152.721 37.272 152.721 36.6C152.721 35.9173 152.583 35.3413 152.305 34.872C152.039 34.392 151.681 34.024 151.233 33.768C150.785 33.512 150.295 33.384 149.761 33.384C149.228 33.384 148.732 33.512 148.273 33.768C147.825 34.024 147.463 34.392 147.185 34.872C146.919 35.3413 146.785 35.9173 146.785 36.6C146.785 37.272 146.919 37.8533 147.185 38.344C147.463 38.824 147.825 39.192 148.273 39.448C148.732 39.704 149.228 39.832 149.761 39.832ZM164.488 41.112C163.73 41.112 163.037 40.9253 162.408 40.552C161.789 40.168 161.293 39.64 160.92 38.968C160.557 38.2853 160.376 37.496 160.376 36.6C160.376 35.704 160.557 34.92 160.92 34.248C161.293 33.576 161.789 33.0533 162.408 32.68C163.037 32.3067 163.73 32.12 164.488 32.12C165.266 32.12 165.949 32.3013 166.536 32.664C167.122 33.0267 167.544 33.5227 167.8 34.152V32.232H169.272V41H168.664C168.397 41 168.184 40.9253 168.024 40.776C167.874 40.616 167.8 40.4027 167.8 40.136V39.048C167.533 39.6773 167.101 40.1787 166.504 40.552C165.917 40.9253 165.245 41.112 164.488 41.112ZM164.84 39.832C165.373 39.832 165.864 39.704 166.312 39.448C166.76 39.192 167.117 38.824 167.384 38.344C167.661 37.8533 167.8 37.272 167.8 36.6C167.8 35.9173 167.661 35.3413 167.384 34.872C167.117 34.392 166.76 34.024 166.312 33.768C165.864 33.512 165.373 33.384 164.84 33.384C164.306 33.384 163.81 33.512 163.352 33.768C162.904 34.024 162.541 34.392 162.264 34.872C161.997 35.3413 161.864 35.9173 161.864 36.6C161.864 37.272 161.997 37.8533 162.264 38.344C162.541 38.824 162.904 39.192 163.352 39.448C163.81 39.704 164.306 39.832 164.84 39.832ZM175.3 41.112C174.543 41.112 173.849 40.9253 173.22 40.552C172.601 40.168 172.105 39.64 171.732 38.968C171.369 38.2853 171.188 37.496 171.188 36.6C171.188 35.704 171.369 34.92 171.732 34.248C172.105 33.576 172.601 33.0533 173.22 32.68C173.849 32.3067 174.543 32.12 175.3 32.12C176.079 32.12 176.761 32.3013 177.348 32.664C177.935 33.0267 178.356 33.5227 178.612 34.152V32.232H180.084V41H179.476C179.209 41 178.996 40.9253 178.836 40.776C178.687 40.616 178.612 40.4027 178.612 40.136V39.048C178.345 39.6773 177.913 40.1787 177.316 40.552C176.729 40.9253 176.057 41.112 175.3 41.112ZM175.652 39.832C176.185 39.832 176.676 39.704 177.124 39.448C177.572 39.192 177.929 38.824 178.196 38.344C178.473 37.8533 178.612 37.272 178.612 36.6C178.612 35.9173 178.473 35.3413 178.196 34.872C177.929 34.392 177.572 34.024 177.124 33.768C176.676 33.512 176.185 33.384 175.652 33.384C175.119 33.384 174.623 33.512 174.164 33.768C173.716 34.024 173.353 34.392 173.076 34.872C172.809 35.3413 172.676 35.9173 172.676 36.6C172.676 37.272 172.809 37.8533 173.076 38.344C173.353 38.824 173.716 39.192 174.164 39.448C174.623 39.704 175.119 39.832 175.652 39.832ZM182.561 41V32.232H184.017V34.104C184.155 33.7413 184.369 33.4107 184.657 33.112C184.945 32.8133 185.291 32.5733 185.697 32.392C186.102 32.2107 186.539 32.12 187.009 32.12C187.702 32.12 188.299 32.2747 188.801 32.584C189.313 32.8827 189.707 33.3147 189.985 33.88C190.262 34.4347 190.401 35.0853 190.401 35.832V41H188.961V36.2C188.961 35.3147 188.737 34.6267 188.289 34.136C187.841 33.6347 187.249 33.384 186.513 33.384C186.043 33.384 185.622 33.5173 185.249 33.784C184.875 34.04 184.577 34.3973 184.353 34.856C184.129 35.3147 184.017 35.848 184.017 36.456V41H182.561ZM197.076 39.224V29.16H198.532V39.096C198.532 39.3413 198.601 39.528 198.74 39.656C198.879 39.784 199.044 39.848 199.236 39.848C199.364 39.848 199.481 39.8267 199.588 39.784L199.908 40.872C199.641 41.032 199.321 41.112 198.948 41.112C198.649 41.112 198.356 41.0533 198.068 40.936C197.78 40.808 197.54 40.6053 197.348 40.328C197.167 40.04 197.076 39.672 197.076 39.224ZM201.64 41V32.232H203.096V41H201.64ZM202.376 30.808C202.067 30.808 201.8 30.7067 201.576 30.504C201.352 30.3013 201.24 30.0507 201.24 29.752C201.24 29.4427 201.347 29.1867 201.56 28.984C201.773 28.7813 202.045 28.68 202.376 28.68C202.685 28.68 202.952 28.7813 203.176 28.984C203.4 29.1867 203.512 29.4427 203.512 29.752C203.512 30.0507 203.4 30.3013 203.176 30.504C202.952 30.7067 202.685 30.808 202.376 30.808ZM205.03 45.272C204.785 45.272 204.545 45.2347 204.31 45.16C204.065 45.0853 203.825 44.968 203.59 44.808L204.118 43.688C204.353 43.784 204.572 43.832 204.774 43.832C205.073 43.832 205.313 43.7147 205.494 43.48C205.686 43.2453 205.782 42.9253 205.782 42.52V32.232H207.238V42.776C207.238 43.3093 207.132 43.7627 206.918 44.136C206.716 44.52 206.444 44.8027 206.102 44.984C205.772 45.176 205.414 45.272 205.03 45.272ZM206.486 30.808C206.177 30.808 205.91 30.7067 205.686 30.504C205.462 30.3013 205.35 30.0507 205.35 29.752C205.35 29.4427 205.457 29.1867 205.67 28.984C205.884 28.7813 206.156 28.68 206.486 28.68C206.796 28.68 207.062 28.7813 207.286 28.984C207.51 29.1867 207.622 29.4427 207.622 29.752C207.622 30.0507 207.51 30.3013 207.286 30.504C207.062 30.7067 206.796 30.808 206.486 30.808ZM212.834 41.112C212.194 41.112 211.628 41.0053 211.138 40.792C210.658 40.5787 210.263 40.2853 209.954 39.912C209.655 39.5387 209.452 39.128 209.346 38.68L210.722 38.376C210.828 38.8133 211.063 39.1707 211.426 39.448C211.788 39.7253 212.252 39.864 212.818 39.864C213.404 39.864 213.847 39.7467 214.146 39.512C214.455 39.2667 214.61 38.968 214.61 38.616C214.61 38.2853 214.482 38.0293 214.226 37.848C213.98 37.6667 213.66 37.5173 213.266 37.4C212.871 37.2827 212.45 37.1653 212.002 37.048C211.564 36.9307 211.148 36.7813 210.754 36.6C210.359 36.408 210.039 36.152 209.794 35.832C209.548 35.512 209.426 35.0853 209.426 34.552C209.426 34.0933 209.559 33.6827 209.826 33.32C210.092 32.9573 210.466 32.6693 210.946 32.456C211.436 32.232 212.002 32.12 212.642 32.12C213.26 32.12 213.788 32.2213 214.226 32.424C214.663 32.616 215.015 32.8827 215.282 33.224C215.559 33.5547 215.746 33.9387 215.842 34.376L214.482 34.744C214.386 34.3493 214.188 34.0187 213.89 33.752C213.591 33.4853 213.159 33.352 212.594 33.352C212.06 33.352 211.644 33.464 211.346 33.688C211.047 33.912 210.898 34.1947 210.898 34.536C210.898 34.8773 211.02 35.1493 211.266 35.352C211.522 35.544 211.842 35.6987 212.226 35.816C212.62 35.9333 213.036 36.0507 213.474 36.168C213.911 36.2853 214.322 36.4347 214.706 36.616C215.1 36.7973 215.42 37.048 215.666 37.368C215.922 37.6773 216.05 38.088 216.05 38.6C216.05 39.0693 215.916 39.496 215.65 39.88C215.383 40.2533 215.01 40.552 214.53 40.776C214.05 41 213.484 41.112 212.834 41.112ZM220.782 41.112C220.174 41.112 219.662 40.9093 219.246 40.504C218.841 40.088 218.638 39.5493 218.638 38.888V33.432H217.15V32.232H222.126V33.432H220.11V38.936C220.11 39.2133 220.185 39.4267 220.334 39.576C220.494 39.7253 220.686 39.8 220.91 39.8C221.06 39.8 221.198 39.7733 221.326 39.72C221.465 39.656 221.593 39.576 221.71 39.48L222.446 40.488C222.212 40.7013 221.956 40.8613 221.678 40.968C221.401 41.064 221.102 41.112 220.782 41.112ZM217.934 32.856V32.232C218.158 32.232 218.329 32.168 218.446 32.04C218.574 31.912 218.638 31.736 218.638 31.512V30.04H220.126V31.256C220.126 31.4053 220.094 31.5493 220.03 31.688C219.966 31.816 219.876 31.928 219.758 32.024C219.652 32.12 219.518 32.1893 219.358 32.232L217.934 32.856Z" fill="#212121"/>
</svg>
