<svg width="361" height="349" viewBox="0 0 361 349" fill="none" xmlns="http://www.w3.org/2000/svg">
<rect x="0.5" y="0.5" width="360" height="348" rx="33.5" fill="white" stroke="#D9D9D9"/>
<path d="M97.9891 30V18.88H101.621C102.816 18.88 103.85 19.1093 104.725 19.568C105.61 20.016 106.298 20.6613 106.789 21.504C107.28 22.336 107.525 23.328 107.525 24.48C107.525 25.6213 107.28 26.608 106.789 27.44C106.298 28.2613 105.61 28.896 104.725 29.344C103.85 29.7813 102.816 30 101.621 30H97.9891ZM99.8131 28.512H101.621C102.933 28.512 103.93 28.1547 104.613 27.44C105.306 26.7253 105.653 25.7387 105.653 24.48C105.653 23.2107 105.306 22.208 104.613 21.472C103.93 20.736 102.933 20.368 101.621 20.368H99.8131V28.512ZM113.157 30.112C112.325 30.112 111.573 29.9253 110.901 29.552C110.239 29.1787 109.711 28.6507 109.317 27.968C108.933 27.2853 108.741 26.4907 108.741 25.584C108.741 24.6667 108.938 23.872 109.333 23.2C109.738 22.528 110.282 22.0053 110.965 21.632C111.647 21.2587 112.405 21.072 113.237 21.072C114.079 21.072 114.837 21.2587 115.509 21.632C116.191 22.0053 116.73 22.528 117.125 23.2C117.53 23.872 117.733 24.6667 117.733 25.584C117.733 26.4907 117.525 27.2853 117.109 27.968C116.703 28.6507 116.154 29.1787 115.461 29.552C114.767 29.9253 113.999 30.112 113.157 30.112ZM113.157 28.528C113.615 28.528 114.047 28.4213 114.453 28.208C114.869 27.984 115.205 27.6533 115.461 27.216C115.727 26.7787 115.861 26.2347 115.861 25.584C115.861 24.9227 115.733 24.3787 115.477 23.952C115.221 23.5147 114.89 23.1893 114.485 22.976C114.09 22.7627 113.663 22.656 113.205 22.656C112.746 22.656 112.319 22.7627 111.925 22.976C111.53 23.1893 111.21 23.5147 110.965 23.952C110.719 24.3787 110.597 24.9227 110.597 25.584C110.597 26.2347 110.714 26.7787 110.949 27.216C111.183 27.6533 111.493 27.984 111.877 28.208C112.271 28.4213 112.698 28.528 113.157 28.528ZM123.516 30.112C122.684 30.112 121.932 29.9253 121.26 29.552C120.599 29.1787 120.071 28.6507 119.676 27.968C119.292 27.2853 119.1 26.4907 119.1 25.584C119.1 24.6667 119.298 23.872 119.692 23.2C120.098 22.528 120.642 22.0053 121.324 21.632C122.007 21.2587 122.764 21.072 123.596 21.072C124.439 21.072 125.196 21.2587 125.868 21.632C126.551 22.0053 127.09 22.528 127.484 23.2C127.89 23.872 128.092 24.6667 128.092 25.584C128.092 26.4907 127.884 27.2853 127.468 27.968C127.063 28.6507 126.514 29.1787 125.82 29.552C125.127 29.9253 124.359 30.112 123.516 30.112ZM123.516 28.528C123.975 28.528 124.407 28.4213 124.812 28.208C125.228 27.984 125.564 27.6533 125.82 27.216C126.087 26.7787 126.22 26.2347 126.22 25.584C126.22 24.9227 126.092 24.3787 125.836 23.952C125.58 23.5147 125.25 23.1893 124.844 22.976C124.45 22.7627 124.023 22.656 123.564 22.656C123.106 22.656 122.679 22.7627 122.284 22.976C121.89 23.1893 121.57 23.5147 121.324 23.952C121.079 24.3787 120.956 24.9227 120.956 25.584C120.956 26.2347 121.074 26.7787 121.308 27.216C121.543 27.6533 121.852 27.984 122.236 28.208C122.631 28.4213 123.058 28.528 123.516 28.528ZM129.895 30V21.184H131.719V23.024C131.858 22.6507 132.071 22.32 132.359 22.032C132.658 21.7333 132.994 21.4987 133.367 21.328C133.751 21.1573 134.13 21.072 134.503 21.072C135.335 21.072 136.034 21.2907 136.599 21.728C137.165 22.1653 137.517 22.7467 137.655 23.472C137.783 23.0133 137.997 22.608 138.295 22.256C138.594 21.8933 138.951 21.6053 139.367 21.392C139.794 21.1787 140.253 21.072 140.743 21.072C141.778 21.072 142.61 21.392 143.239 22.032C143.879 22.6613 144.199 23.5947 144.199 24.832V30H142.391V25.264C142.391 24.4533 142.189 23.8187 141.783 23.36C141.378 22.8907 140.845 22.656 140.183 22.656C139.511 22.656 138.973 22.9173 138.567 23.44C138.162 23.9627 137.959 24.624 137.959 25.424V30H136.151V25.264C136.151 24.4533 135.949 23.8187 135.543 23.36C135.138 22.8907 134.605 22.656 133.943 22.656C133.495 22.656 133.106 22.7787 132.775 23.024C132.445 23.2587 132.183 23.584 131.991 24C131.81 24.416 131.719 24.8907 131.719 25.424V30H129.895ZM153.637 30.112C152.965 30.112 152.405 29.8827 151.957 29.424C151.509 28.9653 151.285 28.3413 151.285 27.552V22.672H149.925V21.184H155.269V22.672H153.125V27.664C153.125 27.9627 153.199 28.176 153.349 28.304C153.509 28.432 153.679 28.496 153.861 28.496C154.021 28.496 154.165 28.4693 154.293 28.416C154.421 28.3627 154.543 28.2773 154.661 28.16L155.605 29.296C155.306 29.584 155.002 29.792 154.693 29.92C154.383 30.048 154.031 30.112 153.637 30.112ZM150.581 21.872V21.184C150.805 21.184 150.975 21.12 151.093 20.992C151.221 20.864 151.285 20.688 151.285 20.464V18.992H153.125V20.16C153.125 20.3093 153.087 20.4587 153.013 20.608C152.938 20.7467 152.831 20.8693 152.693 20.976C152.565 21.072 152.421 21.1413 152.261 21.184L150.581 21.872ZM160.954 30.112C160.122 30.112 159.37 29.9253 158.698 29.552C158.036 29.1787 157.508 28.6507 157.114 27.968C156.73 27.2853 156.538 26.4907 156.538 25.584C156.538 24.6667 156.735 23.872 157.13 23.2C157.535 22.528 158.079 22.0053 158.762 21.632C159.444 21.2587 160.202 21.072 161.034 21.072C161.876 21.072 162.634 21.2587 163.306 21.632C163.988 22.0053 164.527 22.528 164.922 23.2C165.327 23.872 165.53 24.6667 165.53 25.584C165.53 26.4907 165.322 27.2853 164.906 27.968C164.5 28.6507 163.951 29.1787 163.258 29.552C162.564 29.9253 161.796 30.112 160.954 30.112ZM160.954 28.528C161.412 28.528 161.844 28.4213 162.25 28.208C162.666 27.984 163.002 27.6533 163.258 27.216C163.524 26.7787 163.658 26.2347 163.658 25.584C163.658 24.9227 163.53 24.3787 163.274 23.952C163.018 23.5147 162.687 23.1893 162.282 22.976C161.887 22.7627 161.46 22.656 161.002 22.656C160.543 22.656 160.116 22.7627 159.722 22.976C159.327 23.1893 159.007 23.5147 158.762 23.952C158.516 24.3787 158.394 24.9227 158.394 25.584C158.394 26.2347 158.511 26.7787 158.746 27.216C158.98 27.6533 159.29 27.984 159.674 28.208C160.068 28.4213 160.495 28.528 160.954 28.528ZM176.417 30.112C175.702 30.112 175.068 29.9307 174.513 29.568C173.969 29.2053 173.574 28.7093 173.329 28.08V28.976C173.329 29.2747 173.233 29.52 173.041 29.712C172.86 29.904 172.614 30 172.305 30H171.489V18.16H173.329V23.088C173.574 22.4587 173.969 21.968 174.513 21.616C175.068 21.2533 175.702 21.072 176.417 21.072C177.185 21.072 177.878 21.2587 178.497 21.632C179.126 22.0053 179.622 22.5333 179.985 23.216C180.358 23.888 180.545 24.6773 180.545 25.584C180.545 26.4907 180.358 27.2853 179.985 27.968C179.622 28.64 179.126 29.168 178.497 29.552C177.878 29.9253 177.185 30.112 176.417 30.112ZM176.001 28.528C176.46 28.528 176.892 28.416 177.297 28.192C177.702 27.968 178.033 27.6373 178.289 27.2C178.545 26.752 178.673 26.2133 178.673 25.584C178.673 24.944 178.545 24.4107 178.289 23.984C178.033 23.5467 177.702 23.216 177.297 22.992C176.892 22.768 176.46 22.656 176.001 22.656C175.553 22.656 175.121 22.768 174.705 22.992C174.3 23.216 173.969 23.5467 173.713 23.984C173.457 24.4107 173.329 24.944 173.329 25.584C173.329 26.2133 173.457 26.752 173.713 27.2C173.969 27.6373 174.3 27.968 174.705 28.192C175.121 28.416 175.553 28.528 176.001 28.528ZM186.601 30.112C185.886 30.112 185.235 30 184.649 29.776C184.073 29.552 183.577 29.2373 183.161 28.832C182.755 28.4267 182.441 27.9573 182.217 27.424C182.003 26.88 181.897 26.288 181.897 25.648C181.897 24.9547 182.019 24.3307 182.265 23.776C182.521 23.2107 182.862 22.7253 183.289 22.32C183.726 21.9147 184.227 21.6053 184.793 21.392C185.358 21.1787 185.95 21.072 186.569 21.072C187.123 21.072 187.63 21.1467 188.089 21.296C188.547 21.4453 188.942 21.6533 189.273 21.92C189.614 22.1867 189.875 22.496 190.057 22.848C190.238 23.2 190.329 23.5787 190.329 23.984C190.329 24.5493 190.163 25.0187 189.833 25.392C189.502 25.7653 189.07 26.0587 188.537 26.272C188.003 26.4853 187.417 26.6293 186.777 26.704C186.137 26.7787 185.502 26.8 184.873 26.768C184.766 26.7573 184.633 26.752 184.473 26.752C184.313 26.7413 184.169 26.736 184.041 26.736C183.923 26.7253 183.859 26.72 183.849 26.72C183.923 27.072 184.089 27.392 184.345 27.68C184.611 27.9573 184.942 28.176 185.337 28.336C185.731 28.496 186.153 28.576 186.601 28.576C186.963 28.576 187.321 28.512 187.673 28.384C188.035 28.256 188.366 28.08 188.665 27.856C188.963 27.632 189.214 27.376 189.417 27.088L190.777 28.064C190.425 28.5333 190.025 28.9227 189.577 29.232C189.139 29.5307 188.67 29.7547 188.169 29.904C187.667 30.0427 187.145 30.112 186.601 30.112ZM185.033 25.312C185.427 25.312 185.827 25.296 186.233 25.264C186.638 25.2213 187.011 25.152 187.353 25.056C187.705 24.9493 187.987 24.8053 188.201 24.624C188.414 24.4427 188.521 24.208 188.521 23.92C188.521 23.6747 188.441 23.456 188.281 23.264C188.131 23.0613 187.918 22.9013 187.641 22.784C187.363 22.6667 187.038 22.608 186.665 22.608C186.11 22.608 185.614 22.7307 185.177 22.976C184.739 23.2213 184.393 23.5467 184.137 23.952C183.891 24.3573 183.758 24.7947 183.737 25.264C183.886 25.2747 184.073 25.2853 184.297 25.296C184.521 25.3067 184.766 25.312 185.033 25.312ZM116.558 52.112C115.886 52.112 115.326 51.8827 114.878 51.424C114.43 50.9653 114.206 50.3413 114.206 49.552V44.672H112.846V43.184H118.19V44.672H116.046V49.664C116.046 49.9627 116.121 50.176 116.27 50.304C116.43 50.432 116.601 50.496 116.782 50.496C116.942 50.496 117.086 50.4693 117.214 50.416C117.342 50.3627 117.465 50.2773 117.582 50.16L118.526 51.296C118.228 51.584 117.924 51.792 117.614 51.92C117.305 52.048 116.953 52.112 116.558 52.112ZM113.502 43.872V43.184C113.726 43.184 113.897 43.12 114.014 42.992C114.142 42.864 114.206 42.688 114.206 42.464V40.992H116.046V42.16C116.046 42.3093 116.009 42.4587 115.934 42.608C115.86 42.7467 115.753 42.8693 115.614 42.976C115.486 43.072 115.342 43.1413 115.182 43.184L113.502 43.872ZM120.208 52V43.184H122.032V52H120.208ZM121.504 47.552L122.032 45.12C122.245 44.4907 122.592 43.9947 123.072 43.632C123.562 43.2587 124.117 43.072 124.736 43.072V44.96C124.65 44.9387 124.565 44.928 124.48 44.928C124.405 44.9173 124.325 44.912 124.24 44.912C123.802 44.912 123.418 45.0133 123.088 45.216C122.757 45.408 122.496 45.7013 122.304 46.096C122.122 46.48 122.032 46.9653 122.032 47.552H121.504ZM129.931 52.112C129.163 52.112 128.464 51.9253 127.835 51.552C127.216 51.168 126.72 50.64 126.347 49.968C125.984 49.2853 125.803 48.4907 125.803 47.584C125.803 46.6773 125.984 45.888 126.347 45.216C126.72 44.5333 127.216 44.0053 127.835 43.632C128.464 43.2587 129.163 43.072 129.931 43.072C130.656 43.072 131.291 43.2533 131.835 43.616C132.379 43.968 132.774 44.4587 133.019 45.088V43.184H134.859V52H134.043C133.744 52 133.499 51.904 133.307 51.712C133.115 51.52 133.019 51.2747 133.019 50.976V50.08C132.774 50.7093 132.379 51.2053 131.835 51.568C131.291 51.9307 130.656 52.112 129.931 52.112ZM130.347 50.528C130.806 50.528 131.238 50.416 131.643 50.192C132.048 49.968 132.379 49.6373 132.635 49.2C132.891 48.752 133.019 48.2133 133.019 47.584C133.019 46.944 132.891 46.4107 132.635 45.984C132.379 45.5467 132.048 45.216 131.643 44.992C131.238 44.768 130.806 44.656 130.347 44.656C129.899 44.656 129.467 44.768 129.051 44.992C128.646 45.216 128.315 45.5467 128.059 45.984C127.803 46.4107 127.675 46.944 127.675 47.584C127.675 48.2133 127.803 48.752 128.059 49.2C128.315 49.6373 128.646 49.968 129.051 50.192C129.467 50.416 129.899 50.528 130.347 50.528ZM140.311 52.112C139.692 52.112 139.137 52.0053 138.647 51.792C138.156 51.568 137.751 51.2693 137.431 50.896C137.111 50.5227 136.892 50.1173 136.775 49.68L138.519 49.296C138.625 49.6907 138.839 50.0053 139.159 50.24C139.489 50.464 139.863 50.576 140.279 50.576C140.812 50.576 141.212 50.48 141.479 50.288C141.756 50.0853 141.895 49.8347 141.895 49.536C141.895 49.248 141.772 49.024 141.527 48.864C141.281 48.704 140.961 48.5707 140.567 48.464C140.183 48.3573 139.772 48.2453 139.335 48.128C138.897 48.0107 138.481 47.856 138.087 47.664C137.703 47.472 137.388 47.216 137.143 46.896C136.897 46.5653 136.775 46.1333 136.775 45.6C136.775 45.1307 136.913 44.704 137.191 44.32C137.468 43.936 137.857 43.632 138.359 43.408C138.871 43.184 139.473 43.072 140.167 43.072C140.764 43.072 141.292 43.168 141.751 43.36C142.209 43.552 142.588 43.824 142.887 44.176C143.185 44.5173 143.388 44.928 143.495 45.408L141.751 45.856C141.644 45.4507 141.457 45.1413 141.191 44.928C140.924 44.7147 140.561 44.608 140.103 44.608C139.612 44.608 139.239 44.6987 138.983 44.88C138.737 45.0507 138.615 45.2853 138.615 45.584C138.615 45.872 138.737 46.1013 138.983 46.272C139.228 46.432 139.543 46.5707 139.927 46.688C140.311 46.7947 140.716 46.9067 141.143 47.024C141.58 47.1413 141.991 47.296 142.375 47.488C142.759 47.6693 143.073 47.9253 143.319 48.256C143.564 48.576 143.687 48.9973 143.687 49.52C143.687 49.9787 143.548 50.4053 143.271 50.8C143.004 51.1947 142.615 51.5147 142.103 51.76C141.601 51.9947 141.004 52.112 140.311 52.112ZM145.661 52V40.16H147.485V45.024C147.624 44.6507 147.842 44.32 148.141 44.032C148.44 43.7333 148.781 43.4987 149.165 43.328C149.56 43.1573 149.954 43.072 150.349 43.072C151.021 43.072 151.608 43.2213 152.109 43.52C152.621 43.808 153.016 44.2293 153.293 44.784C153.581 45.3387 153.725 46.0107 153.725 46.8V52H151.917V47.232C151.917 46.432 151.714 45.8027 151.309 45.344C150.904 44.8853 150.37 44.656 149.709 44.656C149.282 44.656 148.898 44.7733 148.557 45.008C148.226 45.2427 147.965 45.568 147.773 45.984C147.581 46.3893 147.485 46.8587 147.485 47.392V52H145.661ZM160.148 52.112C159.433 52.112 158.782 52 158.196 51.776C157.62 51.552 157.124 51.2373 156.708 50.832C156.302 50.4267 155.988 49.9573 155.764 49.424C155.55 48.88 155.444 48.288 155.444 47.648C155.444 46.9547 155.566 46.3307 155.812 45.776C156.068 45.2107 156.409 44.7253 156.836 44.32C157.273 43.9147 157.774 43.6053 158.34 43.392C158.905 43.1787 159.497 43.072 160.116 43.072C160.67 43.072 161.177 43.1467 161.636 43.296C162.094 43.4453 162.489 43.6533 162.82 43.92C163.161 44.1867 163.422 44.496 163.604 44.848C163.785 45.2 163.876 45.5787 163.876 45.984C163.876 46.5493 163.71 47.0187 163.38 47.392C163.049 47.7653 162.617 48.0587 162.084 48.272C161.55 48.4853 160.964 48.6293 160.324 48.704C159.684 48.7787 159.049 48.8 158.42 48.768C158.313 48.7573 158.18 48.752 158.02 48.752C157.86 48.7413 157.716 48.736 157.588 48.736C157.47 48.7253 157.406 48.72 157.396 48.72C157.47 49.072 157.636 49.392 157.892 49.68C158.158 49.9573 158.489 50.176 158.884 50.336C159.278 50.496 159.7 50.576 160.148 50.576C160.51 50.576 160.868 50.512 161.22 50.384C161.582 50.256 161.913 50.08 162.212 49.856C162.51 49.632 162.761 49.376 162.964 49.088L164.324 50.064C163.972 50.5333 163.572 50.9227 163.124 51.232C162.686 51.5307 162.217 51.7547 161.716 51.904C161.214 52.0427 160.692 52.112 160.148 52.112ZM158.58 47.312C158.974 47.312 159.374 47.296 159.78 47.264C160.185 47.2213 160.558 47.152 160.9 47.056C161.252 46.9493 161.534 46.8053 161.748 46.624C161.961 46.4427 162.068 46.208 162.068 45.92C162.068 45.6747 161.988 45.456 161.828 45.264C161.678 45.0613 161.465 44.9013 161.188 44.784C160.91 44.6667 160.585 44.608 160.212 44.608C159.657 44.608 159.161 44.7307 158.724 44.976C158.286 45.2213 157.94 45.5467 157.684 45.952C157.438 46.3573 157.305 46.7947 157.284 47.264C157.433 47.2747 157.62 47.2853 157.844 47.296C158.068 47.3067 158.313 47.312 158.58 47.312ZM169.478 52.112C168.71 52.112 168.011 51.9253 167.382 51.552C166.763 51.168 166.267 50.64 165.894 49.968C165.531 49.2853 165.35 48.4907 165.35 47.584C165.35 46.6773 165.531 45.888 165.894 45.216C166.267 44.5333 166.763 44.0053 167.382 43.632C168.011 43.2587 168.71 43.072 169.478 43.072C170.203 43.072 170.838 43.2533 171.382 43.616C171.926 43.968 172.32 44.4587 172.566 45.088V40.16H174.406V52H173.59C173.291 52 173.046 51.904 172.854 51.712C172.662 51.52 172.566 51.2747 172.566 50.976V50.08C172.32 50.7093 171.926 51.2053 171.382 51.568C170.838 51.9307 170.203 52.112 169.478 52.112ZM169.894 50.528C170.352 50.528 170.784 50.416 171.19 50.192C171.595 49.968 171.926 49.6373 172.182 49.2C172.438 48.752 172.566 48.2133 172.566 47.584C172.566 46.944 172.438 46.4107 172.182 45.984C171.926 45.5467 171.595 45.216 171.19 44.992C170.784 44.768 170.352 44.656 169.894 44.656C169.446 44.656 169.014 44.768 168.598 44.992C168.192 45.216 167.862 45.5467 167.606 45.984C167.35 46.4107 167.222 46.944 167.222 47.584C167.222 48.2133 167.35 48.752 167.606 49.2C167.862 49.6373 168.192 49.968 168.598 50.192C169.014 50.416 169.446 50.528 169.894 50.528Z" fill="black"/>
<path d="M224.304 146.112C223.568 146.112 222.906 145.973 222.32 145.696C221.744 145.408 221.274 145.019 220.912 144.528C220.56 144.037 220.346 143.472 220.272 142.832L222.192 142.48C222.309 143.12 222.554 143.621 222.928 143.984C223.301 144.347 223.76 144.528 224.304 144.528C224.944 144.528 225.434 144.384 225.776 144.096C226.128 143.808 226.304 143.429 226.304 142.96C226.304 142.576 226.197 142.272 225.984 142.048C225.77 141.824 225.488 141.643 225.136 141.504C224.784 141.365 224.4 141.248 223.984 141.152C223.568 141.045 223.146 140.928 222.72 140.8C222.304 140.661 221.92 140.48 221.568 140.256C221.216 140.032 220.933 139.739 220.72 139.376C220.506 139.003 220.4 138.523 220.4 137.936C220.4 137.285 220.56 136.725 220.88 136.256C221.2 135.776 221.648 135.408 222.224 135.152C222.8 134.896 223.466 134.768 224.224 134.768C224.853 134.768 225.44 134.896 225.984 135.152C226.528 135.408 226.976 135.749 227.328 136.176C227.68 136.603 227.882 137.077 227.936 137.6L226.064 138.08C225.957 137.525 225.733 137.093 225.392 136.784C225.05 136.475 224.629 136.32 224.128 136.32C223.776 136.32 223.456 136.379 223.168 136.496C222.89 136.603 222.666 136.768 222.496 136.992C222.336 137.216 222.256 137.509 222.256 137.872C222.256 138.224 222.362 138.512 222.576 138.736C222.789 138.949 223.072 139.125 223.424 139.264C223.776 139.392 224.16 139.509 224.576 139.616C224.992 139.723 225.408 139.845 225.824 139.984C226.24 140.123 226.624 140.309 226.976 140.544C227.328 140.768 227.61 141.067 227.824 141.44C228.037 141.813 228.144 142.288 228.144 142.864C228.144 143.419 227.994 143.947 227.696 144.448C227.408 144.939 226.976 145.339 226.4 145.648C225.834 145.957 225.136 146.112 224.304 146.112ZM230.201 146V137.184H232.025V146H230.201ZM231.129 136.016C230.745 136.016 230.42 135.893 230.153 135.648C229.886 135.403 229.753 135.099 229.753 134.736C229.753 134.373 229.886 134.069 230.153 133.824C230.42 133.568 230.745 133.44 231.129 133.44C231.502 133.44 231.822 133.568 232.089 133.824C232.366 134.069 232.505 134.373 232.505 134.736C232.505 135.099 232.366 135.403 232.089 135.648C231.822 135.893 231.502 136.016 231.129 136.016ZM234.513 146V137.184H236.337V139.024C236.475 138.651 236.694 138.32 236.993 138.032C237.291 137.733 237.633 137.499 238.017 137.328C238.411 137.157 238.806 137.072 239.201 137.072C239.873 137.072 240.459 137.221 240.961 137.52C241.473 137.808 241.867 138.229 242.145 138.784C242.433 139.339 242.577 140.011 242.577 140.8V146H240.769V141.232C240.769 140.432 240.566 139.803 240.161 139.344C239.755 138.885 239.222 138.656 238.561 138.656C238.134 138.656 237.75 138.773 237.409 139.008C237.078 139.243 236.817 139.568 236.625 139.984C236.433 140.389 236.337 140.859 236.337 141.392V146H234.513ZM248.615 146.112C247.772 146.112 247.026 145.925 246.375 145.552C245.724 145.179 245.212 144.651 244.839 143.968C244.476 143.285 244.295 142.491 244.295 141.584C244.295 140.667 244.476 139.872 244.839 139.2C245.212 138.528 245.724 138.005 246.375 137.632C247.026 137.259 247.772 137.072 248.615 137.072C249.127 137.072 249.591 137.125 250.007 137.232C250.434 137.339 250.807 137.504 251.127 137.728C251.458 137.941 251.74 138.219 251.975 138.56C252.22 138.891 252.423 139.285 252.583 139.744L250.839 140.304C250.636 139.739 250.348 139.317 249.975 139.04C249.602 138.752 249.148 138.608 248.615 138.608C248.124 138.608 247.692 138.725 247.319 138.96C246.956 139.184 246.674 139.52 246.471 139.968C246.268 140.405 246.167 140.944 246.167 141.584C246.167 142.213 246.268 142.752 246.471 143.2C246.674 143.648 246.956 143.989 247.319 144.224C247.692 144.459 248.124 144.576 248.615 144.576C249.234 144.576 249.74 144.411 250.135 144.08C250.53 143.739 250.812 143.28 250.983 142.704L252.679 143.104C252.519 143.659 252.263 144.165 251.911 144.624C251.57 145.083 251.127 145.445 250.583 145.712C250.05 145.979 249.394 146.112 248.615 146.112ZM258.593 146.112C257.878 146.112 257.228 146 256.641 145.776C256.065 145.552 255.569 145.237 255.153 144.832C254.748 144.427 254.433 143.957 254.209 143.424C253.996 142.88 253.889 142.288 253.889 141.648C253.889 140.955 254.012 140.331 254.257 139.776C254.513 139.211 254.854 138.725 255.281 138.32C255.718 137.915 256.22 137.605 256.785 137.392C257.35 137.179 257.942 137.072 258.561 137.072C259.116 137.072 259.622 137.147 260.081 137.296C260.54 137.445 260.934 137.653 261.265 137.92C261.606 138.187 261.868 138.496 262.049 138.848C262.23 139.2 262.321 139.579 262.321 139.984C262.321 140.549 262.156 141.019 261.825 141.392C261.494 141.765 261.062 142.059 260.529 142.272C259.996 142.485 259.409 142.629 258.769 142.704C258.129 142.779 257.494 142.8 256.865 142.768C256.758 142.757 256.625 142.752 256.465 142.752C256.305 142.741 256.161 142.736 256.033 142.736C255.916 142.725 255.852 142.72 255.841 142.72C255.916 143.072 256.081 143.392 256.337 143.68C256.604 143.957 256.934 144.176 257.329 144.336C257.724 144.496 258.145 144.576 258.593 144.576C258.956 144.576 259.313 144.512 259.665 144.384C260.028 144.256 260.358 144.08 260.657 143.856C260.956 143.632 261.206 143.376 261.409 143.088L262.769 144.064C262.417 144.533 262.017 144.923 261.569 145.232C261.132 145.531 260.662 145.755 260.161 145.904C259.66 146.043 259.137 146.112 258.593 146.112ZM257.025 141.312C257.42 141.312 257.82 141.296 258.225 141.264C258.63 141.221 259.004 141.152 259.345 141.056C259.697 140.949 259.98 140.805 260.193 140.624C260.406 140.443 260.513 140.208 260.513 139.92C260.513 139.675 260.433 139.456 260.273 139.264C260.124 139.061 259.91 138.901 259.633 138.784C259.356 138.667 259.03 138.608 258.657 138.608C258.102 138.608 257.606 138.731 257.169 138.976C256.732 139.221 256.385 139.547 256.129 139.952C255.884 140.357 255.75 140.795 255.729 141.264C255.878 141.275 256.065 141.285 256.289 141.296C256.513 141.307 256.758 141.312 257.025 141.312ZM267.519 137.184H269.375L271.519 145.424H270.911L273.087 137.184H274.991L277.087 145.424H276.479L278.607 137.184H280.399L277.663 146H275.743L273.615 138.176H274.335L272.191 146H270.271L267.519 137.184ZM281.763 146V134.16H283.587V139.024C283.725 138.651 283.944 138.32 284.243 138.032C284.541 137.733 284.883 137.499 285.267 137.328C285.661 137.157 286.056 137.072 286.451 137.072C287.123 137.072 287.709 137.221 288.211 137.52C288.723 137.808 289.117 138.229 289.395 138.784C289.683 139.339 289.827 140.011 289.827 140.8V146H288.019V141.232C288.019 140.432 287.816 139.803 287.411 139.344C287.005 138.885 286.472 138.656 285.811 138.656C285.384 138.656 285 138.773 284.659 139.008C284.328 139.243 284.067 139.568 283.875 139.984C283.683 140.389 283.587 140.859 283.587 141.392V146H281.763ZM296.249 146.112C295.534 146.112 294.884 146 294.297 145.776C293.721 145.552 293.225 145.237 292.809 144.832C292.404 144.427 292.089 143.957 291.865 143.424C291.652 142.88 291.545 142.288 291.545 141.648C291.545 140.955 291.668 140.331 291.913 139.776C292.169 139.211 292.51 138.725 292.937 138.32C293.374 137.915 293.876 137.605 294.441 137.392C295.006 137.179 295.598 137.072 296.217 137.072C296.772 137.072 297.278 137.147 297.737 137.296C298.196 137.445 298.59 137.653 298.921 137.92C299.262 138.187 299.524 138.496 299.705 138.848C299.886 139.2 299.977 139.579 299.977 139.984C299.977 140.549 299.812 141.019 299.481 141.392C299.15 141.765 298.718 142.059 298.185 142.272C297.652 142.485 297.065 142.629 296.425 142.704C295.785 142.779 295.15 142.8 294.521 142.768C294.414 142.757 294.281 142.752 294.121 142.752C293.961 142.741 293.817 142.736 293.689 142.736C293.572 142.725 293.508 142.72 293.497 142.72C293.572 143.072 293.737 143.392 293.993 143.68C294.26 143.957 294.59 144.176 294.985 144.336C295.38 144.496 295.801 144.576 296.249 144.576C296.612 144.576 296.969 144.512 297.321 144.384C297.684 144.256 298.014 144.08 298.313 143.856C298.612 143.632 298.862 143.376 299.065 143.088L300.425 144.064C300.073 144.533 299.673 144.923 299.225 145.232C298.788 145.531 298.318 145.755 297.817 145.904C297.316 146.043 296.793 146.112 296.249 146.112ZM294.681 141.312C295.076 141.312 295.476 141.296 295.881 141.264C296.286 141.221 296.66 141.152 297.001 141.056C297.353 140.949 297.636 140.805 297.849 140.624C298.062 140.443 298.169 140.208 298.169 139.92C298.169 139.675 298.089 139.456 297.929 139.264C297.78 139.061 297.566 138.901 297.289 138.784C297.012 138.667 296.686 138.608 296.313 138.608C295.758 138.608 295.262 138.731 294.825 138.976C294.388 139.221 294.041 139.547 293.785 139.952C293.54 140.357 293.406 140.795 293.385 141.264C293.534 141.275 293.721 141.285 293.945 141.296C294.169 141.307 294.414 141.312 294.681 141.312ZM302.059 146V137.184H303.883V139.024C304.022 138.651 304.241 138.32 304.539 138.032C304.838 137.733 305.179 137.499 305.563 137.328C305.958 137.157 306.353 137.072 306.747 137.072C307.419 137.072 308.006 137.221 308.507 137.52C309.019 137.808 309.414 138.229 309.691 138.784C309.979 139.339 310.123 140.011 310.123 140.8V146H308.315V141.232C308.315 140.432 308.113 139.803 307.707 139.344C307.302 138.885 306.769 138.656 306.107 138.656C305.681 138.656 305.297 138.773 304.955 139.008C304.625 139.243 304.363 139.568 304.171 139.984C303.979 140.389 303.883 140.859 303.883 141.392V146H302.059ZM313.602 142.576L313.522 140.064H314.53C315.042 140.064 315.501 139.995 315.906 139.856C316.322 139.707 316.647 139.483 316.882 139.184C317.127 138.885 317.25 138.501 317.25 138.032C317.25 137.52 317.085 137.099 316.754 136.768C316.434 136.427 315.986 136.256 315.41 136.256C314.919 136.256 314.509 136.416 314.178 136.736C313.847 137.045 313.629 137.472 313.522 138.016L311.89 137.568C311.975 137.056 312.162 136.587 312.45 136.16C312.738 135.723 313.127 135.376 313.618 135.12C314.119 134.853 314.711 134.72 315.394 134.72C316.109 134.72 316.733 134.853 317.266 135.12C317.81 135.376 318.231 135.755 318.53 136.256C318.839 136.747 318.994 137.339 318.994 138.032C318.994 138.725 318.829 139.317 318.498 139.808C318.178 140.299 317.735 140.672 317.17 140.928C316.605 141.184 315.965 141.312 315.25 141.312L315.186 142.576H313.602ZM314.546 146.112C314.173 146.112 313.853 145.995 313.586 145.76C313.33 145.515 313.202 145.216 313.202 144.864C313.202 144.512 313.33 144.219 313.586 143.984C313.853 143.739 314.173 143.616 314.546 143.616C314.919 143.616 315.234 143.739 315.49 143.984C315.746 144.219 315.874 144.512 315.874 144.864C315.874 145.216 315.746 145.515 315.49 145.76C315.234 145.995 314.919 146.112 314.546 146.112Z" fill="black"/>
<path d="M168.108 241.112C167.372 241.112 166.711 240.973 166.124 240.696C165.548 240.408 165.079 240.019 164.716 239.528C164.364 239.037 164.151 238.472 164.076 237.832L165.996 237.48C166.114 238.12 166.359 238.621 166.732 238.984C167.106 239.347 167.564 239.528 168.108 239.528C168.748 239.528 169.239 239.384 169.58 239.096C169.932 238.808 170.108 238.429 170.108 237.96C170.108 237.576 170.002 237.272 169.788 237.048C169.575 236.824 169.292 236.643 168.94 236.504C168.588 236.365 168.204 236.248 167.788 236.152C167.372 236.045 166.951 235.928 166.524 235.8C166.108 235.661 165.724 235.48 165.372 235.256C165.02 235.032 164.738 234.739 164.524 234.376C164.311 234.003 164.204 233.523 164.204 232.936C164.204 232.285 164.364 231.725 164.684 231.256C165.004 230.776 165.452 230.408 166.028 230.152C166.604 229.896 167.271 229.768 168.028 229.768C168.658 229.768 169.244 229.896 169.788 230.152C170.332 230.408 170.78 230.749 171.132 231.176C171.484 231.603 171.687 232.077 171.74 232.6L169.868 233.08C169.762 232.525 169.538 232.093 169.196 231.784C168.855 231.475 168.434 231.32 167.932 231.32C167.58 231.32 167.26 231.379 166.972 231.496C166.695 231.603 166.471 231.768 166.3 231.992C166.14 232.216 166.06 232.509 166.06 232.872C166.06 233.224 166.167 233.512 166.38 233.736C166.594 233.949 166.876 234.125 167.228 234.264C167.58 234.392 167.964 234.509 168.38 234.616C168.796 234.723 169.212 234.845 169.628 234.984C170.044 235.123 170.428 235.309 170.78 235.544C171.132 235.768 171.415 236.067 171.628 236.44C171.842 236.813 171.948 237.288 171.948 237.864C171.948 238.419 171.799 238.947 171.5 239.448C171.212 239.939 170.78 240.339 170.204 240.648C169.639 240.957 168.94 241.112 168.108 241.112ZM180.274 239.976V232.184H182.098V241H181.298C180.999 241 180.754 240.904 180.562 240.712C180.37 240.52 180.274 240.275 180.274 239.976ZM177.49 241.112C176.807 241.112 176.205 240.973 175.682 240.696C175.159 240.408 174.754 239.987 174.466 239.432C174.178 238.877 174.034 238.189 174.034 237.368V232.184H175.842V236.984C175.842 237.795 176.045 238.424 176.45 238.872C176.855 239.309 177.389 239.528 178.05 239.528C178.498 239.528 178.887 239.411 179.218 239.176C179.559 238.941 179.821 238.621 180.002 238.216C180.183 237.811 180.274 237.347 180.274 236.824L180.594 237.288C180.562 238.163 180.397 238.883 180.098 239.448C179.81 240.013 179.437 240.435 178.978 240.712C178.519 240.979 178.023 241.112 177.49 241.112ZM184.505 241V232.184H186.329V241H184.505ZM185.801 236.552L186.329 234.12C186.542 233.491 186.889 232.995 187.369 232.632C187.859 232.259 188.414 232.072 189.033 232.072V233.96C188.947 233.939 188.862 233.928 188.777 233.928C188.702 233.917 188.622 233.912 188.537 233.912C188.099 233.912 187.715 234.013 187.385 234.216C187.054 234.408 186.793 234.701 186.601 235.096C186.419 235.48 186.329 235.965 186.329 236.552H185.801ZM195.636 241.112C194.921 241.112 194.286 240.931 193.732 240.568C193.188 240.205 192.793 239.709 192.548 239.08V245.192H190.708V232.184H192.548V234.088C192.793 233.459 193.188 232.968 193.732 232.616C194.286 232.253 194.921 232.072 195.636 232.072C196.404 232.072 197.097 232.259 197.716 232.632C198.345 233.005 198.841 233.533 199.204 234.216C199.577 234.888 199.764 235.677 199.764 236.584C199.764 237.491 199.577 238.285 199.204 238.968C198.841 239.64 198.345 240.168 197.716 240.552C197.097 240.925 196.404 241.112 195.636 241.112ZM195.22 239.528C195.678 239.528 196.11 239.416 196.516 239.192C196.921 238.968 197.252 238.637 197.508 238.2C197.764 237.752 197.892 237.213 197.892 236.584C197.892 235.944 197.764 235.411 197.508 234.984C197.252 234.547 196.921 234.216 196.516 233.992C196.11 233.768 195.678 233.656 195.22 233.656C194.772 233.656 194.34 233.768 193.924 233.992C193.518 234.216 193.188 234.547 192.932 234.984C192.676 235.411 192.548 235.944 192.548 236.584C192.548 237.213 192.676 237.752 192.932 238.2C193.188 238.637 193.518 238.968 193.924 239.192C194.34 239.416 194.772 239.528 195.22 239.528ZM201.567 241V232.184H203.391V241H201.567ZM202.863 236.552L203.391 234.12C203.605 233.491 203.951 232.995 204.431 232.632C204.922 232.259 205.477 232.072 206.095 232.072V233.96C206.01 233.939 205.925 233.928 205.839 233.928C205.765 233.917 205.685 233.912 205.599 233.912C205.162 233.912 204.778 234.013 204.447 234.216C204.117 234.408 203.855 234.701 203.663 235.096C203.482 235.48 203.391 235.965 203.391 236.552H202.863ZM207.818 241V232.184H209.642V241H207.818ZM208.746 231.016C208.362 231.016 208.037 230.893 207.77 230.648C207.504 230.403 207.37 230.099 207.37 229.736C207.37 229.373 207.504 229.069 207.77 228.824C208.037 228.568 208.362 228.44 208.746 228.44C209.12 228.44 209.44 228.568 209.706 228.824C209.984 229.069 210.122 229.373 210.122 229.736C210.122 230.099 209.984 230.403 209.706 230.648C209.44 230.893 209.12 231.016 208.746 231.016ZM215.186 241.112C214.567 241.112 214.012 241.005 213.522 240.792C213.031 240.568 212.626 240.269 212.306 239.896C211.986 239.523 211.767 239.117 211.65 238.68L213.394 238.296C213.5 238.691 213.714 239.005 214.034 239.24C214.364 239.464 214.738 239.576 215.154 239.576C215.687 239.576 216.087 239.48 216.354 239.288C216.631 239.085 216.77 238.835 216.77 238.536C216.77 238.248 216.647 238.024 216.402 237.864C216.156 237.704 215.836 237.571 215.442 237.464C215.058 237.357 214.647 237.245 214.21 237.128C213.772 237.011 213.356 236.856 212.962 236.664C212.578 236.472 212.263 236.216 212.018 235.896C211.772 235.565 211.65 235.133 211.65 234.6C211.65 234.131 211.788 233.704 212.066 233.32C212.343 232.936 212.732 232.632 213.234 232.408C213.746 232.184 214.348 232.072 215.042 232.072C215.639 232.072 216.167 232.168 216.626 232.36C217.084 232.552 217.463 232.824 217.762 233.176C218.06 233.517 218.263 233.928 218.37 234.408L216.626 234.856C216.519 234.451 216.332 234.141 216.066 233.928C215.799 233.715 215.436 233.608 214.978 233.608C214.487 233.608 214.114 233.699 213.858 233.88C213.612 234.051 213.49 234.285 213.49 234.584C213.49 234.872 213.612 235.101 213.858 235.272C214.103 235.432 214.418 235.571 214.802 235.688C215.186 235.795 215.591 235.907 216.018 236.024C216.455 236.141 216.866 236.296 217.25 236.488C217.634 236.669 217.948 236.925 218.194 237.256C218.439 237.576 218.562 237.997 218.562 238.52C218.562 238.979 218.423 239.405 218.146 239.8C217.879 240.195 217.49 240.515 216.978 240.76C216.476 240.995 215.879 241.112 215.186 241.112ZM224.632 241.112C223.917 241.112 223.267 241 222.68 240.776C222.104 240.552 221.608 240.237 221.192 239.832C220.787 239.427 220.472 238.957 220.248 238.424C220.035 237.88 219.928 237.288 219.928 236.648C219.928 235.955 220.051 235.331 220.296 234.776C220.552 234.211 220.893 233.725 221.32 233.32C221.757 232.915 222.259 232.605 222.824 232.392C223.389 232.179 223.981 232.072 224.6 232.072C225.155 232.072 225.661 232.147 226.12 232.296C226.579 232.445 226.973 232.653 227.304 232.92C227.645 233.187 227.907 233.496 228.088 233.848C228.269 234.2 228.36 234.579 228.36 234.984C228.36 235.549 228.195 236.019 227.864 236.392C227.533 236.765 227.101 237.059 226.568 237.272C226.035 237.485 225.448 237.629 224.808 237.704C224.168 237.779 223.533 237.8 222.904 237.768C222.797 237.757 222.664 237.752 222.504 237.752C222.344 237.741 222.2 237.736 222.072 237.736C221.955 237.725 221.891 237.72 221.88 237.72C221.955 238.072 222.12 238.392 222.376 238.68C222.643 238.957 222.973 239.176 223.368 239.336C223.763 239.496 224.184 239.576 224.632 239.576C224.995 239.576 225.352 239.512 225.704 239.384C226.067 239.256 226.397 239.08 226.696 238.856C226.995 238.632 227.245 238.376 227.448 238.088L228.808 239.064C228.456 239.533 228.056 239.923 227.608 240.232C227.171 240.531 226.701 240.755 226.2 240.904C225.699 241.043 225.176 241.112 224.632 241.112ZM223.064 236.312C223.459 236.312 223.859 236.296 224.264 236.264C224.669 236.221 225.043 236.152 225.384 236.056C225.736 235.949 226.019 235.805 226.232 235.624C226.445 235.443 226.552 235.208 226.552 234.92C226.552 234.675 226.472 234.456 226.312 234.264C226.163 234.061 225.949 233.901 225.672 233.784C225.395 233.667 225.069 233.608 224.696 233.608C224.141 233.608 223.645 233.731 223.208 233.976C222.771 234.221 222.424 234.547 222.168 234.952C221.923 235.357 221.789 235.795 221.768 236.264C221.917 236.275 222.104 236.285 222.328 236.296C222.552 236.307 222.797 236.312 223.064 236.312ZM234.822 241V233.672H233.782V232.184H234.822V231.56C234.822 231.048 234.886 230.611 235.014 230.248C235.153 229.885 235.356 229.587 235.622 229.352C235.9 229.107 236.246 228.931 236.662 228.824C237.089 228.707 237.59 228.648 238.166 228.648V230.168C237.804 230.168 237.51 230.216 237.286 230.312C237.062 230.397 236.902 230.541 236.806 230.744C236.71 230.947 236.662 231.219 236.662 231.56V232.184H238.294V233.672H236.662V241H234.822ZM243.431 241.112C242.663 241.112 241.964 240.925 241.335 240.552C240.716 240.168 240.22 239.64 239.847 238.968C239.484 238.285 239.303 237.491 239.303 236.584C239.303 235.677 239.484 234.888 239.847 234.216C240.22 233.533 240.716 233.005 241.335 232.632C241.964 232.259 242.663 232.072 243.431 232.072C244.156 232.072 244.791 232.253 245.335 232.616C245.879 232.968 246.274 233.459 246.519 234.088V232.184H248.359V241H247.543C247.244 241 246.999 240.904 246.807 240.712C246.615 240.52 246.519 240.275 246.519 239.976V239.08C246.274 239.709 245.879 240.205 245.335 240.568C244.791 240.931 244.156 241.112 243.431 241.112ZM243.847 239.528C244.306 239.528 244.738 239.416 245.143 239.192C245.548 238.968 245.879 238.637 246.135 238.2C246.391 237.752 246.519 237.213 246.519 236.584C246.519 235.944 246.391 235.411 246.135 234.984C245.879 234.547 245.548 234.216 245.143 233.992C244.738 233.768 244.306 233.656 243.847 233.656C243.399 233.656 242.967 233.768 242.551 233.992C242.146 234.216 241.815 234.547 241.559 234.984C241.303 235.411 241.175 235.944 241.175 236.584C241.175 237.213 241.303 237.752 241.559 238.2C241.815 238.637 242.146 238.968 242.551 239.192C242.967 239.416 243.399 239.528 243.847 239.528ZM254.467 241.112C253.624 241.112 252.877 240.925 252.227 240.552C251.576 240.179 251.064 239.651 250.691 238.968C250.328 238.285 250.147 237.491 250.147 236.584C250.147 235.667 250.328 234.872 250.691 234.2C251.064 233.528 251.576 233.005 252.227 232.632C252.877 232.259 253.624 232.072 254.467 232.072C254.979 232.072 255.443 232.125 255.859 232.232C256.285 232.339 256.659 232.504 256.979 232.728C257.309 232.941 257.592 233.219 257.827 233.56C258.072 233.891 258.275 234.285 258.435 234.744L256.691 235.304C256.488 234.739 256.2 234.317 255.827 234.04C255.453 233.752 255 233.608 254.467 233.608C253.976 233.608 253.544 233.725 253.171 233.96C252.808 234.184 252.525 234.52 252.323 234.968C252.12 235.405 252.019 235.944 252.019 236.584C252.019 237.213 252.12 237.752 252.323 238.2C252.525 238.648 252.808 238.989 253.171 239.224C253.544 239.459 253.976 239.576 254.467 239.576C255.085 239.576 255.592 239.411 255.987 239.08C256.381 238.739 256.664 238.28 256.835 237.704L258.531 238.104C258.371 238.659 258.115 239.165 257.763 239.624C257.421 240.083 256.979 240.445 256.435 240.712C255.901 240.979 255.245 241.112 254.467 241.112ZM263.308 241.112C262.636 241.112 262.076 240.883 261.628 240.424C261.18 239.965 260.956 239.341 260.956 238.552V233.672H259.596V232.184H264.94V233.672H262.796V238.664C262.796 238.963 262.871 239.176 263.02 239.304C263.18 239.432 263.351 239.496 263.532 239.496C263.692 239.496 263.836 239.469 263.964 239.416C264.092 239.363 264.215 239.277 264.332 239.16L265.276 240.296C264.978 240.584 264.674 240.792 264.364 240.92C264.055 241.048 263.703 241.112 263.308 241.112ZM260.252 232.872V232.184C260.476 232.184 260.647 232.12 260.764 231.992C260.892 231.864 260.956 231.688 260.956 231.464V229.992H262.796V231.16C262.796 231.309 262.759 231.459 262.684 231.608C262.61 231.747 262.503 231.869 262.364 231.976C262.236 232.072 262.092 232.141 261.932 232.184L260.252 232.872ZM270.626 241.112C269.794 241.112 269.042 240.925 268.37 240.552C267.708 240.179 267.18 239.651 266.786 238.968C266.402 238.285 266.21 237.491 266.21 236.584C266.21 235.667 266.407 234.872 266.802 234.2C267.207 233.528 267.751 233.005 268.434 232.632C269.116 232.259 269.874 232.072 270.706 232.072C271.548 232.072 272.306 232.259 272.978 232.632C273.66 233.005 274.199 233.528 274.594 234.2C274.999 234.872 275.202 235.667 275.202 236.584C275.202 237.491 274.994 238.285 274.578 238.968C274.172 239.651 273.623 240.179 272.93 240.552C272.236 240.925 271.468 241.112 270.626 241.112ZM270.626 239.528C271.084 239.528 271.516 239.421 271.922 239.208C272.338 238.984 272.674 238.653 272.93 238.216C273.196 237.779 273.33 237.235 273.33 236.584C273.33 235.923 273.202 235.379 272.946 234.952C272.69 234.515 272.359 234.189 271.954 233.976C271.559 233.763 271.132 233.656 270.674 233.656C270.215 233.656 269.788 233.763 269.394 233.976C268.999 234.189 268.679 234.515 268.434 234.952C268.188 235.379 268.066 235.923 268.066 236.584C268.066 237.235 268.183 237.779 268.418 238.216C268.652 238.653 268.962 238.984 269.346 239.208C269.74 239.421 270.167 239.528 270.626 239.528ZM277.005 241V232.184H278.829V241H277.005ZM278.301 236.552L278.829 234.12C279.042 233.491 279.389 232.995 279.869 232.632C280.359 232.259 280.914 232.072 281.533 232.072V233.96C281.447 233.939 281.362 233.928 281.277 233.928C281.202 233.917 281.122 233.912 281.037 233.912C280.599 233.912 280.215 234.013 279.885 234.216C279.554 234.408 279.293 234.701 279.101 235.096C278.919 235.48 278.829 235.965 278.829 236.552H278.301Z" fill="black"/>
<path d="M25.646 107.27V115.712H28.936V117H24.05V107.27H25.646ZM34.2849 117.098C33.6035 117.098 32.9595 116.977 32.3529 116.734C31.7555 116.491 31.2282 116.151 30.7709 115.712C30.3135 115.264 29.9542 114.737 29.6929 114.13C29.4409 113.523 29.3149 112.856 29.3149 112.128C29.3149 111.4 29.4409 110.737 29.6929 110.14C29.9542 109.533 30.3135 109.011 30.7709 108.572C31.2282 108.124 31.7555 107.779 32.3529 107.536C32.9595 107.293 33.6035 107.172 34.2849 107.172C34.9755 107.172 35.6195 107.293 36.2169 107.536C36.8235 107.779 37.3509 108.124 37.7989 108.572C38.2562 109.011 38.6109 109.533 38.8629 110.14C39.1242 110.737 39.2549 111.4 39.2549 112.128C39.2549 112.856 39.1242 113.523 38.8629 114.13C38.6109 114.737 38.2562 115.264 37.7989 115.712C37.3509 116.151 36.8235 116.491 36.2169 116.734C35.6195 116.977 34.9755 117.098 34.2849 117.098ZM34.2849 115.712C34.9289 115.712 35.4982 115.567 35.9929 115.278C36.4969 114.979 36.8935 114.564 37.1829 114.032C37.4722 113.491 37.6169 112.856 37.6169 112.128C37.6169 111.4 37.4722 110.77 37.1829 110.238C36.8935 109.706 36.4969 109.295 35.9929 109.006C35.4982 108.717 34.9289 108.572 34.2849 108.572C33.6409 108.572 33.0669 108.717 32.5629 109.006C32.0589 109.295 31.6622 109.706 31.3729 110.238C31.0929 110.77 30.9529 111.4 30.9529 112.128C30.9529 112.856 31.0929 113.491 31.3729 114.032C31.6622 114.564 32.0589 114.979 32.5629 115.278C33.0669 115.567 33.6409 115.712 34.2849 115.712ZM39.768 107.27H41.462L43.702 116.062H43.24L45.662 107.27H47.454L49.722 116.09H49.246L51.514 107.27H53.222L50.338 117H48.532L46.278 108.908H46.698L44.318 117H42.526L39.768 107.27Z" fill="#878787"/>
<path d="M28.488 207.098C27.8067 207.098 27.1627 206.977 26.556 206.734C25.9587 206.491 25.4313 206.151 24.974 205.712C24.5167 205.264 24.1573 204.737 23.896 204.13C23.644 203.523 23.518 202.856 23.518 202.128C23.518 201.4 23.644 200.737 23.896 200.14C24.1573 199.533 24.5167 199.011 24.974 198.572C25.4313 198.124 25.9587 197.779 26.556 197.536C27.1627 197.293 27.8067 197.172 28.488 197.172C29.1787 197.172 29.8227 197.293 30.42 197.536C31.0267 197.779 31.554 198.124 32.002 198.572C32.4593 199.011 32.814 199.533 33.066 200.14C33.3273 200.737 33.458 201.4 33.458 202.128C33.458 202.856 33.3273 203.523 33.066 204.13C32.814 204.737 32.4593 205.264 32.002 205.712C31.554 206.151 31.0267 206.491 30.42 206.734C29.8227 206.977 29.1787 207.098 28.488 207.098ZM28.488 205.712C29.132 205.712 29.7013 205.567 30.196 205.278C30.7 204.979 31.0967 204.564 31.386 204.032C31.6753 203.491 31.82 202.856 31.82 202.128C31.82 201.4 31.6753 200.77 31.386 200.238C31.0967 199.706 30.7 199.295 30.196 199.006C29.7013 198.717 29.132 198.572 28.488 198.572C27.844 198.572 27.27 198.717 26.766 199.006C26.262 199.295 25.8653 199.706 25.576 200.238C25.296 200.77 25.156 201.4 25.156 202.128C25.156 202.856 25.296 203.491 25.576 204.032C25.8653 204.564 26.262 204.979 26.766 205.278C27.27 205.567 27.844 205.712 28.488 205.712ZM36.6245 197.27V205.712H39.9145V207H35.0285V197.27H36.6245ZM41.2492 207V197.27H44.4272C45.4726 197.27 46.3779 197.471 47.1432 197.872C47.9179 198.264 48.5199 198.829 48.9492 199.566C49.3786 200.294 49.5932 201.162 49.5932 202.17C49.5932 203.169 49.3786 204.032 48.9492 204.76C48.5199 205.479 47.9179 206.034 47.1432 206.426C46.3779 206.809 45.4726 207 44.4272 207H41.2492ZM42.8452 205.698H44.4272C45.5752 205.698 46.4479 205.385 47.0452 204.76C47.6519 204.135 47.9552 203.271 47.9552 202.17C47.9552 201.059 47.6519 200.182 47.0452 199.538C46.4479 198.894 45.5752 198.572 44.4272 198.572H42.8452V205.698Z" fill="#878787"/>
<path d="M31.232 299.532C31.1293 299.224 30.9893 298.949 30.812 298.706C30.6347 298.463 30.4247 298.258 30.182 298.09C29.9393 297.922 29.6733 297.796 29.384 297.712C29.0947 297.619 28.782 297.572 28.446 297.572C27.8113 297.572 27.2467 297.721 26.752 298.02C26.2573 298.319 25.8653 298.734 25.576 299.266C25.296 299.798 25.156 300.419 25.156 301.128C25.156 301.837 25.282 302.463 25.534 303.004C25.7953 303.536 26.178 303.956 26.682 304.264C27.186 304.563 27.7973 304.712 28.516 304.712C28.964 304.712 29.37 304.623 29.734 304.446C30.1073 304.269 30.4293 304.035 30.7 303.746C30.9707 303.457 31.1807 303.144 31.33 302.808C31.4887 302.463 31.582 302.131 31.61 301.814H28.124V300.512H33.346V306H31.89V303.298L32.03 303.158C32.03 303.307 31.9833 303.503 31.89 303.746C31.7967 303.989 31.6567 304.245 31.47 304.516C31.2927 304.787 31.0593 305.043 30.77 305.286C30.4807 305.519 30.14 305.715 29.748 305.874C29.3653 306.023 28.9267 306.098 28.432 306.098C27.7693 306.098 27.1393 305.977 26.542 305.734C25.954 305.491 25.4313 305.151 24.974 304.712C24.526 304.264 24.1713 303.737 23.91 303.13C23.6487 302.523 23.518 301.856 23.518 301.128C23.518 300.4 23.644 299.733 23.896 299.126C24.1573 298.519 24.5167 297.997 24.974 297.558C25.4313 297.11 25.9587 296.769 26.556 296.536C27.1627 296.293 27.8067 296.172 28.488 296.172C29.5427 296.172 30.448 296.419 31.204 296.914C31.9693 297.399 32.5107 298.081 32.828 298.958L31.232 299.532ZM39.3571 306.098C38.6758 306.098 38.0318 305.977 37.4251 305.734C36.8278 305.491 36.3005 305.151 35.8431 304.712C35.3858 304.264 35.0265 303.737 34.7651 303.13C34.5131 302.523 34.3871 301.856 34.3871 301.128C34.3871 300.4 34.5131 299.737 34.7651 299.14C35.0265 298.533 35.3858 298.011 35.8431 297.572C36.3005 297.124 36.8278 296.779 37.4251 296.536C38.0318 296.293 38.6758 296.172 39.3571 296.172C40.0478 296.172 40.6918 296.293 41.2891 296.536C41.8958 296.779 42.4231 297.124 42.8711 297.572C43.3285 298.011 43.6831 298.533 43.9351 299.14C44.1965 299.737 44.3271 300.4 44.3271 301.128C44.3271 301.856 44.1965 302.523 43.9351 303.13C43.6831 303.737 43.3285 304.264 42.8711 304.712C42.4231 305.151 41.8958 305.491 41.2891 305.734C40.6918 305.977 40.0478 306.098 39.3571 306.098ZM39.3571 304.712C40.0011 304.712 40.5705 304.567 41.0651 304.278C41.5691 303.979 41.9658 303.564 42.2551 303.032C42.5445 302.491 42.6891 301.856 42.6891 301.128C42.6891 300.4 42.5445 299.77 42.2551 299.238C41.9658 298.706 41.5691 298.295 41.0651 298.006C40.5705 297.717 40.0011 297.572 39.3571 297.572C38.7131 297.572 38.1391 297.717 37.6351 298.006C37.1311 298.295 36.7345 298.706 36.4451 299.238C36.1651 299.77 36.0251 300.4 36.0251 301.128C36.0251 301.856 36.1651 302.491 36.4451 303.032C36.7345 303.564 37.1311 303.979 37.6351 304.278C38.1391 304.567 38.7131 304.712 39.3571 304.712ZM50.3357 306.098C49.6543 306.098 49.0103 305.977 48.4037 305.734C47.8063 305.491 47.279 305.151 46.8217 304.712C46.3643 304.264 46.005 303.737 45.7437 303.13C45.4917 302.523 45.3657 301.856 45.3657 301.128C45.3657 300.4 45.4917 299.737 45.7437 299.14C46.005 298.533 46.3643 298.011 46.8217 297.572C47.279 297.124 47.8063 296.779 48.4037 296.536C49.0103 296.293 49.6543 296.172 50.3357 296.172C51.0263 296.172 51.6703 296.293 52.2677 296.536C52.8743 296.779 53.4017 297.124 53.8497 297.572C54.307 298.011 54.6617 298.533 54.9137 299.14C55.175 299.737 55.3057 300.4 55.3057 301.128C55.3057 301.856 55.175 302.523 54.9137 303.13C54.6617 303.737 54.307 304.264 53.8497 304.712C53.4017 305.151 52.8743 305.491 52.2677 305.734C51.6703 305.977 51.0263 306.098 50.3357 306.098ZM50.3357 304.712C50.9797 304.712 51.549 304.567 52.0437 304.278C52.5477 303.979 52.9443 303.564 53.2337 303.032C53.523 302.491 53.6677 301.856 53.6677 301.128C53.6677 300.4 53.523 299.77 53.2337 299.238C52.9443 298.706 52.5477 298.295 52.0437 298.006C51.549 297.717 50.9797 297.572 50.3357 297.572C49.6917 297.572 49.1177 297.717 48.6137 298.006C48.1097 298.295 47.713 298.706 47.4237 299.238C47.1437 299.77 47.0037 300.4 47.0037 301.128C47.0037 301.856 47.1437 302.491 47.4237 303.032C47.713 303.564 48.1097 303.979 48.6137 304.278C49.1177 304.567 49.6917 304.712 50.3357 304.712ZM56.8762 306V296.27H60.0542C61.0995 296.27 62.0048 296.471 62.7702 296.872C63.5448 297.264 64.1468 297.829 64.5762 298.566C65.0055 299.294 65.2202 300.162 65.2202 301.17C65.2202 302.169 65.0055 303.032 64.5762 303.76C64.1468 304.479 63.5448 305.034 62.7702 305.426C62.0048 305.809 61.0995 306 60.0542 306H56.8762ZM58.4722 304.698H60.0542C61.2022 304.698 62.0748 304.385 62.6722 303.76C63.2788 303.135 63.5822 302.271 63.5822 301.17C63.5822 300.059 63.2788 299.182 62.6722 298.538C62.0748 297.894 61.2022 297.572 60.0542 297.572H58.4722V304.698Z" fill="#878787"/>
<path d="M299.382 107.27H300.978V117H299.382V107.27ZM305.556 107.27H307.152V117H305.556V107.27ZM300.698 111.442H305.934V112.744H300.698V111.442ZM309.113 117V115.698H310.219V108.572H309.113V107.27H312.921V108.572H311.815V115.698H312.921V117H309.113ZM322.068 110.532C321.965 110.224 321.825 109.949 321.648 109.706C321.471 109.463 321.261 109.258 321.018 109.09C320.775 108.922 320.509 108.796 320.22 108.712C319.931 108.619 319.618 108.572 319.282 108.572C318.647 108.572 318.083 108.721 317.588 109.02C317.093 109.319 316.701 109.734 316.412 110.266C316.132 110.798 315.992 111.419 315.992 112.128C315.992 112.837 316.118 113.463 316.37 114.004C316.631 114.536 317.014 114.956 317.518 115.264C318.022 115.563 318.633 115.712 319.352 115.712C319.8 115.712 320.206 115.623 320.57 115.446C320.943 115.269 321.265 115.035 321.536 114.746C321.807 114.457 322.017 114.144 322.166 113.808C322.325 113.463 322.418 113.131 322.446 112.814H318.96V111.512H324.182V117H322.726V114.298L322.866 114.158C322.866 114.307 322.819 114.503 322.726 114.746C322.633 114.989 322.493 115.245 322.306 115.516C322.129 115.787 321.895 116.043 321.606 116.286C321.317 116.519 320.976 116.715 320.584 116.874C320.201 117.023 319.763 117.098 319.268 117.098C318.605 117.098 317.975 116.977 317.378 116.734C316.79 116.491 316.267 116.151 315.81 115.712C315.362 115.264 315.007 114.737 314.746 114.13C314.485 113.523 314.354 112.856 314.354 112.128C314.354 111.4 314.48 110.733 314.732 110.126C314.993 109.519 315.353 108.997 315.81 108.558C316.267 108.11 316.795 107.769 317.392 107.536C317.999 107.293 318.643 107.172 319.324 107.172C320.379 107.172 321.284 107.419 322.04 107.914C322.805 108.399 323.347 109.081 323.664 109.958L322.068 110.532ZM326.179 107.27H327.775V117H326.179V107.27ZM332.353 107.27H333.949V117H332.353V107.27ZM327.495 111.442H332.731V112.744H327.495V111.442Z" fill="#878787"/>
<path d="M312.626 197.27V207H311.03L306.228 199.734V207H304.632V197.27H306.228L311.03 204.522V197.27H312.626ZM320.098 198.572H316.318V201.414H319.678V202.716H316.318V205.698H320.098V207H314.722V197.27H320.098V198.572ZM321.28 197.27H322.974L325.214 206.062H324.752L327.174 197.27H328.966L331.234 206.09H330.758L333.026 197.27H334.734L331.85 207H330.044L327.79 198.908H328.21L325.83 207H324.038L321.28 197.27Z" fill="#878787"/>
<path d="M292.295 296.27H293.989L296.229 305.062H295.767L298.189 296.27H299.981L302.249 305.09H301.773L304.041 296.27H305.749L302.865 306H301.059L298.805 297.908H299.225L296.845 306H295.053L292.295 296.27ZM311.08 306.098C310.398 306.098 309.754 305.977 309.148 305.734C308.55 305.491 308.023 305.151 307.566 304.712C307.108 304.264 306.749 303.737 306.488 303.13C306.236 302.523 306.11 301.856 306.11 301.128C306.11 300.4 306.236 299.737 306.488 299.14C306.749 298.533 307.108 298.011 307.566 297.572C308.023 297.124 308.55 296.779 309.148 296.536C309.754 296.293 310.398 296.172 311.08 296.172C311.77 296.172 312.414 296.293 313.012 296.536C313.618 296.779 314.146 297.124 314.594 297.572C315.051 298.011 315.406 298.533 315.658 299.14C315.919 299.737 316.05 300.4 316.05 301.128C316.05 301.856 315.919 302.523 315.658 303.13C315.406 303.737 315.051 304.264 314.594 304.712C314.146 305.151 313.618 305.491 313.012 305.734C312.414 305.977 311.77 306.098 311.08 306.098ZM311.08 304.712C311.724 304.712 312.293 304.567 312.788 304.278C313.292 303.979 313.688 303.564 313.978 303.032C314.267 302.491 314.412 301.856 314.412 301.128C314.412 300.4 314.267 299.77 313.978 299.238C313.688 298.706 313.292 298.295 312.788 298.006C312.293 297.717 311.724 297.572 311.08 297.572C310.436 297.572 309.862 297.717 309.358 298.006C308.854 298.295 308.457 298.706 308.168 299.238C307.888 299.77 307.748 300.4 307.748 301.128C307.748 301.856 307.888 302.491 308.168 303.032C308.457 303.564 308.854 303.979 309.358 304.278C309.862 304.567 310.436 304.712 311.08 304.712ZM316.563 296.27H318.257L320.497 305.062H320.035L322.457 296.27H324.249L326.517 305.09H326.041L328.309 296.27H330.017L327.133 306H325.327L323.073 297.908H323.493L321.113 306H319.321L316.563 296.27ZM331.795 296.27H333.489L333.307 303.06H331.977L331.795 296.27ZM332.649 306.098C332.323 306.098 332.043 305.995 331.809 305.79C331.585 305.575 331.473 305.314 331.473 305.006C331.473 304.698 331.585 304.441 331.809 304.236C332.043 304.021 332.323 303.914 332.649 303.914C332.976 303.914 333.251 304.021 333.475 304.236C333.699 304.441 333.811 304.698 333.811 305.006C333.811 305.314 333.699 305.575 333.475 305.79C333.251 305.995 332.976 306.098 332.649 306.098Z" fill="#878787"/>
<path d="M118.868 69.8418C120.514 66.9606 123.319 65.3325 126.632 65.5137L126.631 65.5146C132.48 65.809 137.076 70.7498 140.768 80.1094L141.122 81.0293L141.888 83.1045C142.641 85.1867 143.356 87.2862 144.019 89.3691L144.141 89.7158C144.276 90.0724 144.447 90.4588 144.632 90.875C145.12 91.9758 145.674 93.2193 145.768 94.4414L145.803 94.9062L145.342 94.9746L143.488 95.248L143.736 96.4023L142.533 95.1865L142.53 95.1836L141.836 94.4824L142.248 94.4209C141.82 93.2805 140.841 92.4275 139.504 91.7344C137.968 90.9383 136.057 90.403 134.204 89.8857C132.928 89.5293 131.686 89.1813 130.64 88.7529V88.752C126.502 87.0625 121.612 85.0838 118.865 80.2891C117.05 77.1205 117.054 73.0245 118.868 69.8428V69.8418ZM126.17 68.9414C123.7 68.9415 122.403 70.5556 121.83 71.5596L121.829 71.5605C120.61 73.6925 120.609 76.4512 121.823 78.5693V78.5703C123.959 82.2973 127.906 83.925 131.927 85.5693C132.778 85.9174 133.893 86.2289 135.118 86.5723H135.117C136.677 87.0063 138.422 87.4936 140.04 88.1924C139.375 86.2068 138.671 84.217 137.933 82.251L137.618 81.4316C136.037 77.4036 134.351 74.3874 132.551 72.3281C130.641 70.1435 128.625 69.0589 126.473 68.9463V68.9473L126.264 68.9414H126.17Z" fill="#E0B000" stroke="#E0B000"/>
<path d="M162.139 65.5186C165.435 65.347 168.258 66.9642 169.905 69.8535C171.719 73.0354 171.719 77.1248 169.904 80.293V80.2939C167.151 85.0948 162.264 87.0701 158.129 88.7568C157.082 89.1853 155.84 89.5316 154.565 89.8877C152.712 90.4065 150.802 90.9428 149.266 91.7393C147.928 92.4325 146.949 93.2848 146.52 94.4248L147.516 94.5723L146.109 95.2832L146.104 95.2861L145.169 95.7578L145.277 95.252L143.428 94.9785L142.967 94.9111L143.002 94.4463C143.095 93.221 143.653 91.9764 144.141 90.874L144.483 90.085C144.588 89.8352 144.679 89.5979 144.751 89.373C145.646 86.5693 146.623 83.7631 147.648 81.0342V81.0332C151.399 71.0783 156.101 65.8236 162.139 65.5195V65.5186ZM162.301 68.9521L162.3 68.9512C160.15 69.0624 158.134 70.147 156.225 72.332C154.305 74.5289 152.515 77.8146 150.843 82.2549C150.109 84.2031 149.403 86.1949 148.734 88.1943C150.352 87.4955 152.097 87.0082 153.657 86.5742L154.554 86.3213C155.424 86.0725 156.211 85.8323 156.85 85.5713C160.867 83.9301 164.811 82.3016 166.949 78.5713L167.06 78.3711C168.163 76.2839 168.127 73.6298 166.946 71.5645L166.945 71.5635C166.376 70.5589 165.073 68.9434 162.6 68.9434V68.9424L162.301 68.9521Z" fill="#E0B000" stroke="#E0B000"/>
<path d="M245.868 160.842C247.514 157.961 250.319 156.333 253.632 156.514L253.631 156.515C259.48 156.809 264.076 161.75 267.768 171.109L268.122 172.029L268.888 174.104C269.641 176.187 270.356 178.286 271.019 180.369L271.141 180.716C271.276 181.072 271.447 181.459 271.632 181.875C272.12 182.976 272.674 184.219 272.768 185.441L272.803 185.906L272.342 185.975L270.488 186.248L270.736 187.402L269.533 186.187L269.53 186.184L268.836 185.482L269.248 185.421C268.82 184.28 267.841 183.428 266.504 182.734C264.968 181.938 263.057 181.403 261.204 180.886C259.928 180.529 258.686 180.181 257.64 179.753V179.752C253.502 178.062 248.612 176.084 245.865 171.289C244.05 168.12 244.054 164.024 245.868 160.843V160.842ZM253.17 159.941C250.7 159.941 249.403 161.556 248.83 162.56L248.829 162.561C247.61 164.693 247.609 167.451 248.823 169.569V169.57C250.959 173.297 254.906 174.925 258.927 176.569C259.778 176.917 260.893 177.229 262.118 177.572H262.117C263.677 178.006 265.422 178.494 267.04 179.192C266.375 177.207 265.671 175.217 264.933 173.251L264.618 172.432C263.037 168.404 261.351 165.387 259.551 163.328C257.641 161.143 255.625 160.059 253.473 159.946V159.947L253.264 159.941H253.17Z" fill="#E0B000" stroke="#E0B000"/>
<path d="M289.139 156.519C292.435 156.347 295.258 157.964 296.905 160.854C298.719 164.035 298.719 168.125 296.904 171.293V171.294C294.151 176.095 289.264 178.07 285.129 179.757C284.082 180.185 282.84 180.532 281.565 180.888C279.712 181.406 277.802 181.943 276.266 182.739C274.928 183.433 273.949 184.285 273.52 185.425L274.516 185.572L273.109 186.283L273.104 186.286L272.169 186.758L272.277 186.252L270.428 185.979L269.967 185.911L270.002 185.446C270.095 184.221 270.653 182.976 271.141 181.874L271.483 181.085C271.588 180.835 271.679 180.598 271.751 180.373C272.646 177.569 273.623 174.763 274.648 172.034V172.033C278.399 162.078 283.101 156.824 289.139 156.52V156.519ZM289.301 159.952L289.3 159.951C287.15 160.062 285.134 161.147 283.225 163.332C281.305 165.529 279.515 168.815 277.843 173.255C277.109 175.203 276.403 177.195 275.734 179.194C277.352 178.495 279.097 178.008 280.657 177.574L281.554 177.321C282.424 177.073 283.211 176.832 283.85 176.571C287.867 174.93 291.811 173.302 293.949 169.571L294.06 169.371C295.163 167.284 295.127 164.63 293.946 162.564L293.945 162.563C293.376 161.559 292.073 159.943 289.6 159.943V159.942L289.301 159.952Z" fill="#E0B000" stroke="#E0B000"/>
<path d="M198.868 259.842C200.514 256.961 203.319 255.333 206.632 255.514L206.631 255.515C212.48 255.809 217.076 260.75 220.768 270.109L221.122 271.029L221.888 273.104C222.641 275.187 223.356 277.286 224.019 279.369L224.141 279.716C224.276 280.072 224.447 280.459 224.632 280.875C225.12 281.976 225.674 283.219 225.768 284.441L225.803 284.906L225.342 284.975L223.488 285.248L223.736 286.402L222.533 285.187L222.53 285.184L221.836 284.482L222.248 284.421C221.82 283.28 220.841 282.428 219.504 281.734C217.968 280.938 216.057 280.403 214.204 279.886C212.928 279.529 211.686 279.181 210.64 278.753V278.752C206.502 277.062 201.612 275.084 198.865 270.289C197.05 267.12 197.054 263.024 198.868 259.843V259.842ZM206.17 258.941C203.7 258.941 202.403 260.556 201.83 261.56L201.829 261.561C200.61 263.693 200.609 266.451 201.823 268.569V268.57C203.959 272.297 207.906 273.925 211.927 275.569C212.778 275.917 213.893 276.229 215.118 276.572H215.117C216.677 277.006 218.422 277.494 220.04 278.192C219.375 276.207 218.671 274.217 217.933 272.251L217.618 271.432C216.037 267.404 214.351 264.387 212.551 262.328C210.641 260.143 208.625 259.059 206.473 258.946V258.947L206.264 258.941H206.17Z" fill="#E0B000" stroke="#E0B000"/>
<path d="M242.139 255.519C245.435 255.347 248.258 256.964 249.905 259.854C251.719 263.035 251.719 267.125 249.904 270.293V270.294C247.151 275.095 242.264 277.07 238.129 278.757C237.082 279.185 235.84 279.532 234.565 279.888C232.712 280.406 230.802 280.943 229.266 281.739C227.928 282.433 226.949 283.285 226.52 284.425L227.516 284.572L226.109 285.283L226.104 285.286L225.169 285.758L225.277 285.252L223.428 284.979L222.967 284.911L223.002 284.446C223.095 283.221 223.653 281.976 224.141 280.874L224.483 280.085C224.588 279.835 224.679 279.598 224.751 279.373C225.646 276.569 226.623 273.763 227.648 271.034V271.033C231.399 261.078 236.101 255.824 242.139 255.52V255.519ZM242.301 258.952L242.3 258.951C240.15 259.062 238.134 260.147 236.225 262.332C234.305 264.529 232.515 267.815 230.843 272.255C230.109 274.203 229.403 276.195 228.734 278.194C230.352 277.495 232.097 277.008 233.657 276.574L234.554 276.321C235.424 276.073 236.211 275.832 236.85 275.571C240.867 273.93 244.811 272.302 246.949 268.571L247.06 268.371C248.163 266.284 248.127 263.63 246.946 261.564L246.945 261.563C246.376 260.559 245.073 258.943 242.6 258.943V258.942L242.301 258.952Z" fill="#E0B000" stroke="#E0B000"/>
<path d="M21.5625 97H338.031" stroke="#E2E2E2" stroke-width="6"/>
<path d="M21.5625 187H338.031" stroke="#E2E2E2" stroke-width="6"/>
<path d="M21.5625 286H338.031" stroke="#E2E2E2" stroke-width="6"/>
</svg>
