<svg width="60" height="52" viewBox="0 0 60 52" fill="none" xmlns="http://www.w3.org/2000/svg">
<path d="M8.51417 21.75C2.91574 21.75 1.84937 16.9018 2.01599 14.4777L12.4971 1.75L47.0031 1.75119L58 14.4777C58 16.9018 56.7004 21.75 51.5018 21.75C46.3033 21.75 44.3371 17.5078 44.0039 15.3867C43.6707 17.5078 41.8045 21.75 37.0059 21.75C32.2072 21.75 30.3411 17.5078 30.0078 15.3867C29.8412 17.5078 28.2083 21.75 23.0098 21.75C17.8112 21.75 16.1783 17.5078 16.0117 15.3867C15.8452 17.5078 14.1126 21.75 8.51417 21.75Z" stroke="#D39926" stroke-width="3.5"/>
<path d="M0 49.75H5.04274M59 49.75H5.04274M5.04274 20.75V49.75M53.453 20.75V49.75" stroke="#D39926" stroke-width="3.5"/>
<rect x="34" y="27.75" width="12" height="15" stroke="#D39926" stroke-width="3.5"/>
<path d="M12 49.75V28.75H27V49.75" stroke="#D39926" stroke-width="3.5"/>
</svg>
