<svg width="88" height="30" viewBox="0 0 88 30" fill="none" xmlns="http://www.w3.org/2000/svg">
<rect width="87.462" height="29.7366" rx="14.8683" fill="#882B7D"/>
<path d="M16.8903 17.1333V18.2658C16.8903 18.9667 16.6119 19.6389 16.1163 20.1345C15.6207 20.6301 14.9485 20.9085 14.2477 20.9085C13.5468 20.9085 12.8746 20.6301 12.379 20.1345C11.8834 19.6389 11.605 18.9667 11.605 18.2658V12.9805M20.6656 17.1333V18.2658C20.6656 18.9667 20.944 19.6389 21.4396 20.1345C21.9352 20.6301 22.6074 20.9085 23.3083 20.9085C24.0092 20.9085 24.6813 20.6301 25.1769 20.1345C25.6725 19.6389 25.951 18.9667 25.951 18.2658V12.9805" stroke="#FEB3D2" stroke-width="1.5101" stroke-linecap="round" stroke-linejoin="round"/>
<path d="M21.7982 8.82715H15.7578C13.4642 8.82715 11.605 10.6864 11.605 12.9799C11.605 15.2734 13.4642 17.1327 15.7578 17.1327H21.7982C24.0917 17.1327 25.951 15.2734 25.951 12.9799C25.951 10.6864 24.0917 8.82715 21.7982 8.82715Z" stroke="#FEB3D2" stroke-width="1.5101"/>
<path d="M17.6452 12.9808H14.625M16.1351 11.4707V14.4909" stroke="#FEB3D2" stroke-width="1.5101" stroke-linecap="round" stroke-linejoin="round"/>
<path d="M23.3084 12.2258C23.3084 11.8088 22.9704 11.4707 22.5534 11.4707C22.1364 11.4707 21.7983 11.8088 21.7983 12.2258C21.7983 12.6428 22.1364 12.9808 22.5534 12.9808C22.9704 12.9808 23.3084 12.6428 23.3084 12.2258Z" fill="#FEB3D2"/>
<path d="M21.7982 14.1125C21.7982 13.6955 21.4601 13.3574 21.0431 13.3574C20.6261 13.3574 20.2881 13.6955 20.2881 14.1125C20.2881 14.5295 20.6261 14.8675 21.0431 14.8675C21.4601 14.8675 21.7982 14.5295 21.7982 14.1125Z" fill="#FEB3D2"/>
<path d="M46.5289 9.70016V20.8682H44.2729L39.2169 13.2362V20.8682H36.9609V9.70016H39.2169L44.2729 17.3482V9.70016H46.5289ZM52.9502 20.9802C52.2675 20.9802 51.6329 20.8735 51.0462 20.6602C50.4702 20.4468 49.9635 20.1428 49.5262 19.7482C49.0995 19.3535 48.7635 18.8842 48.5182 18.3402C48.2835 17.7855 48.1662 17.1722 48.1662 16.5002C48.1662 15.8068 48.2889 15.1775 48.5342 14.6122C48.7795 14.0468 49.1209 13.5615 49.5582 13.1562C49.9955 12.7508 50.4969 12.4415 51.0622 12.2282C51.6275 12.0042 52.2249 11.8922 52.8542 11.8922C53.3875 11.8922 53.8889 11.9668 54.3582 12.1162C54.8275 12.2548 55.2382 12.4575 55.5902 12.7242C55.9529 12.9802 56.2302 13.2895 56.4222 13.6522C56.6249 14.0148 56.7262 14.4095 56.7262 14.8362C56.7262 15.3908 56.5662 15.8548 56.2462 16.2282C55.9262 16.6015 55.4995 16.9002 54.9662 17.1242C54.4435 17.3375 53.8675 17.4868 53.2382 17.5722C52.6089 17.6468 51.9902 17.6735 51.3822 17.6522C51.2862 17.6415 51.1742 17.6362 51.0462 17.6362C50.9182 17.6362 50.8009 17.6362 50.6942 17.6362C50.5982 17.6255 50.5342 17.6202 50.5022 17.6202C50.5662 17.9082 50.7155 18.1748 50.9502 18.4202C51.1955 18.6655 51.4942 18.8575 51.8462 18.9962C52.1982 19.1242 52.5769 19.1882 52.9822 19.1882C53.3342 19.1882 53.6755 19.1295 54.0062 19.0122C54.3369 18.8948 54.6409 18.7348 54.9182 18.5322C55.2062 18.3188 55.4409 18.0895 55.6222 17.8442L57.1742 19.0122C56.8329 19.4602 56.4382 19.8335 55.9902 20.1322C55.5422 20.4202 55.0622 20.6335 54.5502 20.7722C54.0382 20.9108 53.5049 20.9802 52.9502 20.9802ZM51.4622 16.0362C51.8142 16.0362 52.1662 16.0202 52.5182 15.9882C52.8809 15.9562 53.2115 15.8975 53.5102 15.8122C53.8195 15.7162 54.0649 15.5882 54.2462 15.4282C54.4382 15.2575 54.5342 15.0442 54.5342 14.7882C54.5342 14.5748 54.4595 14.3882 54.3102 14.2282C54.1715 14.0575 53.9795 13.9242 53.7342 13.8282C53.4995 13.7215 53.2275 13.6682 52.9182 13.6682C52.4275 13.6682 51.9902 13.7802 51.6062 14.0042C51.2329 14.2282 50.9395 14.5215 50.7262 14.8842C50.5129 15.2362 50.3955 15.6042 50.3742 15.9882C50.5022 15.9988 50.6622 16.0095 50.8542 16.0202C51.0462 16.0308 51.2489 16.0362 51.4622 16.0362ZM58.6484 20.8682V12.0042H60.9044V20.8682H58.6484ZM60.4244 16.7242L60.9044 14.0362C61.1071 13.3748 61.4484 12.8522 61.9284 12.4682C62.4191 12.0842 63.0004 11.8922 63.6724 11.8922V14.2602C63.5764 14.2282 63.4804 14.2122 63.3844 14.2122C63.2991 14.2015 63.2084 14.1962 63.1124 14.1962C62.6964 14.1962 62.3178 14.2922 61.9764 14.4842C61.6458 14.6762 61.3844 14.9588 61.1924 15.3322C61.0004 15.7055 60.9044 16.1695 60.9044 16.7242H60.4244ZM68.5408 20.9802C67.7621 20.9802 67.0741 20.7882 66.4768 20.4042C65.8795 20.0095 65.4101 19.4708 65.0688 18.7882C64.7275 18.0948 64.5568 17.3108 64.5568 16.4362C64.5568 15.5508 64.7275 14.7668 65.0688 14.0842C65.4101 13.4015 65.8795 12.8682 66.4768 12.4842C67.0741 12.0895 67.7621 11.8922 68.5408 11.8922C69.2448 11.8922 69.8581 12.0735 70.3808 12.4362C70.9035 12.7988 71.2821 13.3002 71.5168 13.9402V9.02816H73.7888V20.8682H72.7008C72.3381 20.8682 72.0501 20.7615 71.8368 20.5482C71.6235 20.3242 71.5168 20.0308 71.5168 19.6682V18.9162C71.2821 19.5668 70.9035 20.0735 70.3808 20.4362C69.8581 20.7988 69.2448 20.9802 68.5408 20.9802ZM69.1808 19.0122C69.5968 19.0122 69.9808 18.9108 70.3328 18.7082C70.6848 18.5055 70.9675 18.2122 71.1808 17.8282C71.4048 17.4442 71.5168 16.9802 71.5168 16.4362C71.5168 15.8815 71.4048 15.4122 71.1808 15.0282C70.9675 14.6442 70.6848 14.3562 70.3328 14.1642C69.9808 13.9615 69.5968 13.8602 69.1808 13.8602C68.7861 13.8602 68.4075 13.9615 68.0448 14.1642C67.6928 14.3562 67.4048 14.6442 67.1808 15.0282C66.9675 15.4122 66.8608 15.8815 66.8608 16.4362C66.8608 16.9802 66.9675 17.4442 67.1808 17.8282C67.4048 18.2122 67.6928 18.5055 68.0448 18.7082C68.4075 18.9108 68.7861 19.0122 69.1808 19.0122Z" fill="#FEB3D2"/>
</svg>
