<svg width="77" height="30" viewBox="0 0 77 30" fill="none" xmlns="http://www.w3.org/2000/svg">
<rect width="76.4575" height="29.7366" rx="14.8683" fill="#602B00"/>
<path fill-rule="evenodd" clip-rule="evenodd" d="M29.4847 7.86275L28.9555 9.28086C28.7385 9.78906 28.5197 10.2964 28.2989 10.803C27.6908 12.1081 26.853 13.6339 25.8529 14.6869C24.8967 15.6915 23.4544 16.6181 22.2991 17.2756C22.4511 18.0046 22.4192 18.76 22.2062 19.4736C21.9933 20.1872 21.6059 20.8366 21.0792 21.3631C19.0431 23.3992 16.7684 23.3992 15.0767 22.8969C13.794 22.5148 12.7392 21.8223 11.731 20.9702C11.6896 20.9354 11.6567 20.8915 11.6349 20.8419C11.6131 20.7924 11.603 20.7385 11.6053 20.6844C11.6077 20.6303 11.6224 20.5775 11.6484 20.53C11.6744 20.4825 11.7109 20.4416 11.7552 20.4105L12.2037 20.0858C12.8065 19.631 13.3922 19.0758 13.5402 18.3322C13.643 17.5022 13.7019 17.0498 13.7169 16.9751C13.8407 16.3571 14.1026 15.6556 14.7376 15.0197C15.264 14.4931 15.9132 14.1059 16.6267 13.8929C17.3401 13.6799 18.0953 13.6479 18.8242 13.7998C19.4817 12.6454 20.4083 11.2031 21.4129 10.2478C22.4659 9.24678 23.9917 8.40901 25.2968 7.80086L26.8189 7.14338L28.2371 6.61507C28.4109 6.55516 28.5981 6.5453 28.7772 6.58661C28.9564 6.62791 29.1203 6.71872 29.2504 6.84869C29.3805 6.97865 29.4714 7.14254 29.5128 7.32168C29.5542 7.50081 29.5445 7.68798 29.4847 7.86186V7.86275ZM20.4818 14.5174C20.9101 14.8176 21.2826 15.1903 21.5824 15.6189C21.934 15.4152 22.2955 15.1946 22.6498 14.9623L22.6229 14.9022C22.4755 14.5919 22.2752 14.3096 22.0309 14.068C21.8151 13.852 21.5681 13.6697 21.2981 13.5271L21.1375 13.45C20.9052 13.8043 20.6855 14.1658 20.4818 14.5174ZM27.1571 8.94271C26.8136 9.08533 26.4395 9.24768 26.0538 9.42707C24.7909 10.0164 23.4831 10.7546 22.6489 11.5475C22.5022 11.6889 22.3615 11.8364 22.2274 11.9897C22.5521 12.1691 22.9288 12.4292 23.2992 12.8006C23.6706 13.171 23.9307 13.5478 24.1101 13.8725C24.2704 13.7325 24.4178 13.592 24.5523 13.4509C25.3452 12.6167 26.0834 11.3089 26.6727 10.0451C26.8521 9.65939 27.0145 9.28625 27.1571 8.94271Z" fill="#F68442"/>
<path d="M36.9565 20.8682V9.70016H40.8605C42.0552 9.70016 43.0899 9.9295 43.9645 10.3882C44.8499 10.8468 45.5379 11.4975 46.0285 12.3402C46.5192 13.1828 46.7645 14.1695 46.7645 15.3002C46.7645 16.4308 46.5192 17.4122 46.0285 18.2442C45.5379 19.0762 44.8499 19.7215 43.9645 20.1802C43.0899 20.6388 42.0552 20.8682 40.8605 20.8682H36.9565ZM39.2125 18.9482H40.7805C41.9539 18.9482 42.8552 18.6282 43.4845 17.9882C44.1245 17.3482 44.4445 16.4522 44.4445 15.3002C44.4445 14.1482 44.1245 13.2415 43.4845 12.5802C42.8552 11.9188 41.9539 11.5882 40.7805 11.5882H39.2125V18.9482ZM48.3289 20.8682V19.0442H49.5769V11.5242H48.3289V9.70016H53.0809V11.5242H51.8329V19.0442H53.0809V20.8682H48.3289ZM54.2473 9.70016H56.8073L59.6553 15.7962H58.7113L61.5593 9.70016H64.0873L60.3113 16.9802V20.8682H58.0393V16.9802L54.2473 9.70016Z" fill="#EE7137"/>
</svg>
