<svg width="142" height="30" viewBox="0 0 142 30" fill="none" xmlns="http://www.w3.org/2000/svg">
<rect width="141.992" height="29.7366" rx="14.8683" fill="#086387"/>
<path fill-rule="evenodd" clip-rule="evenodd" d="M22.3558 8.82739L25.0715 15.7196L23.7476 16.1076L26.4578 23.2885L24.7461 23.9282L21.9891 16.6232L20.7497 16.9858L18.1935 23.9289L16.5133 23.2111L18.5697 17.6252L13.2218 19.1932L11.605 15.9706L22.3558 8.82739ZM26.9008 5.80762L30.4813 14.134L26.8321 15.2035L23.9123 7.79323L26.9008 5.80762Z" fill="#6EE8ED"/>
<path d="M47.9872 11.5242H43.7472V14.3082H47.5072V16.0842H43.7472V19.0442H47.9872V20.8682H41.4912V9.70016H47.9872V11.5242ZM49.0148 12.0042H51.5748L57.4628 20.8682H54.9028L49.0148 12.0042ZM53.5748 17.3162L51.4788 20.8682H49.0628L52.4868 15.6042L53.5748 17.3162ZM52.9508 15.4602L54.9988 12.0042H57.4148L54.0068 17.1722L52.9508 15.4602ZM63.9107 20.9802C63.2174 20.9802 62.604 20.7988 62.0707 20.4362C61.548 20.0735 61.1747 19.5668 60.9507 18.9162V25.0922H58.6787V12.0042H60.9507V13.9402C61.1747 13.3002 61.548 12.7988 62.0707 12.4362C62.604 12.0735 63.2174 11.8922 63.9107 11.8922C64.6894 11.8922 65.3774 12.0895 65.9747 12.4842C66.5827 12.8682 67.0574 13.4015 67.3987 14.0842C67.74 14.7668 67.9107 15.5508 67.9107 16.4362C67.9107 17.3108 67.74 18.0948 67.3987 18.7882C67.0574 19.4708 66.5827 20.0095 65.9747 20.4042C65.3774 20.7882 64.6894 20.9802 63.9107 20.9802ZM63.2707 19.0122C63.676 19.0122 64.0547 18.9108 64.4067 18.7082C64.7587 18.5055 65.0414 18.2122 65.2547 17.8282C65.4787 17.4442 65.5907 16.9802 65.5907 16.4362C65.5907 15.8815 65.4787 15.4122 65.2547 15.0282C65.0414 14.6442 64.7587 14.3562 64.4067 14.1642C64.0547 13.9615 63.676 13.8602 63.2707 13.8602C62.8654 13.8602 62.4867 13.9615 62.1347 14.1642C61.7827 14.3562 61.4947 14.6442 61.2707 15.0282C61.0574 15.4122 60.9507 15.8815 60.9507 16.4362C60.9507 16.9802 61.0574 17.4442 61.2707 17.8282C61.4947 18.2122 61.7827 18.5055 62.1347 18.7082C62.4867 18.9108 62.8654 19.0122 63.2707 19.0122ZM73.9023 20.9802C73.2197 20.9802 72.585 20.8735 71.9983 20.6602C71.4223 20.4468 70.9157 20.1428 70.4783 19.7482C70.0517 19.3535 69.7157 18.8842 69.4703 18.3402C69.2357 17.7855 69.1183 17.1722 69.1183 16.5002C69.1183 15.8068 69.241 15.1775 69.4863 14.6122C69.7317 14.0468 70.073 13.5615 70.5103 13.1562C70.9477 12.7508 71.449 12.4415 72.0143 12.2282C72.5797 12.0042 73.177 11.8922 73.8063 11.8922C74.3397 11.8922 74.841 11.9668 75.3103 12.1162C75.7797 12.2548 76.1903 12.4575 76.5423 12.7242C76.905 12.9802 77.1823 13.2895 77.3743 13.6522C77.577 14.0148 77.6783 14.4095 77.6783 14.8362C77.6783 15.3908 77.5183 15.8548 77.1983 16.2282C76.8783 16.6015 76.4517 16.9002 75.9183 17.1242C75.3957 17.3375 74.8197 17.4868 74.1903 17.5722C73.561 17.6468 72.9423 17.6735 72.3343 17.6522C72.2383 17.6415 72.1263 17.6362 71.9983 17.6362C71.8703 17.6362 71.753 17.6362 71.6463 17.6362C71.5503 17.6255 71.4863 17.6202 71.4543 17.6202C71.5183 17.9082 71.6677 18.1748 71.9023 18.4202C72.1477 18.6655 72.4463 18.8575 72.7983 18.9962C73.1503 19.1242 73.529 19.1882 73.9343 19.1882C74.2863 19.1882 74.6277 19.1295 74.9583 19.0122C75.289 18.8948 75.593 18.7348 75.8703 18.5322C76.1583 18.3188 76.393 18.0895 76.5743 17.8442L78.1263 19.0122C77.785 19.4602 77.3903 19.8335 76.9423 20.1322C76.4943 20.4202 76.0143 20.6335 75.5023 20.7722C74.9903 20.9108 74.457 20.9802 73.9023 20.9802ZM72.4143 16.0362C72.7663 16.0362 73.1183 16.0202 73.4703 15.9882C73.833 15.9562 74.1637 15.8975 74.4623 15.8122C74.7717 15.7162 75.017 15.5882 75.1983 15.4282C75.3903 15.2575 75.4863 15.0442 75.4863 14.7882C75.4863 14.5748 75.4117 14.3882 75.2623 14.2282C75.1237 14.0575 74.9317 13.9242 74.6863 13.8282C74.4517 13.7215 74.1797 13.6682 73.8703 13.6682C73.3797 13.6682 72.9423 13.7802 72.5583 14.0042C72.185 14.2282 71.8917 14.5215 71.6783 14.8842C71.465 15.2362 71.3477 15.6042 71.3263 15.9882C71.4543 15.9988 71.6143 16.0095 71.8063 16.0202C71.9983 16.0308 72.201 16.0362 72.4143 16.0362ZM79.6006 20.8682V12.0042H81.8566V20.8682H79.6006ZM81.3766 16.7242L81.8566 14.0362C82.0592 13.3748 82.4006 12.8522 82.8806 12.4682C83.3712 12.0842 83.9526 11.8922 84.6246 11.8922V14.2602C84.5286 14.2282 84.4326 14.2122 84.3366 14.2122C84.2512 14.2015 84.1606 14.1962 84.0646 14.1962C83.6486 14.1962 83.2699 14.2922 82.9286 14.4842C82.5979 14.6762 82.3366 14.9588 82.1446 15.3322C81.9526 15.7055 81.8566 16.1695 81.8566 16.7242H81.3766ZM86.1158 20.8682V12.0042H88.3878V20.8682H86.1158ZM87.2678 10.9322C86.8198 10.9322 86.4465 10.7988 86.1478 10.5322C85.8492 10.2548 85.6998 9.9135 85.6998 9.50816C85.6998 9.10283 85.8492 8.7615 86.1478 8.48416C86.4465 8.20683 86.8198 8.06816 87.2678 8.06816C87.7158 8.06816 88.0892 8.20683 88.3878 8.48416C88.6865 8.7615 88.8358 9.10283 88.8358 9.50816C88.8358 9.9135 88.6865 10.2548 88.3878 10.5322C88.0892 10.7988 87.7158 10.9322 87.2678 10.9322ZM94.8242 20.9802C94.1415 20.9802 93.5069 20.8735 92.9202 20.6602C92.3442 20.4468 91.8375 20.1428 91.4002 19.7482C90.9735 19.3535 90.6375 18.8842 90.3922 18.3402C90.1575 17.7855 90.0402 17.1722 90.0402 16.5002C90.0402 15.8068 90.1629 15.1775 90.4082 14.6122C90.6535 14.0468 90.9949 13.5615 91.4322 13.1562C91.8695 12.7508 92.3709 12.4415 92.9362 12.2282C93.5015 12.0042 94.0989 11.8922 94.7282 11.8922C95.2615 11.8922 95.7629 11.9668 96.2322 12.1162C96.7015 12.2548 97.1122 12.4575 97.4642 12.7242C97.8269 12.9802 98.1042 13.2895 98.2962 13.6522C98.4989 14.0148 98.6002 14.4095 98.6002 14.8362C98.6002 15.3908 98.4402 15.8548 98.1202 16.2282C97.8002 16.6015 97.3735 16.9002 96.8402 17.1242C96.3175 17.3375 95.7415 17.4868 95.1122 17.5722C94.4829 17.6468 93.8642 17.6735 93.2562 17.6522C93.1602 17.6415 93.0482 17.6362 92.9202 17.6362C92.7922 17.6362 92.6749 17.6362 92.5682 17.6362C92.4722 17.6255 92.4082 17.6202 92.3762 17.6202C92.4402 17.9082 92.5895 18.1748 92.8242 18.4202C93.0695 18.6655 93.3682 18.8575 93.7202 18.9962C94.0722 19.1242 94.4509 19.1882 94.8562 19.1882C95.2082 19.1882 95.5495 19.1295 95.8802 19.0122C96.2109 18.8948 96.5149 18.7348 96.7922 18.5322C97.0802 18.3188 97.3149 18.0895 97.4962 17.8442L99.0482 19.0122C98.7069 19.4602 98.3122 19.8335 97.8642 20.1322C97.4162 20.4202 96.9362 20.6335 96.4242 20.7722C95.9122 20.9108 95.3789 20.9802 94.8242 20.9802ZM93.3362 16.0362C93.6882 16.0362 94.0402 16.0202 94.3922 15.9882C94.7549 15.9562 95.0855 15.8975 95.3842 15.8122C95.6935 15.7162 95.9389 15.5882 96.1202 15.4282C96.3122 15.2575 96.4082 15.0442 96.4082 14.7882C96.4082 14.5748 96.3335 14.3882 96.1842 14.2282C96.0455 14.0575 95.8535 13.9242 95.6082 13.8282C95.3735 13.7215 95.1015 13.6682 94.7922 13.6682C94.3015 13.6682 93.8642 13.7802 93.4802 14.0042C93.1069 14.2282 92.8135 14.5215 92.6002 14.8842C92.3869 15.2362 92.2695 15.6042 92.2482 15.9882C92.3762 15.9988 92.5362 16.0095 92.7282 16.0202C92.9202 16.0308 93.1229 16.0362 93.3362 16.0362ZM100.522 20.8682V12.0042H102.778V13.8762C102.917 13.4815 103.13 13.1348 103.418 12.8362C103.706 12.5375 104.042 12.3082 104.426 12.1482C104.81 11.9775 105.205 11.8922 105.61 11.8922C106.282 11.8922 106.869 12.0415 107.37 12.3402C107.882 12.6388 108.277 13.0708 108.554 13.6362C108.832 14.1908 108.97 14.8628 108.97 15.6522V20.8682H106.73V16.0682C106.73 15.3642 106.549 14.8148 106.186 14.4202C105.824 14.0148 105.349 13.8122 104.762 13.8122C104.368 13.8122 104.021 13.9188 103.722 14.1322C103.424 14.3348 103.189 14.6175 103.018 14.9802C102.858 15.3428 102.778 15.7588 102.778 16.2282V20.8682H100.522ZM114.909 20.9802C114.055 20.9802 113.298 20.7935 112.637 20.4202C111.975 20.0468 111.458 19.5188 111.085 18.8362C110.711 18.1428 110.525 17.3375 110.525 16.4202C110.525 15.5028 110.706 14.7082 111.069 14.0362C111.442 13.3535 111.959 12.8255 112.621 12.4522C113.282 12.0788 114.045 11.8922 114.909 11.8922C115.378 11.8922 115.821 11.9402 116.237 12.0362C116.663 12.1322 117.047 12.2868 117.389 12.5002C117.73 12.7028 118.034 12.9802 118.301 13.3322C118.567 13.6735 118.786 14.1002 118.957 14.6122L116.781 15.3002C116.621 14.8095 116.381 14.4362 116.061 14.1802C115.751 13.9242 115.362 13.7962 114.893 13.7962C114.477 13.7962 114.114 13.8975 113.805 14.1002C113.495 14.3028 113.255 14.6015 113.085 14.9962C112.914 15.3802 112.829 15.8548 112.829 16.4202C112.829 16.9855 112.914 17.4655 113.085 17.8602C113.255 18.2548 113.495 18.5588 113.805 18.7722C114.114 18.9748 114.477 19.0762 114.893 19.0762C115.437 19.0762 115.869 18.9215 116.189 18.6122C116.519 18.2922 116.743 17.8868 116.861 17.3962L119.053 17.9082C118.914 18.4522 118.663 18.9588 118.301 19.4282C117.949 19.8975 117.495 20.2762 116.941 20.5642C116.386 20.8415 115.709 20.9802 114.909 20.9802ZM124.918 20.9802C124.235 20.9802 123.601 20.8735 123.014 20.6602C122.438 20.4468 121.931 20.1428 121.494 19.7482C121.067 19.3535 120.731 18.8842 120.486 18.3402C120.251 17.7855 120.134 17.1722 120.134 16.5002C120.134 15.8068 120.257 15.1775 120.502 14.6122C120.747 14.0468 121.089 13.5615 121.526 13.1562C121.963 12.7508 122.465 12.4415 123.03 12.2282C123.595 12.0042 124.193 11.8922 124.822 11.8922C125.355 11.8922 125.857 11.9668 126.326 12.1162C126.795 12.2548 127.206 12.4575 127.558 12.7242C127.921 12.9802 128.198 13.2895 128.39 13.6522C128.593 14.0148 128.694 14.4095 128.694 14.8362C128.694 15.3908 128.534 15.8548 128.214 16.2282C127.894 16.6015 127.467 16.9002 126.934 17.1242C126.411 17.3375 125.835 17.4868 125.206 17.5722C124.577 17.6468 123.958 17.6735 123.35 17.6522C123.254 17.6415 123.142 17.6362 123.014 17.6362C122.886 17.6362 122.769 17.6362 122.662 17.6362C122.566 17.6255 122.502 17.6202 122.47 17.6202C122.534 17.9082 122.683 18.1748 122.918 18.4202C123.163 18.6655 123.462 18.8575 123.814 18.9962C124.166 19.1242 124.545 19.1882 124.95 19.1882C125.302 19.1882 125.643 19.1295 125.974 19.0122C126.305 18.8948 126.609 18.7348 126.886 18.5322C127.174 18.3188 127.409 18.0895 127.59 17.8442L129.142 19.0122C128.801 19.4602 128.406 19.8335 127.958 20.1322C127.51 20.4202 127.03 20.6335 126.518 20.7722C126.006 20.9108 125.473 20.9802 124.918 20.9802ZM123.43 16.0362C123.782 16.0362 124.134 16.0202 124.486 15.9882C124.849 15.9562 125.179 15.8975 125.478 15.8122C125.787 15.7162 126.033 15.5882 126.214 15.4282C126.406 15.2575 126.502 15.0442 126.502 14.7882C126.502 14.5748 126.427 14.3882 126.278 14.2282C126.139 14.0575 125.947 13.9242 125.702 13.8282C125.467 13.7215 125.195 13.6682 124.886 13.6682C124.395 13.6682 123.958 13.7802 123.574 14.0042C123.201 14.2282 122.907 14.5215 122.694 14.8842C122.481 15.2362 122.363 15.6042 122.342 15.9882C122.47 15.9988 122.63 16.0095 122.822 16.0202C123.014 16.0308 123.217 16.0362 123.43 16.0362Z" fill="#6EE8ED"/>
</svg>
